<?xml version="1.0" encoding="UTF-8"?>
<!-- Generator: Adobe Illustrator 28.0.0, SVG Export Plug-In . SVG Version: 6.00 Build 0)  -->
<svg xmlns="http://www.w3.org/2000/svg" xmlns:xlink="http://www.w3.org/1999/xlink" version="1.1" id="Lager_1" x="0px" y="0px" viewBox="0 0 462.41 178.94" style="enable-background:new 0 0 462.41 178.94;" xml:space="preserve">
<style type="text/css">
	.st0{fill:#1B446F;}
</style>
<g>
	<g>
		<path class="st0" d="M457.25,57.53c-1.13-1.67-2.55-2.99-4.29-3.97c-1.73-0.97-3.59-1.69-5.57-2.15    c-1.98-0.46-3.83-0.88-5.57-1.28c-1.73-0.4-3.16-0.85-4.29-1.37c-1.13-0.52-1.69-1.32-1.69-2.42c0-1.34,0.55-2.28,1.64-2.83    c1.1-0.55,2.22-0.82,3.38-0.82c3.29,0,5.93,1.25,7.94,3.74l8.39-8.3c-2.07-2.19-4.59-3.71-7.57-4.56    c-2.98-0.85-5.93-1.28-8.85-1.28c-2.31,0-4.59,0.29-6.84,0.87c-2.25,0.58-4.24,1.48-5.98,2.69c-1.73,1.22-3.13,2.77-4.2,4.65    c-1.06,1.89-1.6,4.14-1.6,6.75c0,2.8,0.56,5.03,1.69,6.71s2.56,2.96,4.29,3.88c1.73,0.91,3.59,1.6,5.57,2.05    c1.98,0.46,3.83,0.88,5.57,1.28c1.73,0.4,3.16,0.88,4.29,1.46c1.12,0.58,1.69,1.45,1.69,2.6c0,1.22-0.64,2.05-1.91,2.51    c-1.28,0.45-2.71,0.68-4.29,0.68c-2.07,0-3.88-0.41-5.43-1.23c-1.55-0.82-2.96-2.02-4.24-3.61l-8.3,9.22    c2.19,2.25,4.87,3.82,8.03,4.7c3.16,0.88,6.3,1.32,9.4,1.32c2.37,0,4.77-0.23,7.21-0.68c2.43-0.46,4.62-1.25,6.57-2.37    c1.95-1.12,3.54-2.61,4.79-4.47s1.87-4.21,1.87-7.07C458.94,61.44,458.37,59.2,457.25,57.53z"></path>
		<g>
			<path class="st0" d="M53.32,53.92c-0.67-1.82-1.63-3.42-2.88-4.79c-1.24-1.37-2.73-2.49-4.47-3.37     c-1.73-0.88-3.66-1.48-5.79-1.78V43.8c3.34-1.04,6.04-2.76,8.07-5.16c2.04-2.4,3.06-5.43,3.06-9.08c0-3.53-0.7-6.36-2.1-8.49     c-1.4-2.13-3.22-3.78-5.47-4.97c-2.25-1.18-4.79-1.98-7.62-2.37c-2.83-0.4-5.64-0.59-8.44-0.59H3.59v64.6h26.46     c2.86,0,5.73-0.3,8.62-0.91c2.89-0.61,5.49-1.61,7.8-3.02c2.32-1.39,4.2-3.23,5.66-5.52c1.46-2.28,2.19-5.12,2.19-8.53     C54.32,57.7,53.99,55.75,53.32,53.92z M17.82,25.18h9.68c1.09,0,2.22,0.11,3.37,0.32c1.16,0.21,2.19,0.56,3.1,1.05     c0.92,0.49,1.66,1.17,2.24,2.05c0.58,0.88,0.87,1.99,0.87,3.33c0,1.28-0.26,2.37-0.78,3.29c-0.52,0.91-1.2,1.64-2.05,2.19     c-0.86,0.55-1.81,0.94-2.88,1.18c-1.06,0.25-2.14,0.37-3.23,0.37H17.82V25.18z M39.22,61.68c-0.58,0.97-1.32,1.77-2.23,2.37     c-0.92,0.61-1.94,1.04-3.06,1.28c-1.13,0.24-2.24,0.36-3.33,0.36H17.82V51h10.77c1.16,0,2.4,0.09,3.74,0.28     c1.34,0.18,2.59,0.52,3.74,1c1.16,0.49,2.11,1.2,2.88,2.15c0.76,0.94,1.14,2.17,1.14,3.69C40.09,59.52,39.8,60.71,39.22,61.68z"></path>
			<path class="st0" d="M106.7,45.98c-1.28-2.85-3.03-5.3-5.25-7.34s-4.84-3.61-7.85-4.7c-3.01-1.09-6.22-1.64-9.62-1.64     c-3.41,0-6.62,0.55-9.63,1.64c-3.01,1.09-5.63,2.66-7.85,4.7c-2.22,2.04-3.97,4.49-5.24,7.34c-1.28,2.86-1.92,6.06-1.92,9.59     c0,3.52,0.64,6.72,1.92,9.58c1.27,2.86,3.02,5.3,5.24,7.34c2.22,2.04,4.84,3.61,7.85,4.7c3.01,1.1,6.22,1.64,9.63,1.64     c3.4,0,6.61-0.54,9.62-1.64c3.01-1.09,5.63-2.66,7.85-4.7c2.22-2.04,3.97-4.48,5.25-7.34c1.27-2.86,1.91-6.06,1.91-9.58     C108.61,52.04,107.97,48.84,106.7,45.98z M92.05,63.69c-1.91,2.07-4.61,3.1-8.07,3.1c-3.47,0-6.16-1.03-8.08-3.1     c-1.92-2.07-2.87-4.78-2.87-8.12c0-3.35,0.95-6.06,2.87-8.13c1.92-2.06,4.61-3.1,8.08-3.1c3.46,0,6.16,1.04,8.07,3.1     c1.92,2.07,2.88,4.78,2.88,8.13C94.93,58.91,93.97,61.62,92.05,63.69z"></path>
			<path class="st0" d="M143.29,32.3c-3.04,0-5.57,0.68-7.57,2.05c-2.01,1.37-3.74,3.42-5.2,6.16h-0.18V33.4h-13.69v44.35h13.69     V59.22c0-2.19,0.12-4.2,0.37-6.02c0.24-1.83,0.78-3.39,1.6-4.7c0.82-1.31,1.99-2.33,3.51-3.06c1.52-0.73,3.59-1.09,6.21-1.09     c1.03,0,2.02,0.08,2.96,0.23c0.94,0.15,1.9,0.38,2.88,0.68v-12.5c-0.67-0.18-1.4-0.3-2.19-0.37     C144.87,32.33,144.08,32.3,143.29,32.3z"></path>
			<path class="st0" d="M186.08,33.39v5.84h-0.18c-0.55-0.79-1.28-1.59-2.19-2.42c-0.91-0.82-2.01-1.56-3.29-2.23     c-1.27-0.67-2.72-1.22-4.33-1.64c-1.61-0.43-3.39-0.64-5.34-0.64c-3.16,0-5.99,0.65-8.48,1.96c-2.5,1.31-4.61,3.03-6.35,5.15     c-1.73,2.14-3.07,4.6-4.01,7.4c-0.94,2.79-1.42,5.65-1.42,8.57c0,3.35,0.52,6.42,1.56,9.22c1.03,2.8,2.51,5.22,4.42,7.25     c1.92,2.04,4.21,3.62,6.89,4.75c2.68,1.12,5.66,1.69,8.94,1.69c2.07,0,4.28-0.45,6.62-1.33c2.34-0.88,4.3-2.38,5.88-4.51h0.19     v4.29c0,3.16-0.99,5.76-2.97,7.8c-1.98,2.03-5.06,3.05-9.26,3.05c-2.8,0-5.37-0.51-7.71-1.55c-2.34-1.03-4.58-2.43-6.71-4.19     l-7.57,11.31c3.22,2.56,6.75,4.27,10.59,5.15c3.83,0.89,7.72,1.33,11.67,1.33c8.64,0,15.07-2.18,19.3-6.53     c4.23-4.34,6.34-10.72,6.34-19.11V33.39H186.08z M185.26,59.44c-0.55,1.31-1.32,2.47-2.33,3.47c-1,1-2.17,1.81-3.51,2.42     c-1.34,0.61-2.77,0.91-4.29,0.91c-1.58,0-3.03-0.3-4.33-0.91c-1.31-0.61-2.47-1.42-3.47-2.42s-1.78-2.16-2.33-3.47     c-0.54-1.3-0.82-2.69-0.82-4.15c0-1.46,0.28-2.84,0.82-4.15c0.55-1.31,1.33-2.46,2.33-3.47c1-1,2.16-1.81,3.47-2.42     c1.3-0.6,2.75-0.91,4.33-0.91c1.52,0,2.95,0.31,4.29,0.91c1.34,0.61,2.51,1.42,3.51,2.42c1.01,1.01,1.78,2.16,2.33,3.47     c0.55,1.31,0.82,2.69,0.82,4.15C186.08,56.75,185.81,58.14,185.26,59.44z"></path>
			<path class="st0" d="M249.27,38.33c-1.19-1.89-2.84-3.36-4.97-4.43c-2.13-1.06-4.93-1.6-8.39-1.6c-1.64,0-3.16,0.21-4.56,0.64     c-1.4,0.43-2.61,0.97-3.65,1.64c-1.03,0.67-1.92,1.43-2.65,2.28c-0.73,0.85-1.25,1.7-1.55,2.55h-0.18V8.76h-13.69v68.98h13.69     V55.66c0-1.46,0.09-2.86,0.27-4.2c0.18-1.34,0.56-2.54,1.14-3.6c0.58-1.06,1.41-1.92,2.51-2.56c1.1-0.64,2.52-0.96,4.29-0.96     c1.76,0,3.12,0.37,4.06,1.09c0.94,0.73,1.64,1.68,2.1,2.83c0.46,1.16,0.73,2.42,0.82,3.79c0.09,1.37,0.14,2.69,0.14,3.97v21.72     h13.69V53.29c0-2.98-0.22-5.75-0.64-8.3C251.26,42.43,250.46,40.21,249.27,38.33z"></path>
			<path class="st0" d="M307.71,45.98c-1.28-2.85-3.03-5.3-5.24-7.34c-2.23-2.04-4.84-3.61-7.85-4.7c-3.01-1.09-6.22-1.64-9.63-1.64     s-6.61,0.55-9.63,1.64c-3.01,1.09-5.62,2.66-7.84,4.7c-2.22,2.04-3.97,4.49-5.25,7.34c-1.28,2.86-1.92,6.06-1.92,9.59     c0,3.52,0.64,6.72,1.92,9.58c1.28,2.86,3.03,5.3,5.25,7.34c2.22,2.04,4.83,3.61,7.84,4.7c3.02,1.1,6.22,1.64,9.63,1.64     c1.05,0,2.09-0.05,3.1-0.16c0.49-2.29,1.88-9.85-0.16-14.09c0,0-3.37-0.79-5.93-0.53c-2.56,0.27-8.01,1.35-11.72-2.08     c-3.7-3.44-2.63-6.54-2.63-6.54s1.15,2.63,5.53,1.48c4.38-1.14,9.69-2.96,12.32,0.26c-0.07-0.22-1.02-3.22,0.41-5.11     c1.48-1.95,8.01-6.59,6.34-10.36c0.21,0.16,3.5,2.84,3.76,7.4c0.27,4.72-2.56,8.05-3.36,9.36c-0.81,1.32-1.39,3.74-1.08,4.18     c0.25,0.37,5.17,5.98,6.65,12.9c1.55-0.85,2.96-1.87,4.25-3.05c2.21-2.04,3.96-4.48,5.24-7.34c1.28-2.86,1.92-6.06,1.92-9.58     C309.63,52.04,308.99,48.84,307.71,45.98z"></path>
			<rect x="317.84" y="8.76" class="st0" width="13.69" height="68.98"></rect>
			<path class="st0" d="M407.77,37.91c-1.19-1.73-2.8-3.1-4.84-4.11c-2.04-1-4.55-1.5-7.53-1.5c-3.29,0-6.06,0.61-8.3,1.82     c-2.25,1.22-4.17,3.26-5.75,6.11c-1.22-2.74-3.03-4.74-5.43-6.02c-2.4-1.28-5.16-1.91-8.26-1.91c-1.64,0-3.16,0.21-4.56,0.64     c-1.4,0.43-2.65,0.97-3.74,1.64c-1.1,0.67-2.04,1.43-2.83,2.28c-0.79,0.85-1.4,1.7-1.82,2.55h-0.18V33.4h-13.14v44.35h13.69     V55.66c0-1.46,0.09-2.86,0.27-4.2c0.18-1.34,0.56-2.54,1.14-3.6c0.58-1.06,1.41-1.92,2.51-2.56c1.1-0.64,2.52-0.96,4.29-0.96     c1.58,0,2.78,0.37,3.61,1.09c0.82,0.73,1.41,1.61,1.78,2.65c0.37,1.03,0.58,2.13,0.64,3.28c0.06,1.16,0.09,2.13,0.09,2.92v23.45     h13.69V54.29c0-1.34,0.14-2.61,0.41-3.83c0.27-1.22,0.73-2.28,1.37-3.19c0.64-0.91,1.49-1.63,2.55-2.15     c1.06-0.52,2.39-0.77,3.97-0.77c2.25,0,3.82,0.75,4.7,2.23c0.88,1.49,1.32,3.27,1.32,5.34v25.82h13.69V51.55     c0-2.68-0.26-5.19-0.78-7.53C409.8,41.69,408.95,39.65,407.77,37.91z"></path>
		</g>
	</g>
	<g>
		<path class="st0" d="M89.92,169.46v-60.2h27.86c4.18,0,7.71,0.7,10.58,2.11c2.87,1.41,5.04,3.28,6.54,5.63    c1.49,2.35,2.24,5.05,2.24,8.08c0,2.64-0.49,4.87-1.46,6.71c-0.98,1.84-2.31,3.28-4,4.34c-1.69,1.06-3.63,1.82-5.8,2.28v0.6    c2.64,0.34,4.9,1.08,6.79,2.19c1.89,1.12,3.35,2.68,4.39,4.69c1.03,2.01,1.55,4.47,1.55,7.4c0,3.1-0.77,5.88-2.32,8.34    c-1.55,2.47-3.8,4.39-6.75,5.76c-2.95,1.38-6.49,2.06-10.62,2.06H89.92z M125.44,126.63c0-2.52-0.82-4.43-2.45-5.72    s-3.88-1.94-6.75-1.94h-14.71v15.22h14.71c2.87,0,5.12-0.65,6.75-1.94S125.44,129.1,125.44,126.63z M101.53,159.74h15.82    c3.04,0,5.39-0.66,7.05-1.98c1.66-1.32,2.49-3.3,2.49-5.93c0-2.75-0.9-4.8-2.71-6.15c-1.81-1.35-4.2-2.02-7.18-2.02h-15.48V159.74    z"></path>
		<path class="st0" d="M173.08,169.46l-0.86-5.25c-1.43,1.84-3.05,3.25-4.86,4.26c-1.81,1-4.23,1.5-7.27,1.5    c-2.87,0-5.38-0.5-7.52-1.5c-2.15-1-3.83-2.41-5.03-4.21s-1.81-3.94-1.81-6.41c0-3.61,1.3-6.61,3.91-8.99    c2.61-2.38,6.55-3.88,11.83-4.52l10.75-1.12v-3.1c0-1.26-0.55-2.39-1.63-3.4c-1.09-1-2.81-1.5-5.16-1.5c-2.06,0-3.86,0.5-5.38,1.5    c-1.52,1-2.54,2.51-3.05,4.51l-9.55-3.44c1.26-3.84,3.5-6.79,6.71-8.86c3.21-2.06,7.14-3.1,11.78-3.1c5.68,0,9.98,1.43,12.9,4.3    c2.92,2.87,4.39,6.59,4.39,11.18v28.12H173.08z M172.22,150.89l-9.29,1.03c-1.95,0.29-3.4,0.88-4.34,1.76    c-0.95,0.89-1.42,1.94-1.42,3.14c0,1.26,0.5,2.31,1.5,3.14c1,0.83,2.37,1.25,4.08,1.25c2.01,0,3.71-0.36,5.12-1.08    c1.4-0.72,2.48-1.81,3.22-3.27s1.12-3.25,1.12-5.38V150.89z"></path>
		<path class="st0" d="M224.51,132.91l-1.38,0.26v-25.63h11.01v61.92h-9.98l-0.69-5.33c-1.32,1.66-3.12,3.07-5.42,4.21    s-4.9,1.72-7.83,1.72c-3.78,0-7.11-0.92-9.98-2.75c-2.87-1.83-5.1-4.41-6.71-7.74c-1.61-3.33-2.41-7.19-2.41-11.61    c0-4.47,0.8-8.37,2.41-11.7c1.6-3.32,3.84-5.89,6.71-7.7c2.87-1.81,6.19-2.71,9.98-2.71c3.27,0,6.13,0.69,8.6,2.06    C221.3,129.3,223.19,130.96,224.51,132.91z M202.93,147.96c0,3.56,0.93,6.45,2.79,8.69c1.86,2.24,4.29,3.35,7.27,3.35    c1.83,0,3.51-0.47,5.03-1.42c1.52-0.95,2.75-2.31,3.7-4.08c0.95-1.78,1.42-3.96,1.42-6.54s-0.47-4.76-1.42-6.54    c-0.95-1.78-2.18-3.14-3.7-4.08c-1.52-0.95-3.2-1.42-5.03-1.42c-2.98,0-5.41,1.12-7.27,3.35    C203.86,141.51,202.93,144.41,202.93,147.96z"></path>
		<path class="st0" d="M244.72,107.54h11.01v23.13c1.32-1.43,2.97-2.59,4.95-3.48c1.98-0.89,4.2-1.33,6.67-1.33    c3.27,0,6.12,0.7,8.56,2.11c2.44,1.41,4.31,3.48,5.63,6.24c1.32,2.75,1.98,6.14,1.98,10.15v25.11H271.9v-23.65    c0-3.32-0.66-5.83-1.98-7.52c-1.32-1.69-3.3-2.54-5.93-2.54c-2.7,0-4.74,0.92-6.15,2.75c-1.41,1.84-2.11,4.42-2.11,7.74v23.22    h-11.01V107.54z"></path>
		<path class="st0" d="M331.32,169.46h-10.15l-0.77-4.47c-1.38,1.61-3.05,2.85-5.03,3.74c-1.98,0.89-4.08,1.33-6.32,1.33    c-3.33,0-6.19-0.72-8.6-2.15c-2.41-1.43-4.26-3.51-5.55-6.24c-1.29-2.72-1.93-6.09-1.93-10.1v-25.11h11.01v23.65    c0,3.33,0.64,5.83,1.93,7.52c1.29,1.69,3.31,2.54,6.06,2.54c2.64,0,4.67-0.86,6.11-2.58c1.43-1.72,2.15-4.21,2.15-7.48v-23.65    h11.09V169.46z"></path>
		<path class="st0" d="M349.55,155.44c0.29,1.43,0.86,2.52,1.72,3.27c0.86,0.75,1.82,1.28,2.88,1.59c1.06,0.32,2.14,0.47,3.23,0.47    c2.01,0,3.57-0.39,4.69-1.16c1.12-0.77,1.68-1.73,1.68-2.88c0-1.09-0.39-1.92-1.16-2.49c-0.77-0.57-1.79-1.03-3.05-1.38    c-1.26-0.34-2.55-0.72-3.87-1.12c-1.55-0.34-3.21-0.76-4.99-1.25c-1.78-0.49-3.44-1.19-4.99-2.11c-1.55-0.92-2.83-2.11-3.83-3.57    c-1-1.46-1.5-3.31-1.5-5.55c0-2.69,0.73-5.04,2.19-7.05c1.46-2.01,3.5-3.57,6.11-4.69c2.61-1.12,5.63-1.68,9.07-1.68    c4.07,0,7.51,0.86,10.32,2.58c2.81,1.72,4.84,4.19,6.11,7.4l-9.63,2.75c-0.34-0.8-0.86-1.46-1.55-1.98    c-0.69-0.52-1.52-0.89-2.49-1.12c-0.98-0.23-1.92-0.34-2.84-0.34c-1.66,0-3.04,0.33-4.13,0.99c-1.09,0.66-1.63,1.59-1.63,2.79    c0,0.63,0.2,1.16,0.6,1.59c0.4,0.43,0.96,0.8,1.68,1.12c0.72,0.32,1.55,0.57,2.49,0.77c0.95,0.2,1.96,0.47,3.05,0.82    c1.83,0.46,3.66,0.98,5.46,1.55c1.81,0.57,3.47,1.32,4.99,2.24c1.52,0.92,2.74,2.15,3.66,3.7c0.92,1.55,1.43,3.5,1.55,5.85    c0,2.52-0.72,4.82-2.15,6.88c-1.43,2.06-3.5,3.68-6.19,4.86c-2.7,1.17-5.96,1.76-9.8,1.76c-4.47,0-8.27-0.95-11.39-2.84    c-3.13-1.89-5.17-4.87-6.15-8.94L349.55,155.44z"></path>
	</g>
</g>
<g>
	<g>
		<path class="st0" d="M457.25,57.53c-1.13-1.67-2.55-2.99-4.29-3.97c-1.73-0.97-3.59-1.69-5.57-2.15    c-1.98-0.46-3.83-0.88-5.57-1.28c-1.73-0.4-3.16-0.85-4.29-1.37c-1.13-0.52-1.69-1.32-1.69-2.42c0-1.34,0.55-2.28,1.64-2.83    c1.1-0.55,2.22-0.82,3.38-0.82c3.29,0,5.93,1.25,7.94,3.74l8.39-8.3c-2.07-2.19-4.59-3.71-7.57-4.56    c-2.98-0.85-5.93-1.28-8.85-1.28c-2.31,0-4.59,0.29-6.84,0.87c-2.25,0.58-4.24,1.48-5.98,2.69c-1.73,1.22-3.13,2.77-4.2,4.65    c-1.06,1.89-1.6,4.14-1.6,6.75c0,2.8,0.56,5.03,1.69,6.71s2.56,2.96,4.29,3.88c1.73,0.91,3.59,1.6,5.57,2.05    c1.98,0.46,3.83,0.88,5.57,1.28c1.73,0.4,3.16,0.88,4.29,1.46c1.12,0.58,1.69,1.45,1.69,2.6c0,1.22-0.64,2.05-1.91,2.51    c-1.28,0.45-2.71,0.68-4.29,0.68c-2.07,0-3.88-0.41-5.43-1.23c-1.55-0.82-2.96-2.02-4.24-3.61l-8.3,9.22    c2.19,2.25,4.87,3.82,8.03,4.7c3.16,0.88,6.3,1.32,9.4,1.32c2.37,0,4.77-0.23,7.21-0.68c2.43-0.46,4.62-1.25,6.57-2.37    c1.95-1.12,3.54-2.61,4.79-4.47s1.87-4.21,1.87-7.07C458.94,61.44,458.37,59.2,457.25,57.53z"></path>
		<g>
			<path class="st0" d="M53.32,53.92c-0.67-1.82-1.63-3.42-2.88-4.79c-1.24-1.37-2.73-2.49-4.47-3.37     c-1.73-0.88-3.66-1.48-5.79-1.78V43.8c3.34-1.04,6.04-2.76,8.07-5.16c2.04-2.4,3.06-5.43,3.06-9.08c0-3.53-0.7-6.36-2.1-8.49     c-1.4-2.13-3.22-3.78-5.47-4.97c-2.25-1.18-4.79-1.98-7.62-2.37c-2.83-0.4-5.64-0.59-8.44-0.59H3.59v64.6h26.46     c2.86,0,5.73-0.3,8.62-0.91c2.89-0.61,5.49-1.61,7.8-3.02c2.32-1.39,4.2-3.23,5.66-5.52c1.46-2.28,2.19-5.12,2.19-8.53     C54.32,57.7,53.99,55.75,53.32,53.92z M17.82,25.18h9.68c1.09,0,2.22,0.11,3.37,0.32c1.16,0.21,2.19,0.56,3.1,1.05     c0.92,0.49,1.66,1.17,2.24,2.05c0.58,0.88,0.87,1.99,0.87,3.33c0,1.28-0.26,2.37-0.78,3.29c-0.52,0.91-1.2,1.64-2.05,2.19     c-0.86,0.55-1.81,0.94-2.88,1.18c-1.06,0.25-2.14,0.37-3.23,0.37H17.82V25.18z M39.22,61.68c-0.58,0.97-1.32,1.77-2.23,2.37     c-0.92,0.61-1.94,1.04-3.06,1.28c-1.13,0.24-2.24,0.36-3.33,0.36H17.82V51h10.77c1.16,0,2.4,0.09,3.74,0.28     c1.34,0.18,2.59,0.52,3.74,1c1.16,0.49,2.11,1.2,2.88,2.15c0.76,0.94,1.14,2.17,1.14,3.69C40.09,59.52,39.8,60.71,39.22,61.68z"></path>
			<path class="st0" d="M106.7,45.98c-1.28-2.85-3.03-5.3-5.25-7.34s-4.84-3.61-7.85-4.7c-3.01-1.09-6.22-1.64-9.62-1.64     c-3.41,0-6.62,0.55-9.63,1.64c-3.01,1.09-5.63,2.66-7.85,4.7c-2.22,2.04-3.97,4.49-5.24,7.34c-1.28,2.86-1.92,6.06-1.92,9.59     c0,3.52,0.64,6.72,1.92,9.58c1.27,2.86,3.02,5.3,5.24,7.34c2.22,2.04,4.84,3.61,7.85,4.7c3.01,1.1,6.22,1.64,9.63,1.64     c3.4,0,6.61-0.54,9.62-1.64c3.01-1.09,5.63-2.66,7.85-4.7c2.22-2.04,3.97-4.48,5.25-7.34c1.27-2.86,1.91-6.06,1.91-9.58     C108.61,52.04,107.97,48.84,106.7,45.98z M92.05,63.69c-1.91,2.07-4.61,3.1-8.07,3.1c-3.47,0-6.16-1.03-8.08-3.1     c-1.92-2.07-2.87-4.78-2.87-8.12c0-3.35,0.95-6.06,2.87-8.13c1.92-2.06,4.61-3.1,8.08-3.1c3.46,0,6.16,1.04,8.07,3.1     c1.92,2.07,2.88,4.78,2.88,8.13C94.93,58.91,93.97,61.62,92.05,63.69z"></path>
			<path class="st0" d="M143.29,32.3c-3.04,0-5.57,0.68-7.57,2.05c-2.01,1.37-3.74,3.42-5.2,6.16h-0.18V33.4h-13.69v44.35h13.69     V59.22c0-2.19,0.12-4.2,0.37-6.02c0.24-1.83,0.78-3.39,1.6-4.7c0.82-1.31,1.99-2.33,3.51-3.06c1.52-0.73,3.59-1.09,6.21-1.09     c1.03,0,2.02,0.08,2.96,0.23c0.94,0.15,1.9,0.38,2.88,0.68v-12.5c-0.67-0.18-1.4-0.3-2.19-0.37     C144.87,32.33,144.08,32.3,143.29,32.3z"></path>
			<path class="st0" d="M186.08,33.39v5.84h-0.18c-0.55-0.79-1.28-1.59-2.19-2.42c-0.91-0.82-2.01-1.56-3.29-2.23     c-1.27-0.67-2.72-1.22-4.33-1.64c-1.61-0.43-3.39-0.64-5.34-0.64c-3.16,0-5.99,0.65-8.48,1.96c-2.5,1.31-4.61,3.03-6.35,5.15     c-1.73,2.14-3.07,4.6-4.01,7.4c-0.94,2.79-1.42,5.65-1.42,8.57c0,3.35,0.52,6.42,1.56,9.22c1.03,2.8,2.51,5.22,4.42,7.25     c1.92,2.04,4.21,3.62,6.89,4.75c2.68,1.12,5.66,1.69,8.94,1.69c2.07,0,4.28-0.45,6.62-1.33c2.34-0.88,4.3-2.38,5.88-4.51h0.19     v4.29c0,3.16-0.99,5.76-2.97,7.8c-1.98,2.03-5.06,3.05-9.26,3.05c-2.8,0-5.37-0.51-7.71-1.55c-2.34-1.03-4.58-2.43-6.71-4.19     l-7.57,11.31c3.22,2.56,6.75,4.27,10.59,5.15c3.83,0.89,7.72,1.33,11.67,1.33c8.64,0,15.07-2.18,19.3-6.53     c4.23-4.34,6.34-10.72,6.34-19.11V33.39H186.08z M185.26,59.44c-0.55,1.31-1.32,2.47-2.33,3.47c-1,1-2.17,1.81-3.51,2.42     c-1.34,0.61-2.77,0.91-4.29,0.91c-1.58,0-3.03-0.3-4.33-0.91c-1.31-0.61-2.47-1.42-3.47-2.42s-1.78-2.16-2.33-3.47     c-0.54-1.3-0.82-2.69-0.82-4.15c0-1.46,0.28-2.84,0.82-4.15c0.55-1.31,1.33-2.46,2.33-3.47c1-1,2.16-1.81,3.47-2.42     c1.3-0.6,2.75-0.91,4.33-0.91c1.52,0,2.95,0.31,4.29,0.91c1.34,0.61,2.51,1.42,3.51,2.42c1.01,1.01,1.78,2.16,2.33,3.47     c0.55,1.31,0.82,2.69,0.82,4.15C186.08,56.75,185.81,58.14,185.26,59.44z"></path>
			<path class="st0" d="M249.27,38.33c-1.19-1.89-2.84-3.36-4.97-4.43c-2.13-1.06-4.93-1.6-8.39-1.6c-1.64,0-3.16,0.21-4.56,0.64     c-1.4,0.43-2.61,0.97-3.65,1.64c-1.03,0.67-1.92,1.43-2.65,2.28c-0.73,0.85-1.25,1.7-1.55,2.55h-0.18V8.76h-13.69v68.98h13.69     V55.66c0-1.46,0.09-2.86,0.27-4.2c0.18-1.34,0.56-2.54,1.14-3.6c0.58-1.06,1.41-1.92,2.51-2.56c1.1-0.64,2.52-0.96,4.29-0.96     c1.76,0,3.12,0.37,4.06,1.09c0.94,0.73,1.64,1.68,2.1,2.83c0.46,1.16,0.73,2.42,0.82,3.79c0.09,1.37,0.14,2.69,0.14,3.97v21.72     h13.69V53.29c0-2.98-0.22-5.75-0.64-8.3C251.26,42.43,250.46,40.21,249.27,38.33z"></path>
			<path class="st0" d="M307.71,45.98c-1.28-2.85-3.03-5.3-5.24-7.34c-2.23-2.04-4.84-3.61-7.85-4.7c-3.01-1.09-6.22-1.64-9.63-1.64     s-6.61,0.55-9.63,1.64c-3.01,1.09-5.62,2.66-7.84,4.7c-2.22,2.04-3.97,4.49-5.25,7.34c-1.28,2.86-1.92,6.06-1.92,9.59     c0,3.52,0.64,6.72,1.92,9.58c1.28,2.86,3.03,5.3,5.25,7.34c2.22,2.04,4.83,3.61,7.84,4.7c3.02,1.1,6.22,1.64,9.63,1.64     c1.05,0,2.09-0.05,3.1-0.16c0.49-2.29,1.88-9.85-0.16-14.09c0,0-3.37-0.79-5.93-0.53c-2.56,0.27-8.01,1.35-11.72-2.08     c-3.7-3.44-2.63-6.54-2.63-6.54s1.15,2.63,5.53,1.48c4.38-1.14,9.69-2.96,12.32,0.26c-0.07-0.22-1.02-3.22,0.41-5.11     c1.48-1.95,8.01-6.59,6.34-10.36c0.21,0.16,3.5,2.84,3.76,7.4c0.27,4.72-2.56,8.05-3.36,9.36c-0.81,1.32-1.39,3.74-1.08,4.18     c0.25,0.37,5.17,5.98,6.65,12.9c1.55-0.85,2.96-1.87,4.25-3.05c2.21-2.04,3.96-4.48,5.24-7.34c1.28-2.86,1.92-6.06,1.92-9.58     C309.63,52.04,308.99,48.84,307.71,45.98z"></path>
			<rect x="317.84" y="8.76" class="st0" width="13.69" height="68.98"></rect>
			<path class="st0" d="M407.77,37.91c-1.19-1.73-2.8-3.1-4.84-4.11c-2.04-1-4.55-1.5-7.53-1.5c-3.29,0-6.06,0.61-8.3,1.82     c-2.25,1.22-4.17,3.26-5.75,6.11c-1.22-2.74-3.03-4.74-5.43-6.02c-2.4-1.28-5.16-1.91-8.26-1.91c-1.64,0-3.16,0.21-4.56,0.64     c-1.4,0.43-2.65,0.97-3.74,1.64c-1.1,0.67-2.04,1.43-2.83,2.28c-0.79,0.85-1.4,1.7-1.82,2.55h-0.18V33.4h-13.14v44.35h13.69     V55.66c0-1.46,0.09-2.86,0.27-4.2c0.18-1.34,0.56-2.54,1.14-3.6c0.58-1.06,1.41-1.92,2.51-2.56c1.1-0.64,2.52-0.96,4.29-0.96     c1.58,0,2.78,0.37,3.61,1.09c0.82,0.73,1.41,1.61,1.78,2.65c0.37,1.03,0.58,2.13,0.64,3.28c0.06,1.16,0.09,2.13,0.09,2.92v23.45     h13.69V54.29c0-1.34,0.14-2.61,0.41-3.83c0.27-1.22,0.73-2.28,1.37-3.19c0.64-0.91,1.49-1.63,2.55-2.15     c1.06-0.52,2.39-0.77,3.97-0.77c2.25,0,3.82,0.75,4.7,2.23c0.88,1.49,1.32,3.27,1.32,5.34v25.82h13.69V51.55     c0-2.68-0.26-5.19-0.78-7.53C409.8,41.69,408.95,39.65,407.77,37.91z"></path>
		</g>
	</g>
	<g>
		<path class="st0" d="M89.92,169.46v-60.2h27.86c4.18,0,7.71,0.7,10.58,2.11c2.87,1.41,5.04,3.28,6.54,5.63    c1.49,2.35,2.24,5.05,2.24,8.08c0,2.64-0.49,4.87-1.46,6.71c-0.98,1.84-2.31,3.28-4,4.34c-1.69,1.06-3.63,1.82-5.8,2.28v0.6    c2.64,0.34,4.9,1.08,6.79,2.19c1.89,1.12,3.35,2.68,4.39,4.69c1.03,2.01,1.55,4.47,1.55,7.4c0,3.1-0.77,5.88-2.32,8.34    c-1.55,2.47-3.8,4.39-6.75,5.76c-2.95,1.38-6.49,2.06-10.62,2.06H89.92z M125.44,126.63c0-2.52-0.82-4.43-2.45-5.72    s-3.88-1.94-6.75-1.94h-14.71v15.22h14.71c2.87,0,5.12-0.65,6.75-1.94S125.44,129.1,125.44,126.63z M101.53,159.74h15.82    c3.04,0,5.39-0.66,7.05-1.98c1.66-1.32,2.49-3.3,2.49-5.93c0-2.75-0.9-4.8-2.71-6.15c-1.81-1.35-4.2-2.02-7.18-2.02h-15.48V159.74    z"></path>
		<path class="st0" d="M173.08,169.46l-0.86-5.25c-1.43,1.84-3.05,3.25-4.86,4.26c-1.81,1-4.23,1.5-7.27,1.5    c-2.87,0-5.38-0.5-7.52-1.5c-2.15-1-3.83-2.41-5.03-4.21s-1.81-3.94-1.81-6.41c0-3.61,1.3-6.61,3.91-8.99    c2.61-2.38,6.55-3.88,11.83-4.52l10.75-1.12v-3.1c0-1.26-0.55-2.39-1.63-3.4c-1.09-1-2.81-1.5-5.16-1.5c-2.06,0-3.86,0.5-5.38,1.5    c-1.52,1-2.54,2.51-3.05,4.51l-9.55-3.44c1.26-3.84,3.5-6.79,6.71-8.86c3.21-2.06,7.14-3.1,11.78-3.1c5.68,0,9.98,1.43,12.9,4.3    c2.92,2.87,4.39,6.59,4.39,11.18v28.12H173.08z M172.22,150.89l-9.29,1.03c-1.95,0.29-3.4,0.88-4.34,1.76    c-0.95,0.89-1.42,1.94-1.42,3.14c0,1.26,0.5,2.31,1.5,3.14c1,0.83,2.37,1.25,4.08,1.25c2.01,0,3.71-0.36,5.12-1.08    c1.4-0.72,2.48-1.81,3.22-3.27s1.12-3.25,1.12-5.38V150.89z"></path>
		<path class="st0" d="M224.51,132.91l-1.38,0.26v-25.63h11.01v61.92h-9.98l-0.69-5.33c-1.32,1.66-3.12,3.07-5.42,4.21    s-4.9,1.72-7.83,1.72c-3.78,0-7.11-0.92-9.98-2.75c-2.87-1.83-5.1-4.41-6.71-7.74c-1.61-3.33-2.41-7.19-2.41-11.61    c0-4.47,0.8-8.37,2.41-11.7c1.6-3.32,3.84-5.89,6.71-7.7c2.87-1.81,6.19-2.71,9.98-2.71c3.27,0,6.13,0.69,8.6,2.06    C221.3,129.3,223.19,130.96,224.51,132.91z M202.93,147.96c0,3.56,0.93,6.45,2.79,8.69c1.86,2.24,4.29,3.35,7.27,3.35    c1.83,0,3.51-0.47,5.03-1.42c1.52-0.95,2.75-2.31,3.7-4.08c0.95-1.78,1.42-3.96,1.42-6.54s-0.47-4.76-1.42-6.54    c-0.95-1.78-2.18-3.14-3.7-4.08c-1.52-0.95-3.2-1.42-5.03-1.42c-2.98,0-5.41,1.12-7.27,3.35    C203.86,141.51,202.93,144.41,202.93,147.96z"></path>
		<path class="st0" d="M244.72,107.54h11.01v23.13c1.32-1.43,2.97-2.59,4.95-3.48c1.98-0.89,4.2-1.33,6.67-1.33    c3.27,0,6.12,0.7,8.56,2.11c2.44,1.41,4.31,3.48,5.63,6.24c1.32,2.75,1.98,6.14,1.98,10.15v25.11H271.9v-23.65    c0-3.32-0.66-5.83-1.98-7.52c-1.32-1.69-3.3-2.54-5.93-2.54c-2.7,0-4.74,0.92-6.15,2.75c-1.41,1.84-2.11,4.42-2.11,7.74v23.22    h-11.01V107.54z"></path>
		<path class="st0" d="M331.32,169.46h-10.15l-0.77-4.47c-1.38,1.61-3.05,2.85-5.03,3.74c-1.98,0.89-4.08,1.33-6.32,1.33    c-3.33,0-6.19-0.72-8.6-2.15c-2.41-1.43-4.26-3.51-5.55-6.24c-1.29-2.72-1.93-6.09-1.93-10.1v-25.11h11.01v23.65    c0,3.33,0.64,5.83,1.93,7.52c1.29,1.69,3.31,2.54,6.06,2.54c2.64,0,4.67-0.86,6.11-2.58c1.43-1.72,2.15-4.21,2.15-7.48v-23.65    h11.09V169.46z"></path>
		<path class="st0" d="M349.55,155.44c0.29,1.43,0.86,2.52,1.72,3.27c0.86,0.75,1.82,1.28,2.88,1.59c1.06,0.32,2.14,0.47,3.23,0.47    c2.01,0,3.57-0.39,4.69-1.16c1.12-0.77,1.68-1.73,1.68-2.88c0-1.09-0.39-1.92-1.16-2.49c-0.77-0.57-1.79-1.03-3.05-1.38    c-1.26-0.34-2.55-0.72-3.87-1.12c-1.55-0.34-3.21-0.76-4.99-1.25c-1.78-0.49-3.44-1.19-4.99-2.11c-1.55-0.92-2.83-2.11-3.83-3.57    c-1-1.46-1.5-3.31-1.5-5.55c0-2.69,0.73-5.04,2.19-7.05c1.46-2.01,3.5-3.57,6.11-4.69c2.61-1.12,5.63-1.68,9.07-1.68    c4.07,0,7.51,0.86,10.32,2.58c2.81,1.72,4.84,4.19,6.11,7.4l-9.63,2.75c-0.34-0.8-0.86-1.46-1.55-1.98    c-0.69-0.52-1.52-0.89-2.49-1.12c-0.98-0.23-1.92-0.34-2.84-0.34c-1.66,0-3.04,0.33-4.13,0.99c-1.09,0.66-1.63,1.59-1.63,2.79    c0,0.63,0.2,1.16,0.6,1.59c0.4,0.43,0.96,0.8,1.68,1.12c0.72,0.32,1.55,0.57,2.49,0.77c0.95,0.2,1.96,0.47,3.05,0.82    c1.83,0.46,3.66,0.98,5.46,1.55c1.81,0.57,3.47,1.32,4.99,2.24c1.52,0.92,2.74,2.15,3.66,3.7c0.92,1.55,1.43,3.5,1.55,5.85    c0,2.52-0.72,4.82-2.15,6.88c-1.43,2.06-3.5,3.68-6.19,4.86c-2.7,1.17-5.96,1.76-9.8,1.76c-4.47,0-8.27-0.95-11.39-2.84    c-3.13-1.89-5.17-4.87-6.15-8.94L349.55,155.44z"></path>
	</g>
</g>
</svg>
