<?xml version="1.0" encoding="UTF-8"?>
<!-- Generator: Adobe Illustrator 28.0.0, SVG Export Plug-In . SVG Version: 6.00 Build 0)  -->
<svg xmlns="http://www.w3.org/2000/svg" xmlns:xlink="http://www.w3.org/1999/xlink" version="1.1" id="Lager_1" x="0px" y="0px" viewBox="0 0 798.4 509.3" style="enable-background:new 0 0 798.4 509.3;" xml:space="preserve">
<style type="text/css">
	.st0{fill:none;stroke:#1B2C4C;stroke-miterlimit:10;}
</style>
<g>
	<polyline class="st0" points="364.7,172.3 355.3,172.3 352.8,172.3 324,172.3 321.2,172.3 297.9,172.3 268,172.3 238.2,172.3    206.1,172.3 175.2,172.3 144.4,172.3 113.7,172.3 82.6,172.3 53.4,172.3 53.4,135.3 82.6,135.3 113.7,135.3 144.4,135.3    175.2,135.3 206.1,135.3 238.2,135.3 268,135.3 297.9,135.3 324,135.3  "></polyline>
	<polyline class="st0" points="444,172.3 452.2,172.3 454.7,172.3 481.5,172.3 484.8,172.3 510.4,172.3 539.8,172.3 569.5,172.3    599.6,172.3 630.5,172.3 660.6,172.3 690.3,172.3 720.5,172.3 751.8,172.3 751.8,135.3 720.5,135.3 690.3,135.3 660.6,135.3    630.5,135.3 599.6,135.3 569.5,135.3 539.8,135.3 510.4,135.3  "></polyline>
	<polyline class="st0" points="481.5,117.8 510.4,117.8 510.4,135.3 510.4,172.3 484.8,172.3 481.5,172.3 454.7,172.3 452.2,172.3    444,172.3  "></polyline>
	<polyline class="st0" points="324,117.8 297.9,117.8 297.9,135.3 297.9,172.3 321.2,172.3 324,172.3 352.8,172.3 355.3,172.3    364.7,172.3  "></polyline>
	<path class="st0" d="M444,172.3h8.3h2.5h26.9v-25.2v-11.8v-17.5V95.1v0h-15.9 M364.7,172.3h-9.4h-2.4H324v-25.2v-11.8v-17.5V95.1v0   h19.7 M355.3,95.1h-2.4 M386.5,95.1h-2.4 M454.7,95.1h-2.5h-27.7h-2.5 M384.1,135.3v-31h-28.8v31"></path>
	<polyline class="st0" points="454.7,95.1 452.2,95.1 424.6,95.1 422.1,95.1  "></polyline>
	<polyline class="st0" points="386.5,95.1 384.1,95.1 355.3,95.1 352.8,95.1  "></polyline>
	<polyline class="st0" points="324,95.1 315.7,95.1 320.9,84.1 370.4,84.1  "></polyline>
	<polyline class="st0" points="438.4,84.1 486.2,84.1 491.2,95.1 481.5,95.1  "></polyline>
	<line class="st0" x1="82.6" y1="172.3" x2="82.6" y2="131.1"></line>
	<line class="st0" x1="113.7" y1="172.3" x2="113.7" y2="131.1"></line>
	<polyline class="st0" points="144.4,133.2 144.4,135.3 144.4,172.3  "></polyline>
	<polyline class="st0" points="175.2,133.2 175.2,135.3 175.2,172.3  "></polyline>
	<polyline class="st0" points="206.1,133.2 206.1,135.3 206.1,172.3  "></polyline>
	<polyline class="st0" points="238.2,133.2 238.2,135.3 238.2,172.3  "></polyline>
	<polyline class="st0" points="268,133.2 268,135.3 268,172.3  "></polyline>
	<polyline class="st0" points="539.8,133.2 539.8,135.3 539.8,172.3  "></polyline>
	<polyline class="st0" points="569.5,133.2 569.5,135.3 569.5,172.3  "></polyline>
	<polyline class="st0" points="599.6,133.2 599.6,135.3 599.6,172.3  "></polyline>
	<polyline class="st0" points="630.5,133.2 630.5,135.3 630.5,172.3  "></polyline>
	<polyline class="st0" points="660.6,133.2 660.6,135.3 660.6,172.3  "></polyline>
	<polyline class="st0" points="690.3,133.2 690.3,135.3 690.3,172.3  "></polyline>
	<polyline class="st0" points="720.5,133.2 720.5,135.3 720.5,172.3  "></polyline>
	<polyline class="st0" points="297.9,114.7 297.9,117.8 297.9,135.3 297.9,172.3  "></polyline>
	<polyline class="st0" points="510.4,114.7 510.4,117.8 510.4,135.3 510.4,172.3  "></polyline>
	<polygon class="st0" points="465.6,88.5 404.1,78.5 343.6,88.5 343.6,95.1 404.6,83.1 465.6,95.1  "></polygon>
	<rect x="352.8" y="95.1" class="st0" width="2.4" height="77.2"></rect>
	<rect x="452.2" y="95.1" class="st0" width="2.4" height="77.2"></rect>
	<polyline class="st0" points="422.1,147.1 422.1,95.1 422.1,95.1 424.6,95.1 424.6,95.1 424.6,102.3 424.6,104.3 424.6,147.1    424.6,153.8  "></polyline>
	<polyline class="st0" points="384.1,153.8 384.1,147.1 384.1,135.3 384.1,104.3 384.1,102.3 384.1,95.1 384.1,95.1 386.5,95.1    386.5,95.1 386.5,147.1  "></polyline>
	<rect x="355.3" y="102.3" class="st0" width="28.8" height="2.1"></rect>
	<rect x="424.6" y="102.3" class="st0" width="27.7" height="2.1"></rect>
	<line class="st0" x1="384.1" y1="147.1" x2="355.3" y2="147.1"></line>
	<polyline class="st0" points="352.8,147.1 324,147.1 321.2,147.1 321.2,172.3 324,172.3 352.8,172.3 355.3,172.3 364.7,172.3  "></polyline>
	<line class="st0" x1="452.2" y1="147.1" x2="424.6" y2="147.1"></line>
	<polyline class="st0" points="454.7,147.1 481.5,147.1 484.8,147.1 484.8,172.3 481.5,172.3 454.7,172.3 452.2,172.3 444,172.3     "></polyline>
	<polygon class="st0" points="57,201.7 41.2,201.7 45.7,177.4 57,177.4  "></polygon>
	<polygon class="st0" points="58.7,177.4 57,177.4 57,201.4 64.1,199.1  "></polygon>
	<rect x="35.4" y="201.7" class="st0" width="25.1" height="6.5"></rect>
	<polygon class="st0" points="70.5,203.5 61.4,207.9 60.6,201.7 69.5,200.8  "></polygon>
	<polyline class="st0" points="69.7,200.7 64.1,199.1 57.7,201.4 69,200.9  "></polyline>
	<polygon class="st0" points="101,198 87.5,198 91.4,177.4 101,177.4  "></polygon>
	<polygon class="st0" points="102.4,177.4 101,177.4 101,197.8 107,195.8  "></polygon>
	<rect x="82.6" y="198" class="st0" width="21.4" height="5.5"></rect>
	<polygon class="st0" points="112.4,199.6 104.7,203.3 104,198 111.6,197.3  "></polygon>
	<polyline class="st0" points="111.8,197.2 107,195.8 101.6,197.8 111.2,197.3  "></polyline>
	<polygon class="st0" points="135.5,192 126,192 128.7,177.4 135.5,177.4  "></polygon>
	<polygon class="st0" points="136.5,177.4 135.5,177.4 135.5,191.8 139.8,190.4  "></polygon>
	<rect x="122.6" y="192" class="st0" width="15.1" height="3.9"></rect>
	<polygon class="st0" points="143.6,193.1 138.2,195.7 137.6,192 143,191.4  "></polygon>
	<polyline class="st0" points="143.1,191.4 139.8,190.4 135.9,191.8 142.7,191.5  "></polyline>
	<polygon class="st0" points="184.1,201.7 168.3,201.7 172.8,177.4 184.1,177.4  "></polygon>
	<polygon class="st0" points="185.8,177.4 184.1,177.4 184.1,201.4 191.1,199.1  "></polygon>
	<rect x="162.5" y="201.7" class="st0" width="25.1" height="6.5"></rect>
	<polygon class="st0" points="197.6,203.5 188.5,207.9 187.6,201.7 196.6,200.8  "></polygon>
	<polyline class="st0" points="196.8,200.7 191.1,199.1 184.8,201.4 196.1,200.9  "></polyline>
	<g>
		<polygon class="st0" points="497.3,201.7 513.1,201.7 508.6,177.4 497.3,177.4   "></polygon>
		<line class="st0" x1="494.1" y1="200.4" x2="494.1" y2="200.4"></line>
		<polyline class="st0" points="497.3,201.4 497.3,177.4 495.6,177.4 492.5,190   "></polyline>
		<polyline class="st0" points="496.7,208.1 518.9,208.1 518.9,201.7 513.1,201.7 497.3,201.7 494.3,201.7   "></polyline>
	</g>
	<g>
		<polygon class="st0" points="626.7,201.7 642.5,201.7 638,177.4 626.7,177.4   "></polygon>
		<polygon class="st0" points="625,177.4 626.7,177.4 626.7,201.4 619.6,199.1   "></polygon>
		
			<rect x="623.1" y="201.7" transform="matrix(-1 -4.495128e-11 4.495128e-11 -1 1271.4111 409.8179)" class="st0" width="25.1" height="6.5"></rect>
		<polygon class="st0" points="613.2,203.5 622.3,207.9 623.1,201.7 614.2,200.8   "></polygon>
		<polyline class="st0" points="614,200.7 619.6,199.1 626,201.4 614.7,200.9   "></polyline>
	</g>
	<g>
		<polygon class="st0" points="741.4,201.7 757.2,201.7 752.7,177.4 741.4,177.4   "></polygon>
		<polygon class="st0" points="739.7,177.4 741.4,177.4 741.4,201.4 734.3,199.1   "></polygon>
		
			<rect x="737.9" y="201.7" transform="matrix(-1 -4.495128e-11 4.495128e-11 -1 1500.835 409.8179)" class="st0" width="25.1" height="6.5"></rect>
		<polygon class="st0" points="727.9,203.5 737,207.9 737.9,201.7 728.9,200.8   "></polygon>
		<polyline class="st0" points="728.7,200.7 734.3,199.1 740.7,201.4 729.4,200.9   "></polyline>
	</g>
	<g>
		<polygon class="st0" points="705,197.9 718.3,197.9 714.5,177.4 705,177.4   "></polygon>
		<polygon class="st0" points="703.6,177.4 705,177.4 705,197.6 699,195.7   "></polygon>
		
			<rect x="702" y="197.9" transform="matrix(-1 -4.482782e-11 4.482782e-11 -1 1425.1991 401.1639)" class="st0" width="21.2" height="5.5"></rect>
		<polygon class="st0" points="693.6,199.4 701.3,203.1 702,197.9 694.5,197.1   "></polygon>
		<polyline class="st0" points="694.3,197.1 699,195.7 704.4,197.6 694.9,197.2   "></polyline>
	</g>
	<g>
		<polygon class="st0" points="672.8,194.5 684,194.5 680.8,177.4 672.8,177.4   "></polygon>
		<polygon class="st0" points="671.6,177.4 672.8,177.4 672.8,194.4 667.8,192.7   "></polygon>
		
			<rect x="670.3" y="194.5" transform="matrix(-1 -4.508583e-11 4.508583e-11 -1 1358.423 393.6469)" class="st0" width="17.8" height="4.6"></rect>
		<polygon class="st0" points="663.3,195.8 669.7,198.9 670.3,194.5 664,193.9   "></polygon>
		<polyline class="st0" points="663.9,193.9 667.8,192.7 672.3,194.4 664.4,194   "></polyline>
	</g>
	<polygon class="st0" points="311.4,203.9 292.9,203.9 296.9,177.4 307.4,177.4  "></polygon>
	<rect x="289.8" y="203.9" class="st0" width="23.7" height="5.8"></rect>
	<rect x="289.8" y="203.9" class="st0" width="23.7" height="5.8"></rect>
	<polygon class="st0" points="494.6,203.9 476.1,203.9 480.1,177.4 490.6,177.4  "></polygon>
	<polyline class="st0" points="483.3,209.7 496.7,209.7 496.7,208.1 496.7,203.9 494.6,203.9 493.8,203.9 493.5,203.9 484.6,203.9    477.1,203.9 476.1,203.9  "></polyline>
	<polyline class="st0" points="752.7,177.4 741.4,177.4 739.7,177.4 714.5,177.4 705,177.4 703.6,177.4 680.8,177.4 672.8,177.4    671.6,177.4 638,177.4 626.7,177.4 625,177.4 508.6,177.4 497.3,177.4 495.6,177.4 490.6,177.4 480.1,177.4 449.3,177.4  "></polyline>
	<polyline class="st0" points="359.3,177.4 307.4,177.4 296.9,177.4 185.8,177.4 184.1,177.4 172.8,177.4 136.5,177.4 135.5,177.4    128.7,177.4 102.4,177.4 101,177.4 91.4,177.4 58.7,177.4 57,177.4 45.7,177.4  "></polyline>
	<polygon class="st0" points="410.1,116.1 398.6,116.1 398.6,101.7 404.3,99.7 410.1,101.7  "></polygon>
	<rect x="395.5" y="125.4" class="st0" width="16.5" height="43.3"></rect>
	<rect x="360.8" y="125.4" class="st0" width="8.8" height="21.6"></rect>
	<rect x="370" y="125.4" class="st0" width="8.8" height="21.6"></rect>
	<rect x="429.4" y="125.4" class="st0" width="8.8" height="21.6"></rect>
	<rect x="438.5" y="125.4" class="st0" width="8.8" height="21.6"></rect>
	<g>
		<line class="st0" x1="113.7" y1="411.5" x2="384.1" y2="153.8"></line>
		<line class="st0" x1="384.1" y1="173.7" x2="274.2" y2="436.6"></line>
		<line class="st0" x1="294.4" y1="239.3" x2="294.6" y2="387.8"></line>
		<line class="st0" x1="235.7" y1="294.6" x2="235.9" y2="443.2"></line>
		<polyline class="st0" points="321.3,324.3 321.1,213.8 321.1,213.3   "></polyline>
		<polyline class="st0" points="336.7,198.9 336.7,198.9 336.9,287.1 336.9,287.1   "></polyline>
		<line class="st0" x1="346.7" y1="263.6" x2="346.6" y2="189.5"></line>
		<line class="st0" x1="354.5" y1="245" x2="354.4" y2="182.1"></line>
		<polyline class="st0" points="360.8,176 360.9,229.9 360.9,229.9   "></polyline>
		<polyline class="st0" points="365.4,171.6 365.5,218.9 365.5,219   "></polyline>
		<polyline class="st0" points="369.2,168 369.2,168 369.3,209.9 369.3,209.9   "></polyline>
		<line class="st0" x1="372.5" y1="202.1" x2="372.5" y2="164.8"></line>
		<polyline class="st0" points="374.8,162.7 374.8,162.7 374.8,196.7   "></polyline>
		<polyline class="st0" points="376.5,161 376.5,161 376.5,192.6   "></polyline>
		<polyline class="st0" points="378.3,159.3 378.4,188.2 378.4,188.2   "></polyline>
		<line class="st0" x1="380.6" y1="182.8" x2="380.6" y2="157.1"></line>
		<line class="st0" x1="382.4" y1="178.6" x2="382.4" y2="155.4"></line>
		<line class="st0" x1="384.1" y1="153.8" x2="384.1" y2="173.7"></line>
	</g>
	<g>
		<line class="st0" x1="695" y1="411.5" x2="424.6" y2="153.8"></line>
		<line class="st0" x1="424.6" y1="173.7" x2="534.5" y2="436.6"></line>
		<line class="st0" x1="514.3" y1="239.3" x2="514" y2="387.8"></line>
		<line class="st0" x1="573" y1="294.6" x2="572.7" y2="443.2"></line>
		<polyline class="st0" points="487.5,213.3 487.5,213.8 487.4,324.3   "></polyline>
		<polyline class="st0" points="471.7,287.1 471.7,287.1 471.9,198.9 471.9,198.9   "></polyline>
		<line class="st0" x1="462" y1="189.5" x2="461.9" y2="263.6"></line>
		<line class="st0" x1="454.2" y1="182.1" x2="454.1" y2="245"></line>
		<polyline class="st0" points="447.7,229.9 447.7,229.9 447.8,176   "></polyline>
		<polyline class="st0" points="443.2,219 443.2,218.9 443.2,171.6   "></polyline>
		<polyline class="st0" points="439.4,209.9 439.4,209.9 439.4,168 439.4,168   "></polyline>
		<line class="st0" x1="436.2" y1="164.8" x2="436.1" y2="202.1"></line>
		<polyline class="st0" points="433.8,196.7 433.9,162.7 433.9,162.7   "></polyline>
		<polyline class="st0" points="432.1,192.6 432.2,161 432.2,161   "></polyline>
		<polyline class="st0" points="430.3,188.2 430.3,188.2 430.3,159.3   "></polyline>
		<line class="st0" x1="428.1" y1="157.1" x2="428" y2="182.8"></line>
		<line class="st0" x1="426.3" y1="155.4" x2="426.2" y2="178.6"></line>
		<line class="st0" x1="424.6" y1="153.8" x2="424.6" y2="173.7"></line>
	</g>
	<g>
		<polyline class="st0" points="355.3,114.1 356.8,112.5 359.9,112.8   "></polyline>
		<polyline class="st0" points="363.8,108.4 363.4,106.1 364.7,104.3   "></polyline>
		<path class="st0" d="M359.6,112.7c-1.3-1.1-1.5-3.1-0.4-4.4s3.1-1.5,4.4-0.4"></path>
	</g>
	<g>
		<polyline class="st0" points="384.1,114.1 382.6,112.5 379.5,112.8   "></polyline>
		<polyline class="st0" points="375.6,108.4 376,106.1 374.7,104.3   "></polyline>
		<path class="st0" d="M379.8,112.7c1.3-1.1,1.5-3.1,0.4-4.4c-1.1-1.3-3.1-1.5-4.4-0.4"></path>
	</g>
	<g>
		<polyline class="st0" points="424.6,114.1 426.1,112.5 429.2,112.8   "></polyline>
		<polyline class="st0" points="433,108.4 432.6,106.1 433.9,104.3   "></polyline>
		<path class="st0" d="M428.8,112.7c-1.3-1.1-1.5-3.1-0.4-4.4s3.1-1.5,4.4-0.4"></path>
	</g>
	<g>
		<polyline class="st0" points="452.3,114.1 450.8,112.5 447.7,112.8   "></polyline>
		<polyline class="st0" points="443.8,108.4 444.2,106.1 442.9,104.3   "></polyline>
		<path class="st0" d="M448,112.7c1.3-1.1,1.5-3.1,0.4-4.4c-1.1-1.3-3.1-1.5-4.4-0.4"></path>
	</g>
	<path class="st0" d="M363.2,113.1"></path>
	<line class="st0" x1="401.2" y1="79" x2="401.2" y2="66.1"></line>
</g>
</svg>
