<?xml version="1.0" encoding="UTF-8"?>
<!-- Generator: Adobe Illustrator 28.0.0, SVG Export Plug-In . SVG Version: 6.00 Build 0)  -->
<svg xmlns="http://www.w3.org/2000/svg" xmlns:xlink="http://www.w3.org/1999/xlink" version="1.1" id="Lager_1" x="0px" y="0px" viewBox="0 0 798.4 509.3" style="enable-background:new 0 0 798.4 509.3;" xml:space="preserve">
<style type="text/css">
	.st0{fill:none;stroke:#90B9CD;stroke-miterlimit:10;}
</style>
<g>
	<line class="st0" x1="701" y1="401.2" x2="105.4" y2="401.2"></line>
	<polyline class="st0" points="776.6,401.2 776.6,498.6 440.2,498.6 358.2,498.6 21.8,498.6 21.8,401.2  "></polyline>
	<polygon class="st0" points="736.6,341 451.4,341 399.3,311.9 348.6,341 61.8,341 21.8,401.2 63.6,361.2 105.4,401.2 701,401.2    738.6,361.9 776.6,401.2  "></polygon>
	<circle class="st0" cx="399.2" cy="376.8" r="16.4"></circle>
	<circle class="st0" cx="399.2" cy="376.8" r="12.4"></circle>
	<path class="st0" d="M197.7,424.3L197.7,424.3c6.7,0,12.1,5.4,12.1,12.1V478h-24.3v-41.5C185.6,429.8,191,424.3,197.7,424.3z"></path>
	<line class="st0" x1="185.6" y1="470.6" x2="209.9" y2="470.6"></line>
	<line class="st0" x1="185.6" y1="460.5" x2="209.9" y2="460.5"></line>
	<line class="st0" x1="185.6" y1="449.9" x2="209.9" y2="449.9"></line>
	<line class="st0" x1="185.6" y1="439.3" x2="209.9" y2="439.3"></line>
	<line class="st0" x1="194.5" y1="424.3" x2="194.5" y2="470.6"></line>
	<g>
		<g>
			<path class="st0" d="M260.7,424.3L260.7,424.3c6.7,0,12.1,5.4,12.1,12.1V478h-24.3v-41.5C248.6,429.8,254,424.3,260.7,424.3z"></path>
			<line class="st0" x1="248.6" y1="460.5" x2="272.9" y2="460.5"></line>
			<line class="st0" x1="248.6" y1="449.9" x2="272.9" y2="449.9"></line>
			<line class="st0" x1="248.6" y1="439.3" x2="272.9" y2="439.3"></line>
			<line class="st0" x1="257.5" y1="424.3" x2="257.5" y2="470.6"></line>
			<line class="st0" x1="264" y1="424.3" x2="264" y2="470.6"></line>
		</g>
		<line class="st0" x1="248.2" y1="470.6" x2="273.2" y2="470.6"></line>
	</g>
	<g>
		<g>
			<path class="st0" d="M134.9,424.3L134.9,424.3c6.7,0,12.1,5.4,12.1,12.1V478h-24.3v-41.5C122.8,429.8,128.2,424.3,134.9,424.3z"></path>
			<line class="st0" x1="122.8" y1="460.5" x2="147.1" y2="460.5"></line>
			<line class="st0" x1="122.8" y1="449.9" x2="147.1" y2="449.9"></line>
			<line class="st0" x1="122.8" y1="439.3" x2="147.1" y2="439.3"></line>
			<line class="st0" x1="131.7" y1="424.3" x2="131.7" y2="470.6"></line>
			<line class="st0" x1="138.2" y1="424.3" x2="138.2" y2="470.6"></line>
		</g>
		<line class="st0" x1="122.4" y1="470.6" x2="147.4" y2="470.6"></line>
	</g>
	<g>
		<g>
			<path class="st0" d="M63.8,424.3L63.8,424.3c6.7,0,12.1,5.4,12.1,12.1V478H51.6v-41.5C51.6,429.8,57.1,424.3,63.8,424.3z"></path>
			<line class="st0" x1="51.6" y1="460.5" x2="75.9" y2="460.5"></line>
			<line class="st0" x1="51.6" y1="449.9" x2="75.9" y2="449.9"></line>
			<line class="st0" x1="51.6" y1="439.3" x2="75.9" y2="439.3"></line>
			<line class="st0" x1="60.5" y1="424.3" x2="60.5" y2="470.6"></line>
			<line class="st0" x1="67" y1="424.3" x2="67" y2="470.6"></line>
		</g>
		<line class="st0" x1="51.3" y1="470.6" x2="76.3" y2="470.6"></line>
	</g>
	<g>
		<g>
			<path class="st0" d="M322.3,424.3L322.3,424.3c6.7,0,12.1,5.4,12.1,12.1V478h-24.3v-41.5C310.1,429.8,315.6,424.3,322.3,424.3z"></path>
			<line class="st0" x1="310.1" y1="460.5" x2="334.4" y2="460.5"></line>
			<line class="st0" x1="310.1" y1="449.9" x2="334.4" y2="449.9"></line>
			<line class="st0" x1="310.1" y1="439.3" x2="334.4" y2="439.3"></line>
			<line class="st0" x1="319" y1="424.3" x2="319" y2="470.6"></line>
			<line class="st0" x1="325.5" y1="424.3" x2="325.5" y2="470.6"></line>
		</g>
		<line class="st0" x1="309.7" y1="470.6" x2="334.8" y2="470.6"></line>
	</g>
	<g>
		<g>
			<path class="st0" d="M476.4,424.3L476.4,424.3c6.7,0,12.1,5.4,12.1,12.1V478h-24.3v-41.5C464.2,429.8,469.7,424.3,476.4,424.3z"></path>
			<line class="st0" x1="464.2" y1="460.5" x2="488.5" y2="460.5"></line>
			<line class="st0" x1="464.2" y1="449.9" x2="488.5" y2="449.9"></line>
			<line class="st0" x1="464.2" y1="439.3" x2="488.5" y2="439.3"></line>
			<line class="st0" x1="473.1" y1="424.3" x2="473.1" y2="470.6"></line>
			<line class="st0" x1="479.6" y1="424.3" x2="479.6" y2="470.6"></line>
		</g>
		<line class="st0" x1="463.9" y1="470.6" x2="488.9" y2="470.6"></line>
	</g>
	<g>
		<g>
			<path class="st0" d="M538.9,424.3L538.9,424.3c6.7,0,12.1,5.4,12.1,12.1V478h-24.3v-41.5C526.7,429.8,532.2,424.3,538.9,424.3z"></path>
			<line class="st0" x1="526.7" y1="460.5" x2="551" y2="460.5"></line>
			<line class="st0" x1="526.7" y1="449.9" x2="551" y2="449.9"></line>
			<line class="st0" x1="526.7" y1="439.3" x2="551" y2="439.3"></line>
			<line class="st0" x1="535.6" y1="424.3" x2="535.6" y2="470.6"></line>
			<line class="st0" x1="542.1" y1="424.3" x2="542.1" y2="470.6"></line>
		</g>
		<line class="st0" x1="526.4" y1="470.6" x2="551.4" y2="470.6"></line>
	</g>
	<g>
		<g>
			<path class="st0" d="M601.4,424.3L601.4,424.3c6.7,0,12.1,5.4,12.1,12.1V478h-24.3v-41.5C589.2,429.8,594.7,424.3,601.4,424.3z"></path>
			<line class="st0" x1="589.2" y1="460.5" x2="613.5" y2="460.5"></line>
			<line class="st0" x1="589.2" y1="449.9" x2="613.5" y2="449.9"></line>
			<line class="st0" x1="589.2" y1="439.3" x2="613.5" y2="439.3"></line>
			<line class="st0" x1="598.1" y1="424.3" x2="598.1" y2="470.6"></line>
			<line class="st0" x1="604.6" y1="424.3" x2="604.6" y2="470.6"></line>
		</g>
		<line class="st0" x1="588.9" y1="470.6" x2="613.9" y2="470.6"></line>
	</g>
	<g>
		<g>
			<path class="st0" d="M665.4,424.3L665.4,424.3c6.7,0,12.1,5.4,12.1,12.1V478h-24.3v-41.5C653.2,429.8,658.7,424.3,665.4,424.3z"></path>
			<line class="st0" x1="653.2" y1="460.5" x2="677.5" y2="460.5"></line>
			<line class="st0" x1="653.2" y1="449.9" x2="677.5" y2="449.9"></line>
			<line class="st0" x1="653.2" y1="439.3" x2="677.5" y2="439.3"></line>
			<line class="st0" x1="662.1" y1="424.3" x2="662.1" y2="470.6"></line>
			<line class="st0" x1="668.6" y1="424.3" x2="668.6" y2="470.6"></line>
		</g>
		<line class="st0" x1="652.9" y1="470.6" x2="677.9" y2="470.6"></line>
	</g>
	<g>
		<g>
			<path class="st0" d="M737.7,424.3L737.7,424.3c6.7,0,12.1,5.4,12.1,12.1V478h-24.3v-41.5C725.5,429.8,731,424.3,737.7,424.3z"></path>
			<line class="st0" x1="725.5" y1="460.5" x2="749.8" y2="460.5"></line>
			<line class="st0" x1="725.5" y1="449.9" x2="749.8" y2="449.9"></line>
			<line class="st0" x1="725.5" y1="439.3" x2="749.8" y2="439.3"></line>
			<line class="st0" x1="734.4" y1="424.3" x2="734.4" y2="470.6"></line>
			<line class="st0" x1="740.9" y1="424.3" x2="740.9" y2="470.6"></line>
		</g>
		<line class="st0" x1="725.1" y1="470.6" x2="750.2" y2="470.6"></line>
	</g>
	<line class="st0" x1="201" y1="424.3" x2="201" y2="470.6"></line>
	<path class="st0" d="M37.1,484.3v-83.1c0,0-0.4-6.2,2.1-6.2c2.5,0,2.2,4.8,2.2,4.8h3.5h0.5v-10.2c0,0,0.5-1.4,2.1-1.4   c1.6,0,1.7,1.4,1.7,1.4v3.1h4.4c0-0.5,0-0.9,0-1.4c0-1,0-2.1,0-3.1c0-1.1,0-2.2,0-3.3c0-0.4,0-0.9,0-1.3c0-0.4,0-0.8,0.1-1.2   c0.1-0.4,0.4-0.7,0.7-0.9c0.3-0.2,0.7-0.3,1.1-0.3c2.4,0,1.9,3.4,1.9,4.9h4.1h0.3v-10.4c0,0,0.1-1.5,2-1.5s1.9,1.6,1.9,1.6v10   c0,0,4.2,0,4.2,0c-0.1,0,0-2.4,0-2.6c0-0.7-0.1-1.7,0.7-2.1c1.3-0.6,2.7,0.3,2.8,1.7c0.1,1.3-0.1,2.8-0.1,4.1c0,1.5,0,3,0,4.5   c0,0.4,0,0.7,0,1.1h4h0.4v-3.7c0,0,0-1.3,1.7-1.3s2,1.2,2,1.2v10.6h4.3v-3.2c0,0-0.1-1.5,1.7-1.5c1.7,0,1.9,1.6,1.9,1.6v87.8"></path>
	<path class="st0" d="M711.6,484.3v-83.1c0,0-0.4-6.2,2.1-6.2c2.5,0,2.2,4.8,2.2,4.8h3.5h0.5v-10.2c0,0,0.5-1.4,2.1-1.4   s1.7,1.4,1.7,1.4v3.1h4.4c0-0.5,0-0.9,0-1.4c0-1,0-2.1,0-3.1c0-1.1,0-2.2,0-3.3c0-0.4,0-0.9,0-1.3c0-0.4,0-0.8,0.1-1.2   c0.1-0.4,0.4-0.7,0.7-0.9c0.3-0.2,0.7-0.3,1.1-0.3c2.4,0,1.9,3.4,1.9,4.9h4.1h0.3v-10.4c0,0,0.1-1.5,2-1.5s1.9,1.6,1.9,1.6v10   c0,0,4.2,0,4.2,0c-0.1,0,0-2.4,0-2.6c0-0.7-0.1-1.7,0.7-2.1c1.3-0.6,2.7,0.3,2.8,1.7c0.1,1.3-0.1,2.8-0.1,4.1c0,1.5,0,3,0,4.5   c0,0.4,0,0.7,0,1.1h4h0.4v-3.7c0,0,0-1.3,1.7-1.3c1.7,0,2,1.2,2,1.2v10.6h4.3v-3.2c0,0-0.1-1.5,1.7-1.5c1.7,0,1.9,1.6,1.9,1.6v87.8   "></path>
	<g>
		<line class="st0" x1="37.9" y1="413" x2="42.8" y2="413"></line>
		<line class="st0" x1="45.6" y1="406.1" x2="50.4" y2="406.1"></line>
		<line class="st0" x1="53.7" y1="398.9" x2="58.6" y2="398.9"></line>
		<line class="st0" x1="61.7" y1="392.6" x2="66.5" y2="392.6"></line>
		<line class="st0" x1="69.6" y1="398.9" x2="74.5" y2="398.9"></line>
		<line class="st0" x1="77.4" y1="406.1" x2="82.3" y2="406.1"></line>
		<line class="st0" x1="83.5" y1="413" x2="88.3" y2="413"></line>
	</g>
	<g>
		<line class="st0" x1="712.5" y1="413" x2="717.3" y2="413"></line>
		<line class="st0" x1="720.1" y1="406.1" x2="725" y2="406.1"></line>
		<line class="st0" x1="728.3" y1="398.9" x2="733.1" y2="398.9"></line>
		<line class="st0" x1="736.2" y1="392.6" x2="741.1" y2="392.6"></line>
		<line class="st0" x1="744.2" y1="398.9" x2="749" y2="398.9"></line>
		<line class="st0" x1="751.9" y1="406.1" x2="756.8" y2="406.1"></line>
		<line class="st0" x1="758" y1="413" x2="762.9" y2="413"></line>
	</g>
	<path class="st0" d="M64.5,417.7h-0.2c-2.8,0-5.1-2.3-5.1-5.1v-6.2h10.4v6.2C69.6,415.4,67.3,417.7,64.5,417.7z"></path>
	<path class="st0" d="M737.5,417.7h-0.2c-2.8,0-5.1-2.3-5.1-5.1v-6.2h10.4v6.2C742.6,415.4,740.3,417.7,737.5,417.7z"></path>
	<g>
		<path class="st0" d="M111.7,414v-2c0-1.4,1.1-2.5,2.5-2.5h0c1.4,0,2.5,1.1,2.5,2.5v2"></path>
		<path class="st0" d="M120.2,414v-2c0-1.4,1.1-2.5,2.5-2.5l0,0c1.4,0,2.5,1.1,2.5,2.5v2"></path>
		<path class="st0" d="M128.7,414v-2c0-1.4,1.1-2.5,2.5-2.5l0,0c1.4,0,2.5,1.1,2.5,2.5v2"></path>
		<path class="st0" d="M137.2,414v-2c0-1.4,1.1-2.5,2.5-2.5l0,0c1.4,0,2.5,1.1,2.5,2.5v2"></path>
		<path class="st0" d="M145.7,414v-2c0-1.4,1.1-2.5,2.5-2.5l0,0c1.4,0,2.5,1.1,2.5,2.5v2"></path>
		<path class="st0" d="M154.2,414v-2c0-1.4,1.1-2.5,2.5-2.5l0,0c1.4,0,2.5,1.1,2.5,2.5v2"></path>
		<line class="st0" x1="116.7" y1="413.5" x2="120.2" y2="413.5"></line>
		<line class="st0" x1="125.6" y1="413.5" x2="129" y2="413.5"></line>
		<line class="st0" x1="134.2" y1="413.5" x2="137.6" y2="413.5"></line>
		<line class="st0" x1="142" y1="413.5" x2="145.4" y2="413.5"></line>
		<line class="st0" x1="150.6" y1="413.5" x2="154" y2="413.5"></line>
	</g>
	<line class="st0" x1="159.3" y1="414" x2="159.3" y2="484.3"></line>
	<line class="st0" x1="111.7" y1="414" x2="111.7" y2="484.3"></line>
	<g>
		<g>
			<path class="st0" d="M173.1,414v-2c0-1.4,1.1-2.5,2.5-2.5l0,0c1.4,0,2.5,1.1,2.5,2.5v2"></path>
			<path class="st0" d="M181.6,414v-2c0-1.4,1.1-2.5,2.5-2.5h0c1.4,0,2.5,1.1,2.5,2.5v2"></path>
			<path class="st0" d="M190.1,414v-2c0-1.4,1.1-2.5,2.5-2.5h0c1.4,0,2.5,1.1,2.5,2.5v2"></path>
			<path class="st0" d="M198.6,414v-2c0-1.4,1.1-2.5,2.5-2.5l0,0c1.4,0,2.5,1.1,2.5,2.5v2"></path>
			<path class="st0" d="M207.1,414v-2c0-1.4,1.1-2.5,2.5-2.5l0,0c1.4,0,2.5,1.1,2.5,2.5v2"></path>
			<path class="st0" d="M215.6,414v-2c0-1.4,1.1-2.5,2.5-2.5l0,0c1.4,0,2.5,1.1,2.5,2.5v2"></path>
			<line class="st0" x1="178.2" y1="413.5" x2="181.6" y2="413.5"></line>
			<line class="st0" x1="187" y1="413.5" x2="190.4" y2="413.5"></line>
			<line class="st0" x1="195.6" y1="413.5" x2="199.1" y2="413.5"></line>
			<line class="st0" x1="203.5" y1="413.5" x2="206.9" y2="413.5"></line>
			<line class="st0" x1="212" y1="413.5" x2="215.5" y2="413.5"></line>
		</g>
		<line class="st0" x1="173.1" y1="414" x2="173.1" y2="484.3"></line>
	</g>
	<line class="st0" x1="220.7" y1="414" x2="220.7" y2="484.3"></line>
	<g>
		<g>
			<g>
				<path class="st0" d="M235.6,414v-2c0-1.4,1.1-2.5,2.5-2.5l0,0c1.4,0,2.5,1.1,2.5,2.5v2"></path>
				<path class="st0" d="M244.1,414v-2c0-1.4,1.1-2.5,2.5-2.5h0c1.4,0,2.5,1.1,2.5,2.5v2"></path>
				<path class="st0" d="M252.6,414v-2c0-1.4,1.1-2.5,2.5-2.5h0c1.4,0,2.5,1.1,2.5,2.5v2"></path>
				<path class="st0" d="M261.1,414v-2c0-1.4,1.1-2.5,2.5-2.5l0,0c1.4,0,2.5,1.1,2.5,2.5v2"></path>
				<path class="st0" d="M269.6,414v-2c0-1.4,1.1-2.5,2.5-2.5h0c1.4,0,2.5,1.1,2.5,2.5v2"></path>
				<path class="st0" d="M278.1,414v-2c0-1.4,1.1-2.5,2.5-2.5l0,0c1.4,0,2.5,1.1,2.5,2.5v2"></path>
				<line class="st0" x1="240.7" y1="413.5" x2="244.1" y2="413.5"></line>
				<line class="st0" x1="249.5" y1="413.5" x2="252.9" y2="413.5"></line>
				<line class="st0" x1="258.1" y1="413.5" x2="261.5" y2="413.5"></line>
				<line class="st0" x1="265.9" y1="413.5" x2="269.3" y2="413.5"></line>
				<line class="st0" x1="274.5" y1="413.5" x2="277.9" y2="413.5"></line>
			</g>
			<line class="st0" x1="235.6" y1="414" x2="235.6" y2="484.3"></line>
		</g>
		<line class="st0" x1="283.2" y1="414" x2="283.2" y2="484.3"></line>
	</g>
	<g>
		<g>
			<g>
				<path class="st0" d="M298.5,414v-2c0-1.4,1.1-2.5,2.5-2.5l0,0c1.4,0,2.5,1.1,2.5,2.5v2"></path>
				<path class="st0" d="M307,414v-2c0-1.4,1.1-2.5,2.5-2.5l0,0c1.4,0,2.5,1.1,2.5,2.5v2"></path>
				<path class="st0" d="M315.5,414v-2c0-1.4,1.1-2.5,2.5-2.5h0c1.4,0,2.5,1.1,2.5,2.5v2"></path>
				<path class="st0" d="M324,414v-2c0-1.4,1.1-2.5,2.5-2.5l0,0c1.4,0,2.5,1.1,2.5,2.5v2"></path>
				<path class="st0" d="M332.5,414v-2c0-1.4,1.1-2.5,2.5-2.5l0,0c1.4,0,2.5,1.1,2.5,2.5v2"></path>
				<path class="st0" d="M341,414v-2c0-1.4,1.1-2.5,2.5-2.5l0,0c1.4,0,2.5,1.1,2.5,2.5v2"></path>
				<line class="st0" x1="303.5" y1="413.5" x2="307" y2="413.5"></line>
				<line class="st0" x1="312.4" y1="413.5" x2="315.8" y2="413.5"></line>
				<line class="st0" x1="321" y1="413.5" x2="324.4" y2="413.5"></line>
				<line class="st0" x1="328.8" y1="413.5" x2="332.2" y2="413.5"></line>
				<line class="st0" x1="337.4" y1="413.5" x2="340.8" y2="413.5"></line>
			</g>
			<line class="st0" x1="298.5" y1="414" x2="298.5" y2="484.3"></line>
		</g>
		<line class="st0" x1="346.1" y1="414" x2="346.1" y2="484.3"></line>
	</g>
	<g>
		<g>
			<g>
				<path class="st0" d="M454.3,414v-2c0-1.4,1.1-2.5,2.5-2.5l0,0c1.4,0,2.5,1.1,2.5,2.5v2"></path>
				<path class="st0" d="M462.8,414v-2c0-1.4,1.1-2.5,2.5-2.5l0,0c1.4,0,2.5,1.1,2.5,2.5v2"></path>
				<path class="st0" d="M471.3,414v-2c0-1.4,1.1-2.5,2.5-2.5l0,0c1.4,0,2.5,1.1,2.5,2.5v2"></path>
				<path class="st0" d="M479.8,414v-2c0-1.4,1.1-2.5,2.5-2.5l0,0c1.4,0,2.5,1.1,2.5,2.5v2"></path>
				<path class="st0" d="M488.3,414v-2c0-1.4,1.1-2.5,2.5-2.5l0,0c1.4,0,2.5,1.1,2.5,2.5v2"></path>
				<path class="st0" d="M496.8,414v-2c0-1.4,1.1-2.5,2.5-2.5l0,0c1.4,0,2.5,1.1,2.5,2.5v2"></path>
				<line class="st0" x1="459.4" y1="413.5" x2="462.8" y2="413.5"></line>
				<line class="st0" x1="468.2" y1="413.5" x2="471.6" y2="413.5"></line>
				<line class="st0" x1="476.8" y1="413.5" x2="480.2" y2="413.5"></line>
				<line class="st0" x1="484.7" y1="413.5" x2="488.1" y2="413.5"></line>
				<line class="st0" x1="493.2" y1="413.5" x2="496.7" y2="413.5"></line>
			</g>
			<line class="st0" x1="454.3" y1="414" x2="454.3" y2="484.3"></line>
		</g>
		<line class="st0" x1="501.9" y1="414" x2="501.9" y2="484.3"></line>
	</g>
	<g>
		<g>
			<g>
				<path class="st0" d="M515.1,414v-2c0-1.4,1.1-2.5,2.5-2.5l0,0c1.4,0,2.5,1.1,2.5,2.5v2"></path>
				<path class="st0" d="M523.6,414v-2c0-1.4,1.1-2.5,2.5-2.5h0c1.4,0,2.5,1.1,2.5,2.5v2"></path>
				<path class="st0" d="M532.1,414v-2c0-1.4,1.1-2.5,2.5-2.5l0,0c1.4,0,2.5,1.1,2.5,2.5v2"></path>
				<path class="st0" d="M540.6,414v-2c0-1.4,1.1-2.5,2.5-2.5l0,0c1.4,0,2.5,1.1,2.5,2.5v2"></path>
				<path class="st0" d="M549.1,414v-2c0-1.4,1.1-2.5,2.5-2.5l0,0c1.4,0,2.5,1.1,2.5,2.5v2"></path>
				<path class="st0" d="M557.6,414v-2c0-1.4,1.1-2.5,2.5-2.5l0,0c1.4,0,2.5,1.1,2.5,2.5v2"></path>
				<line class="st0" x1="520.2" y1="413.5" x2="523.6" y2="413.5"></line>
				<line class="st0" x1="529" y1="413.5" x2="532.4" y2="413.5"></line>
				<line class="st0" x1="537.6" y1="413.5" x2="541" y2="413.5"></line>
				<line class="st0" x1="545.4" y1="413.5" x2="548.8" y2="413.5"></line>
				<line class="st0" x1="554" y1="413.5" x2="557.4" y2="413.5"></line>
			</g>
			<line class="st0" x1="515.1" y1="414" x2="515.1" y2="484.3"></line>
		</g>
		<line class="st0" x1="562.7" y1="414" x2="562.7" y2="484.3"></line>
	</g>
	<g>
		<g>
			<g>
				<path class="st0" d="M577.6,414v-2c0-1.4,1.1-2.5,2.5-2.5l0,0c1.4,0,2.5,1.1,2.5,2.5v2"></path>
				<path class="st0" d="M586.1,414v-2c0-1.4,1.1-2.5,2.5-2.5l0,0c1.4,0,2.5,1.1,2.5,2.5v2"></path>
				<path class="st0" d="M594.6,414v-2c0-1.4,1.1-2.5,2.5-2.5l0,0c1.4,0,2.5,1.1,2.5,2.5v2"></path>
				<path class="st0" d="M603.1,414v-2c0-1.4,1.1-2.5,2.5-2.5l0,0c1.4,0,2.5,1.1,2.5,2.5v2"></path>
				<path class="st0" d="M611.6,414v-2c0-1.4,1.1-2.5,2.5-2.5l0,0c1.4,0,2.5,1.1,2.5,2.5v2"></path>
				<path class="st0" d="M620.1,414v-2c0-1.4,1.1-2.5,2.5-2.5l0,0c1.4,0,2.5,1.1,2.5,2.5v2"></path>
				<line class="st0" x1="582.6" y1="413.5" x2="586.1" y2="413.5"></line>
				<line class="st0" x1="591.5" y1="413.5" x2="594.9" y2="413.5"></line>
				<line class="st0" x1="600.1" y1="413.5" x2="603.5" y2="413.5"></line>
				<line class="st0" x1="607.9" y1="413.5" x2="611.3" y2="413.5"></line>
				<line class="st0" x1="616.5" y1="413.5" x2="619.9" y2="413.5"></line>
			</g>
			<line class="st0" x1="577.6" y1="414" x2="577.6" y2="484.3"></line>
		</g>
		<line class="st0" x1="625.2" y1="414" x2="625.2" y2="484.3"></line>
	</g>
	<g>
		<g>
			<g>
				<path class="st0" d="M641.6,414v-2c0-1.4,1.1-2.5,2.5-2.5l0,0c1.4,0,2.5,1.1,2.5,2.5v2"></path>
				<path class="st0" d="M650.1,414v-2c0-1.4,1.1-2.5,2.5-2.5l0,0c1.4,0,2.5,1.1,2.5,2.5v2"></path>
				<path class="st0" d="M658.6,414v-2c0-1.4,1.1-2.5,2.5-2.5l0,0c1.4,0,2.5,1.1,2.5,2.5v2"></path>
				<path class="st0" d="M667.1,414v-2c0-1.4,1.1-2.5,2.5-2.5h0c1.4,0,2.5,1.1,2.5,2.5v2"></path>
				<path class="st0" d="M675.6,414v-2c0-1.4,1.1-2.5,2.5-2.5l0,0c1.4,0,2.5,1.1,2.5,2.5v2"></path>
				<path class="st0" d="M684.1,414v-2c0-1.4,1.1-2.5,2.5-2.5l0,0c1.4,0,2.5,1.1,2.5,2.5v2"></path>
				<line class="st0" x1="646.6" y1="413.5" x2="650.1" y2="413.5"></line>
				<line class="st0" x1="655.5" y1="413.5" x2="658.9" y2="413.5"></line>
				<line class="st0" x1="664.1" y1="413.5" x2="667.5" y2="413.5"></line>
				<line class="st0" x1="671.9" y1="413.5" x2="675.3" y2="413.5"></line>
				<line class="st0" x1="680.5" y1="413.5" x2="683.9" y2="413.5"></line>
			</g>
			<line class="st0" x1="641.6" y1="414" x2="641.6" y2="484.3"></line>
		</g>
		<line class="st0" x1="689.2" y1="414" x2="689.2" y2="484.3"></line>
	</g>
	<path class="st0" d="M418.1,439.6v54.1h-37.5v-54.1c0-4.8,1.8-9.1,4.7-12.4c3.4-3.9,8.4-6.3,14-6.3c5.4,0,10.4,2.3,13.8,6.1   C416.2,430.2,418.1,434.7,418.1,439.6z"></path>
	<line class="st0" x1="380.6" y1="439.6" x2="418.1" y2="439.6"></line>
	<path class="st0" d="M413.1,426.9c-1.8,6-7.3,10.4-13.9,10.4c-6.5,0-12-4.3-13.9-10.2c3.4-3.9,8.4-6.3,14-6.3   C404.8,420.8,409.7,423.2,413.1,426.9z"></path>
	<line class="st0" x1="386.8" y1="439.6" x2="386.8" y2="475.3"></line>
	<line class="st0" x1="392.9" y1="439.6" x2="392.9" y2="475.3"></line>
	<line class="st0" x1="399.2" y1="439.6" x2="399.2" y2="475.3"></line>
	<line class="st0" x1="405.4" y1="439.6" x2="405.4" y2="475.3"></line>
	<line class="st0" x1="411.5" y1="439.6" x2="411.5" y2="475.3"></line>
	<line class="st0" x1="417.8" y1="439.6" x2="417.8" y2="475.3"></line>
	<line class="st0" x1="380.6" y1="475.3" x2="417.8" y2="475.3"></line>
	<polyline class="st0" points="361.2,333.8 361.2,257.2 361.2,245.2 437.5,245.2 437.5,257.2 437.5,333.2  "></polyline>
	<rect x="358.2" y="493.7" class="st0" width="82.1" height="4.9"></rect>
	<path class="st0" d="M399.2,268.6L399.2,268.6c3.8,0,7,3.1,7,7v31.8h-13.9v-31.8C392.2,271.7,395.4,268.6,399.2,268.6z"></path>
	<g>
		<path class="st0" d="M376.5,261.8v-4.3c0-0.9,0.7-1.6,1.6-1.6l0,0c0.9,0,1.6,0.7,1.6,1.6v4.3"></path>
		<path class="st0" d="M383.6,261.8v-4.3c0-0.9,0.7-1.6,1.6-1.6l0,0c0.9,0,1.6,0.7,1.6,1.6v4.3"></path>
		<path class="st0" d="M390.7,261.8v-4.3c0-0.9,0.7-1.6,1.6-1.6l0,0c0.9,0,1.6,0.7,1.6,1.6v4.3"></path>
		<path class="st0" d="M397.9,261.8v-4.3c0-0.9,0.7-1.6,1.6-1.6l0,0c0.9,0,1.6,0.7,1.6,1.6v4.3"></path>
		<path class="st0" d="M405,261.8v-4.3c0-0.9,0.7-1.6,1.6-1.6l0,0c0.9,0,1.6,0.7,1.6,1.6v4.3"></path>
		<path class="st0" d="M412.1,261.8v-4.3c0-0.9,0.7-1.6,1.6-1.6h0c0.9,0,1.6,0.7,1.6,1.6v4.3"></path>
		<path class="st0" d="M419.3,261.8v-4.3c0-0.9,0.7-1.6,1.6-1.6l0,0c0.9,0,1.6,0.7,1.6,1.6v4.3"></path>
		<line class="st0" x1="379.8" y1="261.3" x2="383.6" y2="261.3"></line>
		<line class="st0" x1="386.9" y1="261.3" x2="390.7" y2="261.3"></line>
		<line class="st0" x1="394" y1="261.3" x2="397.9" y2="261.3"></line>
		<line class="st0" x1="401.5" y1="261.3" x2="405.4" y2="261.3"></line>
		<line class="st0" x1="408.1" y1="261.3" x2="412" y2="261.3"></line>
		<line class="st0" x1="415.4" y1="261.3" x2="419.3" y2="261.3"></line>
	</g>
	<rect x="373.3" y="248.9" class="st0" width="3.2" height="4.1"></rect>
	<rect x="380.4" y="248.9" class="st0" width="3.2" height="4.1"></rect>
	<rect x="387.5" y="248.9" class="st0" width="3.2" height="4.1"></rect>
	<rect x="394.7" y="248.9" class="st0" width="3.2" height="4.1"></rect>
	<rect x="401.8" y="248.9" class="st0" width="3.2" height="4.1"></rect>
	<rect x="408.9" y="248.9" class="st0" width="3.2" height="4.1"></rect>
	<rect x="416" y="248.9" class="st0" width="3.2" height="4.1"></rect>
	<rect x="423.1" y="248.9" class="st0" width="3.2" height="4.1"></rect>
	<circle class="st0" cx="399.5" cy="230" r="9.4"></circle>
	<rect x="355.4" y="217.7" class="st0" width="16.8" height="23.5"></rect>
	<rect x="427.7" y="217.7" class="st0" width="16.8" height="23.5"></rect>
	<line class="st0" x1="359.9" y1="217.7" x2="359.9" y2="241.3"></line>
	<line class="st0" x1="432.8" y1="217.7" x2="432.8" y2="241.3"></line>
	<line class="st0" x1="381" y1="219.8" x2="381" y2="239.4"></line>
	<line class="st0" x1="418.3" y1="219.8" x2="418.3" y2="239.4"></line>
	<polygon class="st0" points="446.4,245.2 353.4,245.2 355.4,241.3 444.4,241.3  "></polygon>
	<g>
		<line class="st0" x1="353.1" y1="245.7" x2="353.4" y2="248.1"></line>
		<line class="st0" x1="353" y1="247.8" x2="357.2" y2="249.3"></line>
		<polyline class="st0" points="361.2,257.2 357.3,257.2 356.9,248.9   "></polyline>
	</g>
	<g>
		<line class="st0" x1="446.7" y1="245.7" x2="446.5" y2="248.1"></line>
		<line class="st0" x1="446.8" y1="247.8" x2="442.6" y2="249.3"></line>
		<polyline class="st0" points="437.5,257.2 442.5,257.2 443,248.9   "></polyline>
	</g>
	<polygon class="st0" points="363.8,150.9 363.8,150.9 355.4,217.7 372.1,217.7  "></polygon>
	<polygon class="st0" points="436.1,150.9 436.1,150.9 427.7,217.7 444.4,217.7  "></polygon>
	<polygon class="st0" points="399.6,10.7 399.6,10.7 372.1,217.7 427.7,217.7  "></polygon>
	<path class="st0" d="M373.3,209.1c0,0,14.6,4.1,15.8-26.1s10.5-172.2,10.5-172.2"></path>
	<path class="st0" d="M426.8,209.1c0,0-14.6,4.1-15.8-26.1S400.5,10.7,400.5,10.7"></path>
	<path class="st0" d="M360.8,347.8L360.8,347.8c-1.4,0-2.5,1.1-2.5,2.5v45.8h5.1v-45.8C363.3,348.9,362.2,347.8,360.8,347.8z"></path>
	<path class="st0" d="M437.5,347.8L437.5,347.8c-1.4,0-2.5,1.1-2.5,2.5v45.8h5.1v-45.8C440,348.9,438.9,347.8,437.5,347.8z"></path>
	<path class="st0" d="M370.1,343.9L370.1,343.9c-1.6,0-2.8,1.3-2.8,2.8v13.7h5.6v-13.7C372.9,345.1,371.7,343.9,370.1,343.9z"></path>
	<path class="st0" d="M428.9,343.9L428.9,343.9c-1.6,0-2.8,1.3-2.8,2.8v13.7h5.6v-13.7C431.7,345.1,430.5,343.9,428.9,343.9z"></path>
	<path class="st0" d="M380,339.5L380,339.5c-1.6,0-2.8,1.3-2.8,2.8V356h5.6v-13.7C382.8,340.8,381.5,339.5,380,339.5z"></path>
	<path class="st0" d="M418.7,339.5L418.7,339.5c-1.6,0-2.8,1.3-2.8,2.8V356h5.6v-13.7C421.6,340.8,420.3,339.5,418.7,339.5z"></path>
	<path class="st0" d="M389.6,333.8L389.6,333.8c-1.6,0-2.8,1.3-2.8,2.8v13.7h5.6v-13.7C392.4,335.1,391.2,333.8,389.6,333.8z"></path>
	<path class="st0" d="M408.9,333.8L408.9,333.8c-1.6,0-2.8,1.3-2.8,2.8v13.7h5.6v-13.7C411.7,335.1,410.4,333.8,408.9,333.8z"></path>
	<path class="st0" d="M399.7,329L399.7,329c-1.6,0-2.8,1.3-2.8,2.8v13.7h5.6v-13.7C402.5,330.3,401.3,329,399.7,329z"></path>
	<line class="st0" x1="37.1" y1="484.3" x2="346.1" y2="484.3"></line>
	<line class="st0" x1="453.8" y1="484.3" x2="764.2" y2="484.3"></line>
</g>
</svg>
