<?xml version="1.0" encoding="UTF-8"?>
<!-- Generator: Adobe Illustrator 28.0.0, SVG Export Plug-In . SVG Version: 6.00 Build 0)  -->
<svg xmlns="http://www.w3.org/2000/svg" xmlns:xlink="http://www.w3.org/1999/xlink" version="1.1" id="Lager_1" x="0px" y="0px" viewBox="0 0 135.1 83.1" style="enable-background:new 0 0 135.1 83.1;" xml:space="preserve">
<style type="text/css">
	.st0{fill:none;stroke:#FFFFFF;stroke-width:2;stroke-linecap:round;stroke-linejoin:round;stroke-miterlimit:10;}
</style>
<g>
	<polyline class="st0" points="113.7,24.9 113.7,24.9 125.5,65.4 107.6,65.4  "></polyline>
	<polyline class="st0" points="9.6,24.9 9.6,65.4 21.7,65.4  "></polyline>
	<polyline class="st0" points="116,12.1 116,12.1 115.6,12.1  "></polyline>
	<polyline class="st0" points="45.8,65.4 60.4,65.4 74.7,65.4 84.4,65.4  "></polyline>
	<rect x="56.1" y="24.8" class="st0" width="20.5" height="40.5"></rect>
	<polyline class="st0" points="118.3,24.9 94.4,24.9 94.4,45 118.8,45  "></polyline>
	<rect x="18.3" y="24.9" class="st0" width="27.6" height="13.8"></rect>
	<path class="st0" d="M9.6,24.9v-5c0-4.3,3.9-7.7,8.7-7.7h97.4c5.5,0,9.9,3.9,9.9,8.8v4H84.4"></path>
	<circle class="st0" cx="95.7" cy="65.4" r="5.7"></circle>
	<circle class="st0" cx="34.1" cy="65.4" r="5.7"></circle>
	<line class="st0" x1="9.6" y1="49.7" x2="45.8" y2="49.7"></line>
</g>
</svg>
