<?xml version="1.0" encoding="UTF-8"?>
<!-- Generator: Adobe Illustrator 28.0.0, SVG Export Plug-In . SVG Version: 6.00 Build 0)  -->
<svg xmlns="http://www.w3.org/2000/svg" xmlns:xlink="http://www.w3.org/1999/xlink" version="1.1" id="Lager_1" x="0px" y="0px" viewBox="0 0 215 208.3" style="enable-background:new 0 0 215 208.3;" xml:space="preserve">
<style type="text/css">
	.st0{fill:#19455E;}
	.st1{fill:#A5BCCB;}
	.st2{fill:#F28F73;}
	.st3{fill:#133247;}
</style>
<g>
	<g>
		<path class="st0" d="M23.9,139.9c0.8,0,1.9,0.2,3.2,0.5c1.3,0.3,2.2,0.7,3,1.1l1.8-5c-1.1-0.6-2.4-1.1-3.9-1.5    c-1.5-0.4-3-0.6-4.7-0.6c-2.6,0-5,0.6-7.1,1.7c-2.1,1.1-3.9,2.8-5.1,5c-1.3,2.2-1.9,5-1.9,8.2c0,2.6,0.6,4.9,1.8,6.9    c1.2,2,2.9,3.6,5.1,4.7c2.2,1.1,4.8,1.7,7.7,1.7c1.1,0,2.3-0.2,3.6-0.5c1.3-0.3,2.5-0.7,3.6-1.2c1.1-0.5,1.8-1,2.3-1.4v-11.6H22.8    v5.2h4.7v3.3c-0.8,0.5-2.1,0.7-3.8,0.7c-1.8,0-3.3-0.3-4.7-1c-1.4-0.7-2.5-1.6-3.2-2.9c-0.8-1.3-1.2-2.7-1.2-4.4    c0-2.9,0.8-5.2,2.4-6.7C18.6,140.6,20.9,139.9,23.9,139.9z"></path>
		<path class="st0" d="M57.3,148.7c0.7-1.5,1.1-3.1,1.1-4.8c0-2.9-0.9-5.1-2.8-6.8c-1.9-1.7-4.5-2.5-7.9-2.5h-8.3v27.5h5.4v-8.7h3.6    l5.8,8.7h6.3l-6.4-10C55.5,151.4,56.6,150.2,57.3,148.7z M51.7,146.9c-0.7,0.9-1.7,1.3-3.2,1.3h-3.9v-8.3h3.9    c1.6,0,2.8,0.5,3.3,1.4c0.6,0.9,0.9,1.9,0.9,2.9C52.7,145.2,52.4,146.1,51.7,146.9z"></path>
		<path class="st0" d="M74.2,132.6c0.5-0.5,0.8-1.2,0.8-1.9c0-0.7-0.3-1.4-0.8-1.9c-0.5-0.5-1.1-0.8-1.8-0.8c-0.7,0-1.3,0.3-1.9,0.8    c-0.5,0.5-0.8,1.2-0.8,1.9c0,0.8,0.3,1.4,0.8,1.9c0.5,0.5,1.2,0.8,1.9,0.8C73,133.4,73.6,133.1,74.2,132.6z"></path>
		<path class="st0" d="M81.6,132.6c0.5-0.5,0.8-1.2,0.8-1.9c0-0.7-0.3-1.4-0.8-1.9c-0.5-0.5-1.1-0.8-1.8-0.8c-0.7,0-1.3,0.3-1.9,0.8    c-0.5,0.5-0.8,1.2-0.8,1.9c0,0.8,0.3,1.4,0.8,1.9c0.5,0.5,1.2,0.8,1.9,0.8C80.5,133.4,81.1,133.1,81.6,132.6z"></path>
		<path class="st0" d="M76.3,162.5c2.5,0,4.9-0.6,7-1.9c2.2-1.3,3.9-3,5.2-5.1c1.3-2.1,1.9-4.5,1.9-7c0-2.5-0.6-4.8-1.9-7    c-1.3-2.2-3-3.9-5.2-5.2c-2.2-1.3-4.5-1.9-7-1.9s-4.9,0.6-7,1.9c-2.2,1.3-3.9,3-5.1,5.2c-1.3,2.2-1.9,4.5-1.9,7    c0,2.5,0.6,4.9,1.9,7c1.3,2.1,3,3.8,5.1,5.1C71.4,161.9,73.8,162.5,76.3,162.5z M67.9,148.5c0-1.6,0.4-3.1,1.1-4.5    c0.7-1.3,1.8-2.4,3-3.2c1.3-0.8,2.7-1.2,4.3-1.2c1.6,0,3,0.4,4.3,1.2c1.3,0.8,2.3,1.9,3,3.2c0.7,1.3,1.1,2.8,1.1,4.5    c0,1.6-0.4,3.1-1.1,4.4c-0.7,1.3-1.7,2.4-3,3.2c-1.3,0.8-2.7,1.2-4.2,1.2c-1.6,0-3-0.4-4.4-1.2s-2.3-1.9-3.1-3.2    C68.3,151.6,67.9,150.1,67.9,148.5z"></path>
		<polygon class="st0" points="120.4,163.3 120.6,163.3 120.6,134.7 115.1,134.7 115.3,151.3 96,133.6 95.8,133.6 95.8,162.2     101.3,162.2 101.2,146   "></polygon>
		<polygon class="st0" points="150.8,162.2 150.8,134.7 145.4,134.7 145.4,145.8 133.1,145.8 133.1,134.7 127.7,134.7 127.7,162.2     133.1,162.2 133.1,151 145.4,151 145.4,162.2   "></polygon>
		<path class="st0" d="M167.6,133.6h-0.3l-12.4,28.6h5.3l2.2-5.4h9.1l2.1,5.4h6.3L167.6,133.6z M164.3,152.3l2.8-6.7l2.7,6.7H164.3z    "></path>
		<path class="st0" d="M194.9,153.1h4.7v3.3c-0.8,0.5-2.1,0.7-3.8,0.7c-1.8,0-3.3-0.3-4.7-1c-1.4-0.7-2.5-1.6-3.2-2.9    c-0.8-1.3-1.2-2.7-1.2-4.4c0-2.9,0.8-5.2,2.4-6.7c1.6-1.5,3.9-2.2,6.9-2.2c0.8,0,1.9,0.2,3.2,0.5c1.3,0.3,2.2,0.7,3,1.1l1.8-5    c-1.1-0.6-2.4-1.1-3.9-1.5c-1.5-0.4-3-0.6-4.7-0.6c-2.6,0-5,0.6-7.1,1.7c-2.1,1.1-3.9,2.8-5.1,5c-1.3,2.2-1.9,5-1.9,8.2    c0,2.6,0.6,4.9,1.8,6.9c1.2,2,2.9,3.6,5.1,4.7c2.2,1.1,4.8,1.7,7.7,1.7c1.1,0,2.3-0.2,3.6-0.5s2.5-0.7,3.6-1.2    c1.1-0.5,1.8-1,2.3-1.4v-11.6h-10.2V153.1z"></path>
		<path class="st0" d="M28.4,195.4c-1.2,0.5-2.5,0.7-3.9,0.7c-1.8,0-3.4-0.4-4.8-1.2c-1.4-0.8-2.4-1.9-3.1-3.4    c-0.7-1.5-1.1-3.1-1.1-5.1c0-1.8,0.4-3.4,1.2-4.8c0.8-1.5,1.8-2.6,3.2-3.4c1.3-0.8,2.8-1.3,4.3-1.3c2.2,0,4.4,0.8,6.6,2.4l2.3-5.6    c-1.2-0.7-2.5-1.3-4.1-1.8c-1.5-0.5-3.2-0.7-5-0.7c-2.9,0-5.4,0.7-7.6,2c-2.2,1.3-3.9,3.2-5.1,5.5c-1.2,2.4-1.8,5-1.8,8.1    c0,2.7,0.6,5.3,1.8,7.5c1.2,2.3,3,4.1,5.3,5.5c2.3,1.4,5,2,8.1,2c2,0,3.8-0.3,5.4-0.9c1.7-0.6,2.9-1.2,3.6-1.9l-2.4-5.3    C30.5,194.3,29.6,194.9,28.4,195.4z"></path>
		<path class="st0" d="M49.6,170.3l-13.5,31.1H42l2.4-5.9h9.9l2.3,5.9h6.8L50,170.3H49.6z M46.5,190.6l3-7.3l2.9,7.3H46.5z"></path>
		<polygon class="st0" points="83,191.8 67.9,170.3 67.8,170.3 67.8,201.4 73.5,201.4 73.5,188.1 82.9,201 83,201 92.8,187.2     92.8,201.4 98.6,201.4 98.6,170.3 98.6,170.3   "></polygon>
		<path class="st0" d="M115.4,171.5h-9.1v29.9h5.9V192h4.2c2.5,0,4.5-0.5,6-1.5c1.6-1,2.7-2.3,3.4-3.8c0.7-1.6,1-3.2,1-5    c0-3.1-1-5.6-3-7.4C121.9,172.4,119.1,171.5,115.4,171.5z M120.6,183.7c-0.3,0.7-0.8,1.3-1.5,1.8c-0.7,0.5-1.6,0.8-2.7,0.8h-4.2    v-9h4.2c1.8,0,3,0.5,3.6,1.5c0.6,1,0.9,2,0.9,3.1C121.1,182.4,120.9,183,120.6,183.7z"></path>
		<rect x="132.2" y="171.5" class="st0" width="5.9" height="29.9"></rect>
		<polygon class="st0" points="167,189.5 146.1,170.3 145.9,170.3 145.9,201.4 151.8,201.4 151.7,183.7 172.7,202.7 172.8,202.7     172.8,171.5 166.9,171.5   "></polygon>
		<path class="st0" d="M193.7,191.5h5.2v3.6c-0.9,0.5-2.3,0.8-4.1,0.8c-1.9,0-3.6-0.4-5.1-1.1c-1.5-0.7-2.7-1.8-3.5-3.2    c-0.8-1.4-1.3-3-1.3-4.8c0-3.2,0.9-5.6,2.6-7.2c1.7-1.6,4.2-2.4,7.5-2.4c0.9,0,2.1,0.2,3.4,0.5c1.4,0.4,2.4,0.8,3.2,1.2l1.9-5.5    c-1.2-0.7-2.6-1.2-4.2-1.6c-1.6-0.4-3.3-0.6-5.1-0.6c-2.8,0-5.4,0.6-7.7,1.8c-2.3,1.2-4.2,3-5.6,5.4c-1.4,2.4-2.1,5.4-2.1,8.9    c0,2.8,0.7,5.3,2,7.5c1.3,2.2,3.2,3.9,5.6,5.1c2.4,1.2,5.2,1.9,8.4,1.9c1.2,0,2.5-0.2,3.9-0.5c1.4-0.3,2.7-0.8,3.9-1.3    c1.2-0.5,2-1,2.5-1.5v-12.6h-11.1V191.5z"></path>
	</g>
	<path class="st0" d="M7.9,5.6v112.5h199.2V5.6H7.9z M45.9,87.3c0.1,0.5,0.3,1,0.5,1.4h-0.3c0,0,0-0.1,0-0.1   C46.1,88.1,46,87.7,45.9,87.3z M77.1,111.6H49.5c-0.3-7.1-0.9-14.2-1.5-21.2c0.4,0.1,0.9,0.1,1.2,0.2c0.4,0.1,2.1,1.1,2.3,1   c0.1,0-0.2-0.4,0.2-0.6c0.6,0.6,1.1,1.2,1.8,1.9v-1.3c0.7,0.8,1.3,1.4,1.8,2.1c0.3-0.4-0.1-0.8,0.3-1.2c0.3,0.4,0.7,0.8,1.1,1.4   c0.1-0.5,0.1-0.7,0.2-1c1,0.7,2,1.4,3,2.1c0.4-0.4,0.1-0.8-0.1-1c0.8,0.4,1.2,1.5,2.3,1.8c0.1,0,0.2-0.1,0.3-0.2   c0.4-0.4-2.4-3.4-2.7-3.7c-1.2-1-2.5-1.9-4-2.4c-0.6-0.2-1.3-0.4-2.1-0.6c0.2-0.1,0.5-0.2,0.8-0.2c0.2,0,1.7,0.6,1.7,0.7   c0-0.1-0.2-1-0.3-1c1.1,0,1.8,0.9,2.8,0.9c-0.2-0.4-0.3-0.7-0.5-1.1c0.9-0.2,1.4,0.7,2.3,0.6c-0.2-0.3-0.3-0.5-0.4-0.9   c1.5,0.2,2.9,0.8,4.4,0.9c-0.1-0.3-0.3-0.4-0.6-0.6c0,0-0.1-0.2-0.3-0.3c-0.1-0.2-0.3-0.3-0.3-0.3c0.6-0.1,1.3,0.3,1.9,0.5   c0.6,0.2,1.1,0.4,1.7,0.6c0.3,0.1,0.3,0,0.3-0.3c0-0.2-0.8-0.7-1-0.9c-0.4-0.3-0.7-0.5-1.1-0.8c-0.7-0.4-1.5-0.8-2.4-1.1   c-3.8-1.3-8.8-1.3-12.3,0.8c-0.2,0.1-0.3,0.2-0.4,0.3c0.6-0.5,1.1-0.9,1.8-1.2c0.1,0,0.2-0.1,0.3-0.1c0.2-0.2,0-0.3-0.1-0.4   c-0.1-0.1-0.1-0.2,0-0.2c0,0,0.1-0.1,0.1-0.1c0.2-0.1,0.4-0.2,0.7-0.3c0.5-0.3,0.9-0.2,1.5-0.3c0.2,0,0.4-0.1,0.5-0.2   c0.3-0.4-0.4-0.7-0.7-0.7c0.9-0.1,1.7-0.4,2.5-0.6c0.4-0.1,0.7-0.1,0.4-0.6c-0.1-0.1-0.4-0.6-0.6-0.5c0.3-0.3,1-0.2,1.3-0.5   c0.3-0.2,0.6-0.5,0.1-0.6c-0.1,0-0.9-0.1-0.6-0.4c0.1-0.1,0.4-0.1,0.5-0.2c0.6-0.2,1.1-0.4,1.7-0.6c0.2-0.1,2.6-0.9,2.6-1.1   c0-0.1,0-0.2-0.1-0.2h-2.9c2.1-0.9,3.9-1.3,5.8-1.7c-2.6-0.4-5.1-0.3-7.6,0.5c-4.9,1.6-8.5,5.6-9.9,10.2c0-0.1,0-0.2,0-0.2   c0.1-0.8,0.2-1.5,0.4-2.3c0.1-0.6,0.5-1.4,0.3-2.1c0,0-0.3,0-0.3-0.1c-0.1-0.1,0.1-0.5,0.1-0.6c0.1-0.4,0.1-0.8,0.2-1.2   c0.1-0.8,0.3-1.7,0.3-2.5c0-0.4-0.1-1.6-0.6-0.9c0.3-0.6,0.2-1.1,0.2-1.8c0-0.8,0-1.6,0.1-2.4c0-0.1,0-0.2,0-0.2   c0-0.1-0.2-0.1-0.2-0.1c-0.1,0-0.2,0.1-0.2,0.2c-0.1,0.1-0.2,0.1-0.3,0.1c-0.1,0-0.1-0.1-0.1-0.2c-0.2-1.3-0.2-2.7-0.3-4   c-1.2,2.5-1.8,5.2-2,7.9C45,78.4,45,80,45.1,81.5c0,1.5,0.1,3,0.5,4.5c-0.3-0.9-0.7-1.8-1.3-2.5c-0.4-1.3-0.9-2.5-2.1-3.3   c-3.6-4.3-8.1-6.9-13.7-7.3c-1.6-0.1-3.1-0.1-4.7,0.3c2.3,0.4,4.5,1,6.6,1.8c0.1,0.1,0.2,0.2,0.1,0.4c-0.7,0.3-1.7-0.3-2.3,0.5   c0.1-0.1,2.4,0.9,2.6,1c0.8,0.3,1.9,0.6,2.5,1.2c-0.6,0.3-1.3,0.4-2,0.6c0.2-0.1,0.8,0.2,1,0.2c0.3,0.1,0.7,0.1,1,0.2   c0.6,0.1,1.2,0.2,1.7,0.4c-0.2,0.3-0.6,0.4-0.9,0.6c-0.1,0-0.7,0.6-0.7,0.6c0.8,0.1,1.6,0.2,2.4,0.4c0.3,0,2,0.5,2.1,0.3   c-0.3,0.2-1.4,1.2-1.8,1.1c1.4,0.4,2.9,0.4,4.3,0.9c-0.3,0.2-0.7,0.3-0.9,0.6c-0.3,0.3,0.1,0.6,0.4,0.7c0.2,0.1,0.5,0,0.8,0   c0.5,0,0.3,0.4,0.4,0.7c0.2,0.4,0.6,0.6,1,0.8c0.7,0.4,1.3,0.9,1.9,1.5c0.1,0.1,0.2,0.2,0.3,0.4c-0.9-0.8-1.9-1.4-3.1-1.8   c-0.2-0.1-0.4-0.1-0.6-0.2c-7.1-3.2-13.7-2.1-19.6,2.8c-0.2,0.2-0.5,0.3-0.5,0.7c0-0.1,1.3-0.6,1.5-0.6c0.5-0.2,0.9-0.4,1.4-0.6   c1-0.4,2-0.7,3-0.8c-0.6,0.8-1.4,1.1-1.9,1.6c0,0.2,0,0.3,0.3,0.3c0.6-0.2,1.2-0.3,1.8-0.5c0,0,0.1,0,0.1,0c0,0,0.1,0,0.1,0   c0.1,0,0.1,0,0.2,0c0.1,0,0.3-0.1,0.4-0.1c0.3-0.1,0.6-0.2,0.9-0.2c0.3-0.1,0.6-0.2,0.9-0.3c0.2-0.1,0.4-0.1,0.5,0.1   c0.1,0.2,0.1,0.4-0.1,0.5c-0.2,0.2-0.4,0.3-0.5,0.5c0,0.1,0,0.2,0.1,0.2c0,0,0,0,0,0c0.5-0.2,1-0.4,1.6-0.7   c0.6-0.2,1.1-0.5,1.7-0.7c-0.2,0.1-0.4,0.7-0.5,0.9c-0.2,0.3-0.5,0.7-0.1,0.8c0.3,0.1,0.7-0.2,1-0.3c0.6-0.3,1.2-0.7,1.7-1   c0.1-0.1,0.4-0.1,0.5,0c0.1,0.2,0,0.3-0.1,0.5c-0.1,0.3-0.2,0.5-0.3,0.8c0.1,0.1,0.3,0.1,0.4,0c0.5-0.3,1-0.5,1.5-0.8   c0.5-0.3,1-0.6,1.6-0.8c0.2,0.3-0.5,1.3,0.2,1.1c0.6-0.2,1.2-0.3,1.9-0.3c0.5,0,1.1,0.1,1.6,0.1c-0.2,0-0.4,0-0.5,0   c-2.9,0-5.7,0.7-8.2,2.3c-1.4,0.8-2.6,1.9-3.5,3.2c-0.5,0.7-1,1.4-1.5,2.2c-0.2,0.4-0.4,0.8-0.6,1.2c-0.1,0.3-0.6,1-0.5,1.3   c0,0.1,1.3-1.2,1.5-1.3c0,0,0,0,0,0c0.3-0.3,0.6-0.6,0.9-0.9c0.2-0.2,0.7-0.4,0.8-0.7c-0.2,0.5-0.4,1-0.5,1.5c0,0.2,0,0.4,0.2,0.2   c0.5-0.5,1.1-1,1.6-1.5c0.3-0.2,1.9-1.9,2.2-1.6c0.1,0.1,0,0.3,0,0.4c-0.1,0.3-0.3,0.8,0.1,0.7c0.7-0.1,0.7-1,1.1-1.4   c0.1-0.1,0.5-0.2,0.5,0.1c0,0.2,0,1.1,0.3,0.8c0.1,0,0.1-0.1,0.2-0.2c0.6-0.9,1.2-1.8,1.9-2.6c0.1,0.6,0.1,1,0.2,1.6   c0.8-1,1.4-1.8,2.1-2.6c0.1,0.4,0.2,0.7,0.2,1.1c0.6-0.5,0.8-0.9,1.6-1.2c1.1-0.4,2.1-0.9,3.3-1.1c0.2,1.7,0.4,3.5,0.5,5.2   c0.4,5.2,0.4,10.5,0.2,15.8H14.4V65.1h62.7V111.6z M52.3,88.7c0.2,0,0.4,0,0.6,0.1C52.7,88.8,52.5,88.7,52.3,88.7z M77.1,58.6H14.4   V12.2h62.7V58.6z M200.5,111.6H83.7v-6.3c0.2,0,0.4,0,0.5-0.1c5.2-0.8,10.5-1.3,15.8-1.3c5.1,0,10,0.9,15.1,1.5   c9.9,1.2,19.7,2.7,29.6,3.4c9.5,0.7,19,0.1,28.4-0.9c4.7-0.5,9.4-1.1,14.2-1.6c4.4-0.5,8.9-0.7,13.3-1.4V111.6z M93.8,103.1   C93.8,103.1,93.8,103.1,93.8,103.1C93.8,103.1,93.9,103.1,93.8,103.1C93.8,103.1,93.8,103.1,93.8,103.1z M128.9,106.9   C128.9,106.9,129,106.9,128.9,106.9L128.9,106.9C129,106.9,128.9,106.9,128.9,106.9z M186.6,106.1   C186.6,106.1,186.6,106.1,186.6,106.1C186.6,106.1,186.6,106.1,186.6,106.1L186.6,106.1z M200.5,100.5c-1.7,0.4-9.9,2.5-10.7,2.6   c-3.8,0.7-7.6,1.1-11.4,1.3c-10,0.5-19.9-1.1-29.8-2.5c-9.9-1.4-19.8-2.7-29.8-3c-10-0.3-20.1,0.7-29.9,2.5c-1.5,0.3-3,0.6-4.4,0.9   c-0.3,0.1-0.5,0.1-0.8,0.2v-5.6c6.6-0.2,13.1-0.6,19.7-1.1c5-0.4,10-0.8,15-1.1c9.6-0.6,19.1,1.5,28.4,3.4   c4.1,0.9,8.7,2.2,12.9,2.3c4.9,0.1,9.9-0.4,14.8-0.9c8.8-0.9,17.5-2.4,26-4.6V100.5z M87,92.8C87,92.8,87,92.8,87,92.8   C87,92.8,87,92.8,87,92.8C87,92.8,87,92.7,87,92.8C87,92.8,87,92.8,87,92.8C87,92.8,87,92.8,87,92.8C87,92.8,87,92.8,87,92.8z    M98.3,95.9L98.3,95.9C98.3,95.9,98.3,95.9,98.3,95.9C98.3,95.9,98.3,95.9,98.3,95.9z M124.2,92.8L124.2,92.8   C124.2,92.7,124.2,92.7,124.2,92.8C124.2,92.8,124.2,92.8,124.2,92.8z M128.9,94.3C128.9,94.3,128.9,94.3,128.9,94.3L128.9,94.3   C128.9,94.3,128.9,94.3,128.9,94.3C128.9,94.3,128.9,94.3,128.9,94.3z M136,95.1C136,95.1,136,95.1,136,95.1   C136,95.1,136,95.1,136,95.1C136,95.1,136,95.1,136,95.1z M152.5,92.4c0.1,0,0.2,0.2,0,0.2C152.6,92.5,152.5,92.4,152.5,92.4z    M200.5,92c-4.9,1.4-10,2.5-15.1,3.1c-8.6,1-17,0-25.4-1.7c-8.7-1.8-17.3-4.5-26.2-4.5c-1.1,0-2.2,0-3.2,0.1   c-2,0.2-3.9,0.4-5.8,0.8c-4.4,0.9-8.7,2.4-13.2,3c-9.1,1.2-18.9,0.2-28-1.3V12.2h116.9V92z"></path>
	
		<ellipse transform="matrix(0.9871 -0.1602 0.1602 0.9871 -4.4358 27.8657)" class="st1" cx="170.6" cy="41.4" rx="14.8" ry="14.8"></ellipse>
	<g>
		<path class="st2" d="M32.7,29.6c3,0,4.6-1,6.8-2.5c0.7-0.5,1.4-0.8,1.9-0.8c-0.3,1.2,0.1,1.9,0.5,2.3c1.1,1.2,3.4,1.1,4.9,0.5    c0.6-0.3,1.3-0.7,2-1.1c1.2-0.8,2.5-1.6,3.7-1.7c-0.1,0.1-0.1,0.2-0.2,0.4c-0.3,0.7-0.3,1.3,0.1,1.9c0.6,0.9,1.9,1.4,2.8,1.5    c0,0,0.1,0,0.1,0c1.1,0,2.2-0.4,3.2-1.2c0.3-0.2,0.3-0.6,0.1-0.9c-0.2-0.3-0.6-0.3-0.9-0.1c-0.8,0.6-1.6,1-2.5,0.9    c-0.7,0-1.5-0.4-1.8-0.8c-0.1-0.2-0.1-0.4,0-0.7c0.1-0.2,0.3-0.5,0.5-0.7c0.1-0.1,0.2-0.2,0.3-0.4c0.1-0.2,0.1-0.4,0.1-0.6    c-0.1-0.2-0.2-0.3-0.4-0.4c-2-0.7-4,0.6-5.8,1.7c-0.7,0.4-1.3,0.8-1.8,1.1c-1.2,0.5-2.8,0.5-3.4-0.2c-0.3-0.3-0.3-0.9,0-1.5    c0.1-0.3,0.1-0.6-0.2-0.8c-1.3-0.9-3.1,0.2-3.9,0.7c-2,1.4-3.4,2.2-6.1,2.3c-0.4,0-0.7,0.3-0.6,0.7C32.1,29.3,32.3,29.6,32.7,29.6    z"></path>
		<path class="st2" d="M28.6,38c2.1-0.3,3.6-1.3,5.1-2.4c0.7-0.5,1.4-0.8,1.9-1c-0.1,0.7,0.2,1.5,0.7,2.1c1.4,1.5,3.7,1.4,6.3-0.2    c0.3-0.2,0.5-0.3,0.8-0.5c1.1-0.7,2.2-1.4,3.4-1.5c-0.1,1.2,0.1,3.2,1.6,3.6c0.2,0,0.4,0.1,0.6,0.1c0.5,0,1-0.1,1.5-0.3    c1.2-0.4,2.3-0.9,3.4-1.5c0.2-0.1,0.4-0.3,0.7-0.4c0.8-0.5,1.8-1.2,2.7-1.3c-0.2,1.1,0.2,1.8,0.5,2.1c1.1,1.2,3.4,1.4,4.8,0.8    c0.3-0.1,0.5-0.5,0.4-0.8c-0.1-0.3-0.5-0.5-0.8-0.4c-1.2,0.4-2.8,0.2-3.4-0.4c-0.1-0.1-0.5-0.6,0-1.6c0.1-0.2,0.1-0.4,0-0.6    c-0.1-0.2-0.3-0.3-0.5-0.4c-1.6-0.3-3.2,0.7-4.5,1.5c-0.2,0.1-0.4,0.3-0.6,0.4c-1,0.6-2,1.1-3.1,1.4c-0.5,0.2-0.9,0.3-1.3,0.2    c0,0-0.2,0-0.3-0.3c-0.3-0.6-0.3-1.7-0.2-2.1c0.1-0.1,0.2-0.2,0.2-0.4c0.1-0.4-0.2-0.7-0.5-0.8c-2-0.3-3.6,0.8-5.1,1.7    c-0.3,0.2-0.5,0.3-0.8,0.5c-0.7,0.5-3.3,1.8-4.6,0.4c-0.2-0.3-0.4-0.7-0.3-1c0-0.1,0.1-0.2,0.2-0.3c0.2-0.1,0.4-0.4,0.4-0.7    c0-0.3-0.2-0.5-0.5-0.6c-1.1-0.3-2.5,0.1-4,1.2c-1.5,1.1-2.8,1.9-4.5,2.2c-0.4,0.1-0.6,0.4-0.6,0.7S28.2,38.1,28.6,38z"></path>
		<path class="st2" d="M58.3,44c-0.9,0.2-1.8,0.4-2.7,0.5c-0.5,0-1.8-0.1-2.2-0.8c-0.1-0.2-0.2-0.6-0.1-0.9c0.1-0.2,0.1-0.3,0.3-0.3    c0.2-0.1,0.4-0.4,0.4-0.6c0-0.3-0.2-0.5-0.5-0.6c-1.4-0.4-2.9,0.1-4.7,1.4c-0.2,0.1-0.4,0.3-0.6,0.4c-1.1,0.9-2.3,1.8-3.6,1.8    c0,0,0,0,0,0c-0.8,0-1.3-0.3-1.6-0.7c-0.2-0.5-0.1-1.2,0.4-1.8c0.1-0.2,0.2-0.4,0.1-0.6c-0.1-0.2-0.3-0.4-0.5-0.4    c-1.6-0.3-3.4,0.7-4.5,1.4c-0.3,0.1-0.5,0.3-0.8,0.5c-1.5,0.9-3.3,2.1-4.8,1.6c-0.3-0.1-0.7,0.1-0.8,0.4c-0.1,0.3,0.1,0.7,0.4,0.8    c0.4,0.1,0.7,0.1,1.1,0.1c1.7,0,3.4-1.1,4.8-1.9c0.3-0.2,0.5-0.3,0.8-0.5c0.7-0.4,1.7-1,2.6-1.2c-0.3,0.7-0.2,1.5,0.1,2.1    c0.5,0.9,1.5,1.4,2.7,1.4c0,0,0,0,0,0c1.8,0,3.2-1.1,4.4-2c0.2-0.1,0.4-0.3,0.6-0.4c0.9-0.7,1.7-1.1,2.4-1.2    c-0.2,0.6-0.1,1.3,0.2,1.8c0.5,1,1.7,1.5,3.4,1.5c1,0,2-0.3,3-0.5c0.4-0.1,0.6-0.4,0.5-0.8C59.1,44.2,58.7,43.9,58.3,44z"></path>
	</g>
	<path class="st3" d="M125.2,83C125.2,83,125.2,83,125.2,83C125.2,83,125.2,83,125.2,83z"></path>
	<path class="st3" d="M145.8,81.8C145.8,81.8,145.7,81.7,145.8,81.8C145.7,81.8,145.7,81.8,145.8,81.8   C145.7,81.9,145.8,81.8,145.8,81.8z"></path>
	<path class="st3" d="M163.4,85.3C163.4,85.3,163.4,85.3,163.4,85.3C163.4,85.3,163.4,85.3,163.4,85.3   C163.4,85.3,163.4,85.3,163.4,85.3z"></path>
	<path class="st3" d="M112.1,89.2L112.1,89.2C112,89.3,112.1,89.3,112.1,89.2C112.1,89.3,112.1,89.3,112.1,89.2z"></path>
	<path class="st3" d="M107,93.1C107,93.1,107,93.1,107,93.1C107,93.1,107,93.1,107,93.1L107,93.1z"></path>
	<path class="st3" d="M150.9,91.2C150.9,91.2,150.9,91.2,150.9,91.2L150.9,91.2L150.9,91.2z"></path>
	<path class="st3" d="M159.1,92.8C159.1,92.8,159.1,92.8,159.1,92.8L159.1,92.8C159.1,92.8,159.1,92.8,159.1,92.8z"></path>
	<path class="st3" d="M168.9,94.4c-0.1,0-0.2,0.1-0.3,0.1C168.7,94.5,168.8,94.5,168.9,94.4z"></path>
	<path class="st3" d="M110.1,104.8c0.1,0,0.1,0,0.2-0.1c0,0,0,0,0,0C110.2,104.8,110.2,104.8,110.1,104.8z"></path>
</g>
</svg>
