<?xml version="1.0" encoding="UTF-8"?>
<!-- Generator: Adobe Illustrator 28.0.0, SVG Export Plug-In . SVG Version: 6.00 Build 0)  -->
<svg xmlns="http://www.w3.org/2000/svg" xmlns:xlink="http://www.w3.org/1999/xlink" version="1.1" id="Lager_1" x="0px" y="0px" viewBox="0 0 109.5 83.1" style="enable-background:new 0 0 109.5 83.1;" xml:space="preserve">
<style type="text/css">
	.st0{fill:none;stroke:#FFFFFF;stroke-width:2;stroke-linecap:round;stroke-linejoin:round;stroke-miterlimit:10;}
</style>
<g>
	<rect x="34.6" y="37.7" class="st0" width="31.5" height="7.8"></rect>
	<polyline class="st0" points="26.6,37.7 26.6,27.1 26.6,21.7 34.6,21.7 34.6,37.7  "></polyline>
	<polyline class="st0" points="26.6,45.4 26.6,56 26.6,61.4 34.6,61.4 34.6,45.4  "></polyline>
	<rect x="18.9" y="27.1" class="st0" width="7.7" height="28.9"></rect>
	
		<rect x="11.1" y="33.3" transform="matrix(-1 -1.224647e-16 1.224647e-16 -1 30.0351 83.1069)" class="st0" width="7.7" height="16.5"></rect>
	<rect x="42.7" y="37.7" class="st0" width="32.1" height="7.8"></rect>
	<polyline class="st0" points="82.8,45.4 82.8,56 82.8,61.4 74.9,61.4 74.9,45.4  "></polyline>
	<polyline class="st0" points="82.8,37.7 82.8,27.1 82.8,21.7 74.9,21.7 74.9,37.7  "></polyline>
	<rect x="82.8" y="27.1" class="st0" width="7.7" height="28.9"></rect>
	<rect x="90.6" y="33.3" class="st0" width="7.7" height="16.5"></rect>
</g>
</svg>
