<?xml version="1.0" encoding="UTF-8"?>
<!-- Generator: Adobe Illustrator 28.0.0, SVG Export Plug-In . SVG Version: 6.00 Build 0)  -->
<svg xmlns="http://www.w3.org/2000/svg" xmlns:xlink="http://www.w3.org/1999/xlink" version="1.1" id="Lager_1" x="0px" y="0px" viewBox="0 0 109.5 83.1" style="enable-background:new 0 0 109.5 83.1;" xml:space="preserve">
<style type="text/css">
	.st0{fill:none;stroke:#FFFFFF;stroke-width:2;stroke-linecap:round;stroke-linejoin:round;stroke-miterlimit:10;}
</style>
<g>
	<g>
		<path class="st0" d="M97.6,29.8c-8.6,0-8.6-8-17.1-8c-8.6,0-8.6,8-17.2,8c-8.6,0-8.6-8-17.2-8c-8.6,0-8.6,8-17.2,8    c-8.6,0-8.6-8-17.2-8"></path>
	</g>
	<g>
		<path class="st0" d="M97.6,45.6c-8.6,0-8.6-8-17.1-8c-8.6,0-8.6,8-17.2,8c-8.6,0-8.6-8-17.2-8c-8.6,0-8.6,8-17.2,8s-8.6-8-17.2-8"></path>
	</g>
	<g>
		<path class="st0" d="M97.6,61.3c-8.6,0-8.6-8-17.1-8c-8.6,0-8.6,8-17.2,8c-8.6,0-8.6-8-17.2-8c-8.6,0-8.6,8-17.2,8    c-8.6,0-8.6-8-17.2-8"></path>
	</g>
</g>
</svg>
