<?xml version="1.0" encoding="UTF-8"?>
<!-- Generator: Adobe Illustrator 28.0.0, SVG Export Plug-In . SVG Version: 6.00 Build 0)  -->
<svg xmlns="http://www.w3.org/2000/svg" xmlns:xlink="http://www.w3.org/1999/xlink" version="1.1" id="Lager_1" x="0px" y="0px" viewBox="0 0 1080 1080" style="enable-background:new 0 0 1080 1080;" xml:space="preserve">
<style type="text/css">
	.st0{fill:#99C2D4;}
</style>
<path class="st0" d="M799.4,613.7c0,0,0,0.1,0,0.3C799.4,613.9,799.4,613.7,799.4,613.7z"></path>
<path class="st0" d="M391.4,884.8l-16.6-9.2c-2-1.1-3.6-0.7-4.7,1.3l-14.3,25.5c0,0.1-0.2,0.4-0.6,0.9c-0.3,0.5-0.6,0.7-0.9,0.5  c-0.2-0.1-0.4-0.4-0.5-0.9c-0.1-0.5-0.1-0.8-0.1-1c-0.6-4.5-1.1-9.1-1.5-13.7c-0.5-4.6-0.9-9.1-1.5-13.7c-0.2-1.9-0.4-3.7-0.6-5.6  c-0.2-1.9-0.4-3.7-0.7-5.6c-0.3-1.2-0.8-2.1-1.7-2.6l-18.5-10.2c-0.6-0.3-1.5-0.7-2.5-1c-1-0.3-1.8,0-2.3,0.9  c-0.3,0.5-0.4,1.1-0.4,1.7c0,0.7,0,1.2,0.1,1.8c0.1,0.9,0.2,2.8,0.5,5.5c0.3,2.8,0.6,6.1,1,9.9c0.4,3.8,0.8,7.8,1.2,11.9  c0.4,4.1,0.8,7.9,1.1,11.5c0.3,3.6,0.6,6.6,0.7,8.9c0.2,2.3,0.2,3.6,0.1,3.7c-0.1,0.2-0.4,0.3-0.9,0.4c-18.2,2.2-33.3,10.2-45.5,24  c-0.3,0.4-0.6,0.7-0.7,0.9c-0.5,0.9-0.6,1.8-0.2,2.4c0.4,0.7,1,1.2,1.8,1.7l15.9,8.8c1.6,0.9,3.1,0.6,4.5-0.9  c0.8-0.9,1.6-1.8,2.4-2.6c0.8-0.9,1.6-1.7,2.5-2.6c4.6-4.3,9.7-7.6,15.2-9.9c5.5-2.2,11.5-3.2,17.9-2.8c0.2,0,0.5,0,0.7,0.2  c0.3,0.1,0.4,0.4,0.3,0.7c0,0.3-0.1,0.6-0.2,0.8c-1.8,3.2-3.6,6.4-5.3,9.7c-1.8,3.2-3.5,6.5-5.3,9.7c-0.8,1.5-1.7,3-2.6,4.6  c-0.9,1.5-1.7,3.1-2.4,4.7c-1,2.1-0.5,3.7,1.4,4.7l16.6,9.2c2,1.1,3.6,0.6,4.8-1.4c1.1-2.1,2.3-4.2,3.3-6.3c1.1-2.2,2.2-4.3,3.3-6.4  c2.4-4.4,4.7-8.9,7.1-13.3c2.4-4.4,4.8-8.8,7.2-13.2c2.4-4.4,4.9-8.8,7.3-13.2c2.5-4.4,5-8.8,7.5-13.1c1.2-2.1,2.4-4.1,3.6-6.2  c1.2-2.1,2.4-4.1,3.6-6.2C393.9,887.5,393.4,885.9,391.4,884.8z"></path>
<path class="st0" d="M296.2,830.9c0.4-0.2,0.8-0.4,1.2-0.7c0.8-0.7,0.9-1.5,0.5-2.3c-0.4-0.9-0.9-1.6-1.4-2.1l-11.8-12.8  c-0.6-0.6-1.2-1-1.7-1.1c-0.6-0.1-1.2,0-2,0.2c-0.6,0.2-1.2,0.4-1.8,0.6c-0.6,0.2-1.2,0.5-1.7,0.7c-1.3,0.5-2.7,1-4.1,1.5  c-1.4,0.5-2.7,1-4.1,1.5c-0.1,0-0.2,0.1-0.2,0.1c0,0-0.1,0.1-0.2,0.1c-0.4,0.1-0.8,0-1-0.3L250.1,797c-0.3-0.3-0.3-0.8-0.1-1.2  c0.9-1.8,1.8-3.7,2.9-5.4c1.1-1.8,2-3.6,2.8-5.5c0.3-0.8,0.5-1.5,0.4-2.1c0-0.6-0.3-1.2-0.9-1.9l-14.8-16c-0.5-0.6-1.2-1.1-2-1.6  c-0.8-0.5-1.6-0.4-2.4,0.3c-0.4,0.3-0.6,0.7-0.8,1.1c-0.2,0.4-0.4,0.8-0.5,1.3c-3.5,8.8-7.1,17.6-10.6,26.4  c-3.6,8.8-7.2,17.5-10.9,26.3c-3,7.2-6.1,14.4-9.2,21.5c-3.1,7.2-6.1,14.4-9,21.6c-0.2,0.4-0.1,0.8,0.2,1.1c0.3,0.3,0.6,0.4,1.1,0.3  c7.5-2.2,14.9-4.6,22.3-7.2c7.4-2.5,14.8-5,22.2-7.5c9-3,18-5.9,27-8.8c9-2.9,18.1-5.7,27.2-8.5C295.3,831.2,295.8,831,296.2,830.9z   M240,827.7c-3.1,1.2-6.1,2.4-9.1,3.6c1.5-2.8,3-5.6,4.6-8.5c1.5-2.9,3.1-5.7,4.6-8.5l9.1,9.9C246.2,825.3,243.1,826.5,240,827.7z"></path>
<path class="st0" d="M208.6,735.3c2.3-0.9,4.6-1.9,6.8-3c2.2-1,2.8-2.5,1.8-4.7l-7.7-16.9c-1-2.1-2.5-2.6-4.5-1.7l-20.8,9.2  c-0.7,0.3-1.2,0.1-1.5-0.5l-5.9-12.9c-3-6.5-6.8-11.9-11.6-16c-4.8-4.1-10.2-6.6-16.3-7.4c-6.1-0.9-12.5,0.2-19.4,3.4  c-5.7,2.6-10.1,5.9-13,9.8c-3,4-4.8,8.4-5.6,13.2c-0.8,4.8-0.6,9.8,0.4,15c1,5.2,2.7,10.3,4.9,15.3l13.3,29.4c1,2.1,2.5,2.7,4.7,1.7  c2.2-1,4.5-2.1,6.7-3.2c2.2-1.1,4.4-2.2,6.7-3.2c4.5-2.1,8.9-4.2,13.4-6.3c4.5-2.1,9-4.2,13.5-6.2s9-4.1,13.6-6.1  c4.5-2,9.1-4,13.6-6C204,737.2,206.3,736.3,208.6,735.3z M151.8,733c-3.7,1.7-7.3,3.4-11,5.1l-5.7-12.6c-1.3-2.8-1.7-5.7-1.3-8.5  c0.4-2.9,1.8-5.4,4.2-7.5c0.3-0.3,0.8-0.7,1.3-1.1c0.6-0.4,1-0.7,1.4-0.9c2.2-1,4.5-1.3,6.6-0.7c2.2,0.5,4.1,1.6,5.8,3.2  c1.7,1.6,3,3.4,4,5.4l5.7,12.6C159.1,729.6,155.4,731.3,151.8,733z"></path>
<path class="st0" d="M129.4,628.1c5-0.6,10-1.2,15-1.8c5-0.6,10-1.2,15.1-1.7c2.4-0.2,4.8-0.5,7.1-0.7c2.4-0.2,4.8-0.5,7.1-0.8  c2.3-0.3,3.3-1.6,3-3.9l-7.4-58.4c-0.3-2.3-1.6-3.3-4-3c-2.4,0.3-4.9,0.7-7.6,1c-2.7,0.4-5.2,0.8-7.6,1.2c-2.2,0.4-3.2,1.7-2.9,3.8  l4.5,35c0.1,0.8-0.2,1.2-0.9,1.3l-13.8,1.7c-0.7,0.1-1.1-0.2-1.2-0.9l-3.6-28.4c-0.3-2.3-1.6-3.3-3.9-3l-12.8,1.6  c-2.3,0.3-3.3,1.6-3,3.9l3.6,28.4c0.1,0.7-0.2,1.1-0.9,1.2l-13.3,1.8c-0.7,0.1-1.1-0.2-1.2-1l-4.3-33.4c-0.3-2.2-1.6-3.2-3.8-3  c-1.1,0-2.2,0.2-3.3,0.3c-1.1,0.2-2.2,0.3-3.3,0.4c-1.4,0.1-2.9,0.3-4.3,0.4c-1.4,0.1-2.9,0.3-4.3,0.5c-2.4,0.3-3.4,1.6-3.1,3.9  l7.2,56.8c0.3,2.3,1.6,3.3,3.9,3c2.4-0.3,4.7-0.6,7.1-1c2.4-0.4,4.7-0.7,7.1-1.1c5-0.7,10-1.4,15-2.1  C119.4,629.3,124.4,628.7,129.4,628.1z"></path>
<path class="st0" d="M78.4,504.2c2.4,0.4,4.7,0.7,7.1,1c2.4,0.3,4.8,0.6,7.1,0.9c5,0.7,10,1.4,14.9,2.1c5,0.7,10,1.5,14.9,2.2  c5,0.8,9.9,1.6,14.9,2.4c5,0.8,10,1.7,15,2.5c2.3,0.4,4.7,0.8,7.1,1.3c2.4,0.4,4.7,0.8,7.1,1.2c2.3,0.4,3.6-0.6,4-2.9l8.6-55.7  c0.4-2.3-0.6-3.6-3-4c-1.5-0.2-3.1-0.5-4.7-0.6c-1.6-0.2-3.1-0.4-4.6-0.6c-1-0.1-2-0.3-3-0.5c-1-0.2-2-0.3-2.9-0.4  c-1.2-0.1-2.1,0.1-2.7,0.5c-0.6,0.4-1,1.2-1.2,2.5l-5,32.4c-0.1,0.7-0.5,1-1.2,0.9l-20-3.1c-8.1-1.2-16.2-2.5-24.2-3.7  c-8.1-1.2-16.2-2.5-24.2-3.7c-2.3-0.3-3.6,0.6-3.9,2.9l-2.9,18.5C75.2,502.6,76.1,503.9,78.4,504.2z"></path>
<path class="st0" d="M106.9,379.8c2.2,1,4.4,2,6.6,2.9c2.2,0.9,4.4,1.9,6.6,2.8c4.6,2,9.2,4,13.8,6.1c4.6,2,9.2,4.1,13.8,6.2  c4.6,2.1,9.1,4.2,13.7,6.3s9.1,4.3,13.7,6.5c2.2,1,4.3,2.1,6.5,3.1c2.2,1.1,4.3,2.1,6.5,3.1c2.1,1,3.7,0.4,4.6-1.7l23.4-51.2  c1-2.1,0.4-3.7-1.8-4.7c-1.4-0.7-2.9-1.3-4.3-1.9c-1.5-0.6-2.9-1.2-4.3-1.8c-0.9-0.4-1.8-0.8-2.7-1.2c-0.9-0.5-1.8-0.8-2.7-1.2  c-1.1-0.4-2-0.5-2.7-0.3c-0.7,0.2-1.3,0.9-1.9,2L182,384.7c-0.3,0.7-0.8,0.8-1.4,0.5l-18.5-8.4c-7.4-3.4-14.9-6.8-22.3-10.2  c-7.5-3.4-14.9-6.8-22.3-10.2c-2.1-0.9-3.6-0.4-4.5,1.7l-7.8,17C104.2,377.3,104.8,378.8,106.9,379.8z"></path>
<path class="st0" d="M173.5,271.7c1.9,1.5,3.7,3.1,5.6,4.7c3.7,3.1,7.3,6.3,10.9,9.5c3.6,3.2,7.2,6.4,10.9,9.6  c1.6,1.4,3.2,2.9,4.8,4.3c1.6,1.5,3.2,2.9,4.8,4.3c6,5.4,12.2,8.6,18.6,9.8c6.4,1.2,12.6,0.5,18.7-2.1s11.7-6.7,16.9-12.5  c4.8-5.4,8.1-11.4,9.8-17.9c1.7-6.5,1.7-13-0.1-19.5c-1.7-6.4-5.4-12.1-10.9-17.1c-1.4-1.3-2.9-2.6-4.3-3.8  c-1.5-1.2-2.9-2.5-4.3-3.8c-3.8-3.4-7.6-6.8-11.3-10.2c-3.8-3.4-7.5-6.9-11.2-10.2c-1.7-1.7-3.5-3.3-5.2-5c-1.8-1.7-3.5-3.3-5.3-4.9  c-1.8-1.6-3.4-1.5-5,0.2l-12.2,13.6c-0.8,0.9-1.2,1.8-1.1,2.5c0.1,0.7,0.6,1.5,1.3,2.4c0.5,0.5,1,1.1,1.7,1.6  c0.7,0.5,1.2,1.1,1.8,1.6l7.1,6.3c3.9,3.5,7.8,7.1,11.7,10.6c3.9,3.5,7.8,7,11.8,10.5l7.7,6.9c3.7,3.3,5.7,6.8,5.8,10.5  c0.2,3.7-1.4,7.3-4.7,11c-3.1,3.5-6.5,5.2-10.2,5c-3.7-0.2-7.2-1.7-10.5-4.5c-1.3-1.1-2.6-2.2-3.9-3.4c-1.3-1.2-2.5-2.3-3.8-3.5  c-3.9-3.5-7.9-7-11.8-10.5c-4-3.5-7.9-7-11.8-10.5l-7.1-6.3c-0.6-0.5-1.2-1-1.8-1.6c-0.6-0.6-1.2-1.1-1.8-1.5c-1-0.7-1.8-1-2.5-1.1  c-0.7,0-1.5,0.4-2.4,1.4l-12.4,13.9c-1.5,1.7-1.4,3.4,0.4,4.9C169.8,268.6,171.7,270.2,173.5,271.7z"></path>
<path class="st0" d="M280.1,168.5c1.2,2,2.4,4,3.6,6c2.6,4.4,5.1,8.8,7.7,13.2c2.6,4.4,5.1,8.8,7.6,13.2c2.5,4.5,5,8.9,7.5,13.4  c2.5,4.5,4.9,8.9,7.3,13.4c1.1,2.1,2.2,4.1,3.2,6.2c1.1,2.1,2.2,4.1,3.3,6.1c1.2,2.1,2.8,2.6,4.8,1.4l28.8-16.3  c8-4.5,14.4-10.2,19-17.1c4.7-6.9,7.2-14.4,7.6-22.5c0.4-8.1-1.8-16.4-6.4-24.7c-5.5-9.7-12-16.6-19.7-20.8  c-7.6-4.2-15.9-6-24.8-5.2c-8.9,0.8-17.9,3.7-27.2,9l-24.7,14c-2,1.1-2.4,2.7-1.2,4.8C277.7,164.5,278.8,166.5,280.1,168.5z   M318.4,160c4.8-2.7,9.2-3.8,13.2-3.4c4,0.5,7.5,2.1,10.7,5c3.2,2.8,5.9,6.4,8.4,10.7c4.3,7.6,5.4,14.4,3.2,20.2  c-2.2,5.9-6.9,10.9-14.3,15.1l-6.1,3.4c-8.4-15.1-16.9-30.1-25.5-45.1L318.4,160z"></path>
<path class="st0" d="M418,103.9c0.5,2.3,1,4.5,1.5,6.8c1,5,2,10,2.9,15c1,5,1.9,10,2.8,15c0.9,5,1.8,10.1,2.7,15.1  c0.9,5,1.7,10,2.5,15c0.4,2.3,0.7,4.6,1,6.9c0.3,2.3,0.7,4.6,1.1,6.9c0.4,2.3,1.8,3.3,4,2.9l32.6-5.9c9.1-1.7,16.9-5,23.6-9.9  c6.7-5,11.5-11.2,14.6-18.8c3.1-7.6,3.7-16,2-25.4c-2-10.9-5.9-19.6-11.7-26.1c-5.8-6.5-13.1-10.9-21.7-13.1  c-8.7-2.2-18.2-2.4-28.6-0.5l-27.9,5.1c-2.2,0.4-3.2,1.8-2.7,4.1C417,99.4,417.5,101.6,418,103.9z M457,108.5c5.4-1,10-0.6,13.5,1.1  c3.6,1.8,6.4,4.5,8.4,8.2c2,3.7,3.5,8,4.4,12.9c1.6,8.6,0.4,15.3-3.6,20.2c-4,4.8-10.1,8-18.4,9.5l-6.9,1.2c-3-17-6-34-9.2-51  L457,108.5z"></path>
<path class="st0" d="M559.8,174.6l58.4,7.1c2.3,0.3,3.6-0.8,3.9-3.1c0.3-2.4,0.6-5,0.9-7.6c0.3-2.7,0.5-5.2,0.7-7.7  c0.1-2.2-0.9-3.5-3-3.8l-35-4.2c-0.8-0.1-1.1-0.5-1-1.2l1.7-13.8c0.1-0.7,0.5-1,1.2-0.9l28.4,3.5c2.3,0.3,3.6-0.7,3.9-3.1l1.5-12.8  c0.3-2.3-0.7-3.6-3-3.9l-28.4-3.5c-0.7-0.1-1-0.5-0.9-1.2l1.5-13.3c0.1-0.7,0.5-1,1.3-0.9l33.5,4c2.2,0.3,3.5-0.7,3.9-3  c0.2-1.1,0.4-2.2,0.5-3.3c0.1-1.1,0.2-2.2,0.4-3.3c0.2-1.4,0.4-2.8,0.7-4.3c0.2-1.4,0.4-2.8,0.6-4.3c0.3-2.4-0.7-3.7-3.1-4  l-56.9-6.9c-2.3-0.3-3.5,0.7-3.8,3.1c-0.3,2.4-0.5,4.8-0.8,7.1c-0.2,2.4-0.5,4.8-0.7,7.1c-0.5,5-1.1,10-1.6,15s-1.1,10-1.8,15  c-0.6,5-1.2,10-1.9,15c-0.7,5-1.3,10-2,15c-0.3,2.4-0.7,4.7-1,7.1c-0.4,2.4-0.7,4.8-1,7.1C556.5,173.1,557.5,174.4,559.8,174.6z"></path>
<path class="st0" d="M662.1,193.3l17.3,8.2c2.1,1,3.6,0.4,4.6-1.6l4.9-10.3c2.2-4.7,4.4-9.4,6.6-14.1c2.2-4.7,4.4-9.4,6.6-14.1  c0.1-0.2,0.2-0.5,0.5-0.8c0.2-0.3,0.5-0.4,0.8-0.3c0.2,0.1,0.3,0.2,0.4,0.5c0.1,0.2,0.2,0.4,0.3,0.6c0.4,1,1.3,2.9,2.7,5.9  c1.4,3,3,6.6,4.9,10.9c1.9,4.2,3.9,8.8,6.1,13.6c2.2,4.8,4.3,9.6,6.5,14.2c2.1,4.7,4.1,8.9,5.9,12.8c1.8,3.8,3.2,7,4.4,9.3  c1.1,2.4,1.8,3.6,2,3.7c0.2,0.1,0.4,0,0.5-0.2c1.2-2.5,2.3-5,3.4-7.5c1.1-2.5,2.1-5,3.2-7.5c4.7-10.5,9.5-20.9,14.4-31.3  c2.2-4.5,4.3-9,6.5-13.5c2.2-4.5,4.4-9,6.7-13.5c1.1-2.1,2.1-4.3,3.2-6.4c1.1-2.1,2.2-4.3,3.2-6.4c1-2.1,0.5-3.7-1.6-4.7l-17-8.1  c-2.1-1-3.6-0.4-4.6,1.6c-3.1,6.6-6.3,13.2-9.4,19.8c-3.1,6.6-6.2,13.2-9.4,19.8c-0.1,0.2-0.2,0.4-0.4,0.8c-0.2,0.3-0.5,0.4-0.8,0.3  c-0.2-0.1-0.3-0.2-0.4-0.4c-0.1-0.2-0.2-0.5-0.3-0.6c-5.2-11.8-10.3-23.7-15.3-35.5c-5-11.9-10.3-23.6-15.8-35.2  c-0.2-0.3-0.4-0.6-0.6-0.7c-0.3-0.1-0.5-0.1-0.7,0.2c-1.2,2.5-2.3,5-3.3,7.5c-1,2.5-2.1,5-3.3,7.5c-4.6,10.4-9.4,20.8-14.3,31.2  c-2.2,4.5-4.3,9-6.5,13.5c-2.2,4.5-4.4,9-6.7,13.5c-1,2.1-2.1,4.2-3.2,6.3c-1.1,2.1-2.2,4.3-3.2,6.4  C659.6,190.8,660.1,192.3,662.1,193.3z"></path>
<path class="st0" d="M864.5,366.9c2.3,2.7,4.8,5.1,7.6,7.2c2.7,2.2,5.4,3.7,8,4.7c1,0.3,1.8,0.3,2.5-0.1c0.3-0.2,0.9-0.9,1.7-2.1  c0.9-1.3,1.9-2.7,2.9-4.4c1.1-1.7,2-3.2,2.9-4.6c0.9-1.4,1.5-2.3,1.7-2.8c0.4-0.6,0.7-1.2,1-1.9c0.3-0.7,0.2-1.4-0.2-2  c-0.3-0.5-0.7-0.9-1.2-1.2c-0.5-0.3-1-0.5-1.5-0.8c-2.3-1.1-4.4-2.5-6.3-4.1c-1.9-1.6-3.5-3.5-4.9-5.7c-2.8-4.5-3.9-8.8-3.5-13  c0.4-4.2,2-8.1,4.6-11.6c2.7-3.5,6-6.6,10.1-9.1c3.6-2.2,7.6-3.7,11.9-4.4c4.3-0.7,8.4-0.3,12.4,1c3.9,1.4,7.1,4.1,9.6,8.1  c1.3,2.2,2,4.4,2.2,6.8c0.1,2.4,0.1,4.5,0,6.4c-0.1,1.9,0,3.2,0.5,3.9c0.4,0.6,0.9,1,1.5,1c0.6,0,1.2,0,1.9,0  c0.5-0.1,1.7-0.2,3.5-0.5s3.8-0.5,6-0.9c2.2-0.4,4.1-0.7,5.7-1c1.7-0.3,2.6-0.5,2.9-0.7c0.5-0.3,0.9-0.7,1-1.2  c0.2-0.5,0.2-1,0.3-1.6c0.1-4.3-0.7-9-2.4-14c-1.7-5-3.7-9.3-5.9-12.9c-5-8.2-11.1-14-18.2-17.4c-7.1-3.4-14.7-4.7-22.7-3.8  c-8,0.9-15.9,3.8-23.8,8.6c-8.2,5.1-14.5,11.1-19,18.3c-4.4,7.1-6.6,14.8-6.5,23c0.1,8.2,2.7,16.6,7.9,25.1  C860.3,361.8,862.2,364.3,864.5,366.9z"></path>
<path class="st0" d="M893.9,414c-0.4-0.1-0.9-0.2-1.3-0.2c-0.5-0.1-0.9-0.1-1.4,0.1c-1,0.2-1.5,0.8-1.6,1.8c0,0.9,0,1.8,0.2,2.5  l4,16.9c0.2,0.8,0.5,1.4,1,1.8c0.5,0.3,1.1,0.6,1.9,0.8c0.6,0.1,1.2,0.2,1.8,0.3c0.6,0.1,1.2,0.2,1.8,0.2c1.4,0.2,2.9,0.4,4.3,0.7  c1.4,0.2,2.9,0.5,4.3,0.7c0.1,0,0.2,0,0.2,0c0.1,0,0.1,0,0.2,0c0.4,0.1,0.7,0.4,0.7,0.8l6.1,25.4c0.1,0.4,0,0.8-0.5,1.1  c-1.7,1.2-3.4,2.3-5.2,3.3c-1.8,1-3.5,2.2-5.1,3.4c-0.7,0.5-1.1,1.1-1.4,1.6c-0.3,0.5-0.3,1.2-0.1,2.1l5.1,21.2  c0.2,0.8,0.5,1.5,1,2.4c0.5,0.8,1.2,1.1,2.2,0.9c0.5-0.1,0.9-0.3,1.3-0.5s0.7-0.5,1.1-0.8c7.4-6,14.8-11.9,22.2-17.8  s14.8-11.8,22.3-17.7c6.1-4.8,12.3-9.6,18.6-14.3c6.2-4.7,12.4-9.6,18.4-14.5c0.4-0.3,0.5-0.6,0.4-1.1c-0.1-0.4-0.4-0.7-0.8-0.8  c-7.6-1.7-15.3-3.2-23-4.6c-7.7-1.4-15.4-2.8-23-4.3c-9.3-1.8-18.6-3.6-27.9-5.5C912.5,417.9,903.2,415.9,893.9,414z M940.1,443.9  c3.2,0.4,6.5,0.9,9.7,1.3c-2.7,1.7-5.4,3.4-8.1,5.2c-2.7,1.7-5.4,3.5-8.2,5.2l-3.1-13C933.6,443,936.8,443.4,940.1,443.9z"></path>
<path class="st0" d="M1004.2,549.1c-1.4-0.3-2.3-0.5-2.8-0.5l-1.2-0.1c-13.5-1.2-26.9-2.5-40.4-4c-4.9-0.6-9.7-1.2-14.5-1.8  c-4.8-0.6-9.6-1.3-14.5-1.9c-2.4-0.3-4.8-0.7-7.2-1.1c-2.4-0.4-4.8-0.7-7.2-1c-2.4-0.3-3.7,0.7-3.9,3l-2,17.7  c-0.2,1.2,0,2.1,0.5,2.6s1.3,0.9,2.4,1.2c1.2,0.3,2.4,0.5,3.8,0.6c1.3,0.1,2.6,0.2,3.9,0.3c2.5,0.3,5.1,0.7,7.6,1  c2.6,0.3,5.1,0.7,7.7,0.9c0.1,0,0.4,0.1,1.1,0.2c0.6,0.1,0.9,0.3,0.9,0.7c0,0.3-0.3,0.5-0.7,0.8c-0.4,0.2-0.7,0.4-0.9,0.5  c-5.8,3-11.7,6-17.6,8.8c-5.9,2.8-11.8,5.7-17.7,8.7l0,0.3c5.6,4.2,11.2,8.3,16.8,12.4c5.6,4.1,11.2,8.2,16.7,12.4  c0.1,0.1,0.4,0.3,0.9,0.7c0.5,0.4,0.7,0.7,0.6,1c0,0.3-0.4,0.5-1.1,0.4c-0.7,0-1.1-0.1-1.2-0.1c-3-0.3-6.1-0.6-9.2-1  c-3.1-0.4-6.2-0.7-9.2-1c-1.3-0.1-2.6-0.3-3.9-0.5c-1.3-0.2-2.6-0.3-3.8-0.3c-1.1,0-2,0.2-2.6,0.6c-0.6,0.4-1,1.2-1.1,2.4l-2.1,18.6  c-0.3,2.3,0.8,3.5,3.2,3.8c2.4,0.3,4.9,0.5,7.3,0.7c2.4,0.2,4.9,0.4,7.3,0.6c4.9,0.5,9.8,1,14.7,1.5c4.9,0.5,9.7,1,14.6,1.6  c8.5,1,17,2,25.5,3.2c8.5,1.1,17,2.3,25.4,3.6l0-0.3c-6.7-6.4-13.5-12.8-20.4-19.1s-13.8-12.6-20.8-18.9c-3.3-3-6.6-5.9-9.9-8.8  s-6.6-5.9-9.9-9c-0.4-0.4-0.5-0.7-0.5-0.9c0-0.3,0.3-0.6,0.7-0.9c2.3-1.3,4.7-2.5,7-3.8c2.3-1.2,4.7-2.5,7.1-3.8  c5.4-2.9,10.8-5.8,16.1-8.7c5.3-2.9,10.7-5.8,16.1-8.8c2.6-1.4,5.3-2.9,8-4.4c2.7-1.4,5.3-2.9,7.9-4.5c0.5-0.3,1.4-0.9,2.6-1.7  c1.2-0.8,1.8-1.6,1.9-2.3C1006.3,550,1005.6,549.4,1004.2,549.1z"></path>
<path class="st0" d="M971.3,715c-2.2-1.1-4.5-2.1-6.7-3.1c-2.2-1-4.5-2-6.7-3.1c-4.5-2.1-8.9-4.2-13.4-6.4  c-4.5-2.1-8.9-4.3-13.3-6.5c-4.4-2.2-8.9-4.4-13.3-6.6c-4.4-2.2-8.8-4.5-13.2-6.7c-2.2-1.1-4.4-2.3-6.6-3.5  c-2.2-1.2-4.4-2.3-6.6-3.4c-2.1-1-3.7-0.5-4.8,1.6l-8.2,16.7c-1,2.1-0.5,3.6,1.6,4.6l20.3,10.2c0.7,0.3,0.9,0.8,0.6,1.5l-6.2,12.7  c-3.2,6.4-4.8,12.8-5,19.1c-0.1,6.3,1.4,12.1,4.6,17.3s8.2,9.5,14.9,12.8c5.6,2.8,10.9,4.1,15.9,3.8c4.9-0.2,9.5-1.6,13.7-4  c4.2-2.5,8-5.8,11.3-9.8c3.3-4.1,6.2-8.6,8.7-13.5l14.2-29C973.9,717.6,973.4,716,971.3,715z M937,742.2c-1.4,2.8-3.3,4.9-5.8,6.4  c-2.5,1.5-5.3,2-8.4,1.5c-0.4-0.1-1-0.2-1.7-0.3c-0.7-0.2-1.2-0.3-1.6-0.5c-2.2-1.1-3.8-2.6-4.8-4.7c-1-2-1.4-4.2-1.3-6.5  c0.1-2.3,0.7-4.5,1.7-6.5l6.1-12.5c3.6,1.8,7.3,3.6,10.9,5.3c3.6,1.8,7.3,3.5,10.9,5.3L937,742.2z"></path>
<path class="st0" d="M899.4,835.5c-5.6-4.8-11.3-9.6-17-14.4c-5.7-4.8-11.3-9.6-17-14.4c-5.7-4.9-11.3-9.7-16.9-14.6  c-5.6-4.9-11.2-9.8-16.8-14.6c-1.8-1.5-3.4-1.4-4.9,0.3l-12.1,14.1c-1.5,1.7-1.4,3.4,0.4,4.9c5.6,4.8,11.3,9.6,17,14.4  s11.4,9.6,17,14.5c5.6,4.8,11.2,9.7,16.8,14.6c5.6,4.9,11.2,9.8,16.8,14.6c1.8,1.5,3.4,1.4,4.9-0.3l12.1-14.1  C901.3,838.7,901.2,837,899.4,835.5z"></path>
<path class="st0" d="M834.1,900.8c-1.6-2.2-3.2-4.4-4.8-6.6c-6.6-9.2-13.1-18.6-19.6-28.2c-2.8-4.2-5.6-8.3-8.3-12.5  c-2.7-4.2-5.5-8.3-8.2-12.6c-1.3-2-2.5-4-3.8-6c-1.3-2-2.6-4-3.9-6c-1.3-2-2.9-2.3-4.8-1l-15.8,10.7c-1.9,1.3-2.2,2.9-0.9,4.8  l6.4,9.4c2.9,4.3,5.9,8.6,8.8,12.9c2.9,4.3,5.9,8.5,8.8,12.8c0.1,0.2,0.3,0.5,0.4,0.8c0.2,0.4,0.1,0.6-0.2,0.8  c-0.2,0.1-0.4,0.2-0.6,0.1c-0.2,0-0.5,0-0.7-0.1c-1-0.1-3.2-0.3-6.5-0.7c-3.3-0.4-7.2-0.8-11.9-1.3c-4.6-0.5-9.5-1.1-14.8-1.6  c-5.2-0.6-10.4-1.1-15.5-1.6c-5.1-0.5-9.8-1-14-1.4c-4.2-0.4-7.6-0.7-10.2-1c-2.6-0.2-4-0.3-4.1-0.2c-0.2,0.1-0.2,0.3-0.1,0.5  c1.5,2.3,3.1,4.5,4.7,6.7c1.6,2.2,3.2,4.4,4.9,6.6c6.6,9.3,13.2,18.8,19.7,28.3c2.8,4.2,5.6,8.3,8.4,12.5c2.7,4.2,5.5,8.4,8.2,12.6  c1.3,2,2.6,4,3.9,6.1c1.3,2,2.6,4,3.9,6c1.3,2,3,2.3,4.8,1l15.6-10.6c1.9-1.3,2.2-2.9,0.9-4.8c-4.1-6.1-8.2-12.1-12.3-18.1  c-4.1-6-8.2-12-12.3-18.1c-0.1-0.2-0.2-0.4-0.4-0.8s-0.1-0.6,0.2-0.8c0.2-0.1,0.3-0.1,0.6-0.1c0.2,0,0.5,0,0.7,0  c12.8,1.5,25.6,3.1,38.4,4.8c12.8,1.7,25.6,3.1,38.4,4.2c0.4,0,0.7-0.1,0.9-0.2c0.3-0.2,0.4-0.4,0.2-0.7  C837.3,905.2,835.7,903,834.1,900.8z"></path>
<path class="st0" d="M678.7,916c-4.1-4.8-8.9-8.5-14.4-11c-5.6-2.5-11.6-3.9-18.1-4.2c-6.5-0.3-13.1,0.5-20,2.2  c-2.3,0.6-4.9,1.5-7.9,2.8c-3,1.3-6,2.8-9.1,4.5c-3,1.7-5.8,3.6-8.3,5.6c-2.5,2-4.4,4-5.7,6c-0.5,0.8-0.7,1.8-0.4,2.8  c0.5,2,1.1,4,1.7,5.9c0.6,2,1.2,3.9,1.7,5.9c2.2,7.9,4.4,15.9,6.5,23.9c0.6,2.2,2,3,4.2,2.5l31.8-8.3c2.2-0.6,3-2,2.4-4.2l-2.4-9.2  c-0.6-2.2-2-3-4.2-2.5l-13.5,3.5c-0.7,0.2-1.2-0.1-1.4-0.8l-2.3-8.7c-0.2-0.7,0.3-1.5,1.5-2.3c1.2-0.8,2.7-1.6,4.5-2.4  c1.8-0.8,3.4-1.4,5-2c1.6-0.5,2.6-0.9,3.2-1c7.5-2,13.8-1.3,18.9,1.9c5,3.2,8.5,8.5,10.5,15.9c4.6,17.4-1.9,28.4-19.4,33  c-6.5,1.7-13,2.3-19.7,1.8c-0.8-0.1-1.5,0-1.9,0.1c-0.9,0.2-1.4,0.6-1.7,1.2c-0.2,0.6-0.4,1.3-0.5,2c0,0.4-0.1,1.5-0.2,3.2  c-0.1,1.7-0.2,3.6-0.3,5.6c-0.1,2.1-0.1,3.9-0.2,5.5c0,1.6,0,2.5,0,2.8c0.2,0.7,0.5,1.2,1,1.5c0.5,0.3,1.1,0.5,1.8,0.6  c2.6,0.5,5.7,0.7,9.2,0.6c3.5-0.2,7-0.5,10.5-1c3.5-0.5,6.6-1.1,9.2-1.8c16.1-4.2,27.3-11.9,33.6-23.1c6.3-11.2,7.4-24.7,3.2-40.7  C685.7,926.9,682.7,920.9,678.7,916z"></path>
<ellipse transform="matrix(0.9951 -9.853772e-02 9.853772e-02 0.9951 -19.9968 81.0631)" class="st0" cx="810.7" cy="243" rx="13.8" ry="13.8"></ellipse>
<path class="st0" d="M474.3,948.3c-7.6,0-13.8,6.2-13.8,13.8c0,7.6,6.2,13.8,13.8,13.8c7.6,0,13.8-6.2,13.8-13.8  C488.1,954.5,481.9,948.3,474.3,948.3z"></path>
<g>
	<path class="st0" d="M337.9,476c0,23.8,19.4,43.2,43.2,43.2c23.8,0,43.2-19.4,43.2-43.2c0-23.8-19.4-43.2-43.2-43.2   C357.3,432.8,337.9,452.2,337.9,476z M417.8,476c0,20.2-16.5,36.7-36.7,36.7c-20.2,0-36.7-16.5-36.7-36.7   c0-20.2,16.5-36.7,36.7-36.7C401.3,439.3,417.8,455.8,417.8,476z"></path>
	<path class="st0" d="M622.4,399.6c-0.4,1.8,0.7,3.5,2.5,3.9c5.9,1.3,20.5,5.8,26.9,18.8c1.2,2.4,2.1,5.1,2.6,7.8   c0,0.1,0.1,0.2,0.1,0.4c0.1,0.2,0.1,0.3,0.2,0.5c0.1,0.2,0.3,0.4,0.4,0.6c0.1,0.1,0.1,0.2,0.2,0.3c0,0,0.1,0,0.1,0.1   c0.2,0.2,0.5,0.3,0.7,0.5c0.1,0,0.2,0.1,0.3,0.2c0.4,0.1,0.7,0.2,1.2,0.2c0,0,0,0,0,0l0,0c0,0,0,0,0,0c0.2,0,0.4,0,0.6-0.1   c0.1,0,0.2-0.1,0.3-0.1c0.2-0.1,0.4-0.1,0.6-0.2c0.2-0.1,0.4-0.2,0.6-0.4c0.1-0.1,0.2-0.1,0.3-0.2c2-2,4.1-3.8,6.5-5.1   c12.5-7.3,27.1-3,32.8-0.8c1.7,0.6,3.6-0.2,4.2-1.9c0.6-1.7-0.2-3.6-1.9-4.2c-6.6-2.5-23.4-7.4-38.4,1.3c-1.3,0.8-2.6,1.6-3.8,2.6   c-0.5-1.4-1.1-2.9-1.7-4.2c-7.7-15.5-24.5-20.7-31.3-22.3C624.6,396.7,622.8,397.8,622.4,399.6z"></path>
	<path class="st0" d="M483.5,530.4v21.2l-46.4,18.9c-0.9,0.4-1.5,1.3-1.6,2.2v0l-0.5,17.6c-1.4,0.7-3.2,1.3-4.2,1.4   c-3.2,0.1-6.9,1.6-8.3,3.3c-0.2,0.2-0.3,0.5-0.6,0.7c-0.4,0.6-1.4,2-2,2.4c-0.2,0-0.4,0-0.7,0c0,0,0,0,0,0   c-0.1-2.8,0-10.1,0.1-16.7l0-3.7l-5.5,2.2c-2.2-1-6.8-1.9-16.7-1.9c-18.7,0-18.7,3.1-18.7,4.7v35.9v3.4v12.2l-28.6-2.6l-0.5,5   l40.1,3.7l19,2.3l0.7,0.1l0.7-0.5L517,567.2L650.3,619l28.3,11.7l4.1,1.8l0.4,0l19,7.8l0,0l6.1,2.6v-6.1h0V583h0v-3.2   c0-1.8,0-4.7-21.2-4.7c-11.4,0-16.7,0.9-19.1,1.9l-91-32.7v-18.2h0c0-0.5-0.1-0.9-0.4-1.4c-5.5-8.6-23.9-14.3-45.6-14.3   C503.9,510.4,483.5,519,483.5,530.4z M483.5,584.3l-41.8,29.3l0.4,0L408,637.5l-17.9-2.2l-6.5-0.6v-16h-0.1v-34.5   c1.8-0.5,6.3-1.1,13.7-1.1c9,0,13.7,0.9,14.5,1.4c0,0,0.1,0,0.2,0.1v27.8c1.1-0.2,2.1-0.5,3-0.7v-10.1c0.9,1.5,2.7,1.7,3.9,1.7   c0.3,0,0.5,0,0.7,0c0.2,0,0.5,0,0.7,0c2.5,0,4.4-2.5,5.8-4.4c0.2-0.2,0.3-0.4,0.4-0.6c0.4-0.4,2.6-1.5,4.5-1.5c3-0.1,7-2.2,7.8-2.6   l1.2-0.7l0.5-19l43-17.5V584.3z M670.8,581.3c2.2-0.5,8-1.2,16.2-1.2c8.3,0,14,0.6,16.2,1.2v51.7l0,0v2.5l-22.9-9.4l-9.6-4.3V581.3   z M576.9,549.6l88.9,31.9v38.1l-13.5-5.2l-40.2-16.6l-35.2-13.7V549.6z M488.5,530.4c0-7.1,17.4-15,42.4-15   c21.4,0,36.6,5.7,41,11.5v55.4L517.2,561l-0.9,0.6l-0.2-0.1l-27.6,19.3V530.4z"></path>
	<polygon class="st0" points="581.7,570.8 588,572.6 588.7,559.1 582.5,556.8  "></polygon>
	<polygon class="st0" points="594.2,574.6 600.1,576.5 601,563.5 594.9,561.3  "></polygon>
	<polygon class="st0" points="606.6,565.5 605.9,578.2 611.9,580.1 612.6,567.6  "></polygon>
	<polygon class="st0" points="625.1,572.1 619.5,570.1 618.8,582.2 624.5,583.9  "></polygon>
	<polygon class="st0" points="632.5,574.9 626.9,572.8 626.2,584.5 631.9,586.3  "></polygon>
	<polygon class="st0" points="639.8,577.4 634.1,575.4 633.5,586.8 639.2,588.6  "></polygon>
	<polygon class="st0" points="649.9,581 645,579.3 644.3,590.2 649.2,591.7  "></polygon>
	<polygon class="st0" points="656,583.3 651,581.5 650.5,592.1 655.4,593.7  "></polygon>
	<polygon class="st0" points="662,585.3 657.1,583.6 656.5,593.9 661.5,595.5  "></polygon>
	<path class="st0" d="M536.7,528.1c0-3.9-3.2-7.1-7.1-7.1c-3.9,0-7.1,3.2-7.1,7.1V544h14.1V528.1z M534.7,542h-10.1v-10.9   c0-2.8,2.2-5,5-5h0.1c2.8,0,5,2.2,5,5V542z"></path>
	<rect x="683" y="585.4" class="st0" width="8.1" height="13.4"></rect>
	<path class="st0" d="M564.2,530.9c0-2-1.2-3.8-3.1-4.5c-1.5-0.6-3.1-0.4-4.4,0.5s-2.1,2.4-2.1,4v16l9.6,3.8V530.9z M562.2,547.6   l-5.6-2.2v-14.6c0-0.9,0.5-1.8,1.2-2.3c0.8-0.5,1.7-0.6,2.6-0.3c1.1,0.4,1.8,1.5,1.8,2.7V547.6z"></path>
	<path class="st0" d="M501.3,526.8c-1.3-0.9-3-1.1-4.5-0.5c-1.9,0.7-3.1,2.5-3.1,4.5v19.7l9.6-3.8v-16   C503.4,529.2,502.6,527.7,501.3,526.8z M501.4,545.4l-5.6,2.2v-16.8c0-1.2,0.7-2.2,1.8-2.7c0.3-0.1,0.7-0.2,1-0.2   c0.5,0,1.1,0.2,1.5,0.5c0.8,0.5,1.2,1.4,1.2,2.3V545.4z"></path>
	<rect x="393.2" y="587" class="st0" width="8.1" height="13.4"></rect>
	<polygon class="st0" points="478.9,573.3 478.6,561.9 472.5,564.4 472.8,575.8  "></polygon>
	<polygon class="st0" points="470.9,576.7 470.6,565.3 464.6,567.8 464.9,579.1  "></polygon>
	<polygon class="st0" points="462.9,579.8 462.5,568.3 457.3,570.5 457.6,582  "></polygon>
	<polygon class="st0" points="454.6,583.2 454.3,571.9 450,573.6 450.3,584.9  "></polygon>
	<polygon class="st0" points="445.3,587 448.2,585.8 448,576 447.9,574.5 443.6,576.2 443.9,587.6  "></polygon>
</g>
<path class="st0" d="M524,655.2c-0.1,0-0.1-0.1-0.2-0.1c-0.1,0-0.1,0-0.2,0.1C523.8,655.2,523.9,655.2,524,655.2z"></path>
<g>
	<path class="st0" d="M403.3,655.4c13.9-6.1,18.4-1.8,30,5c2.1,1,4.1,1.8,6.3,2c7.1,0.7,13.9-1.8,20.8-4.6c9.3-4,20.5-9.1,31.4-7.3   c16.2,3.2,31.2,15.8,48.1,10.6c6.3-1.8,12.4-5.2,18.3-8.2c0,0,1.2,1.9,1.2,1.9c-23,17.7-33.8,15.5-59.5,5.4c-2.3-0.8-4.6-1.6-7-2.2   c-10.6-2.6-19.9,2.3-30,6.1c-6.7,2.6-13.8,4.9-21.2,4.4c-1.9-0.1-3.9-0.4-5.7-0.9c-5.2-1.6-9.6-5.6-13.7-8.3   c-5.4-4-12-3.4-18.2-1.5C404.1,657.4,403.3,655.4,403.3,655.4L403.3,655.4z"></path>
	<path class="st0" d="M324.6,676.2c11.5-3.6,25.1,2.8,36,6.2c6.4,2.2,13.1,4.3,19.8,3.2c6.7-0.9,12.5-5.7,18.9-8.5   c7.3-3.5,15.7-2.9,23.5-1.4c4.9,0.9,9.6,3.7,14,5.4c8.6,3.5,17.6,2.2,26.5-0.1c20-5.1,37.9-10.5,58.2-1.9   c8.9,3.3,17.9,7.1,27.4,5.3c0,0,0.4,1.7,0.4,1.7c-2.4,0.6-4.9,1.1-7.4,1.1c-7.4,0.2-14.8-2.3-21.7-4.4c-19.9-7.1-35.9-1.1-55.4,4.2   c-7.1,1.9-15.3,3.7-22.8,2.3c-4.9-0.7-10.2-2.9-14.5-5c-6.1-2.7-12.9-3.3-19.5-2.8c-4.1,0.5-7.9,2.5-12.2,4.9   c-4.2,2.3-9.2,4.8-14.7,5.4c-2.7,0.4-5.3,0.3-8,0c-12.3-2-22.8-9-34.6-12.5c-4.5-1.4-9.1-2.3-13.7-1.5L324.6,676.2L324.6,676.2z"></path>
	<path class="st0" d="M561.2,682.6c30.6-18.1,44.1,6.3,72.3,1.9c0,0,0.5,1.5,0.5,1.5c-2.8,1.6-5.9,2.7-9.1,3.4   c-9.5,1.9-19.6-1.4-28.3-4.1c-5.8-1.8-11-3.4-17-3.4c-5.8-0.1-11.7,1-17.8,2.2L561.2,682.6L561.2,682.6z"></path>
	<path class="st0" d="M414.3,702.3c8.2-1.5,17-1.8,25.1,1c0,0,4.7,1.5,4.7,1.5c10.1,3.5,17.4,3.7,27.6,0   c12.4-4.3,25.4-11.8,39.3-10.1c10.6,1.2,18.9,6.6,28.6,9c16.3,3.9,31.1-5.5,47.3-7c14.4-1.8,27.7,7.8,41.4,7.7   c8.9-0.1,16.4-5,24.6-8.3c14.7-6.6,25.8,2.7,39.4,6.5c9.3,2.6,19.2,4,28.8,2.3c0,0,0.3,1.3,0.3,1.3c-9.8,2.5-20.2,1.9-30-0.3   c-9.4-1.7-18.4-7.5-28-7.3c-6.1,0.4-11.7,4-17.4,6.6c-10.5,5.3-19.3,6.7-30.8,3.6c-9.1-2.3-18.7-6.4-27.8-5.4   c-16.3,2-32.6,11.5-49.7,6.9c-9.5-2.3-18.6-8.1-27.8-9.3c-12.7-1.6-24.7,5-36.9,8.7c-14.4,4.4-21.5,2.3-35-3.3   c-7.5-3.1-15.7-3.5-23.8-2.8C414.5,703.7,414.3,702.3,414.3,702.3L414.3,702.3z"></path>
</g>
<g>
	<polygon class="st0" points="708.3,669.1 708.3,675.5 516.5,601.4 518.6,595.8  "></polygon>
</g>
<g>
	<polygon class="st0" points="522.2,600.6 481.3,630.6 481.3,623.1 518.6,595.8  "></polygon>
</g>
</svg>
