<?xml version="1.0" encoding="UTF-8"?>
<!-- Generator: Adobe Illustrator 28.0.0, SVG Export Plug-In . SVG Version: 6.00 Build 0)  -->
<svg xmlns="http://www.w3.org/2000/svg" xmlns:xlink="http://www.w3.org/1999/xlink" version="1.1" id="Lager_1" x="0px" y="0px" viewBox="0 0 590.8 228.6" style="enable-background:new 0 0 590.8 228.6;" xml:space="preserve">
<style type="text/css">
	.st0{fill:#FFFFFF;}
</style>
<g>
	<path class="st0" d="M357.8,132.1C357.8,132.1,357.8,132.1,357.8,132.1C357.8,132.1,357.8,132.1,357.8,132.1z"></path>
	<path class="st0" d="M259.6,197.3l-4-2.2c-0.5-0.3-0.9-0.2-1.1,0.3l-3.4,6.1c0,0-0.1,0.1-0.1,0.2c-0.1,0.1-0.2,0.2-0.2,0.1   c-0.1,0-0.1-0.1-0.1-0.2c0-0.1,0-0.2,0-0.2c-0.1-1.1-0.3-2.2-0.4-3.3c-0.1-1.1-0.2-2.2-0.3-3.3c-0.1-0.4-0.1-0.9-0.1-1.4   c0-0.5-0.1-0.9-0.2-1.3c-0.1-0.3-0.2-0.5-0.4-0.6l-4.5-2.5c-0.2-0.1-0.4-0.2-0.6-0.2c-0.2-0.1-0.4,0-0.6,0.2   c-0.1,0.1-0.1,0.3-0.1,0.4c0,0.2,0,0.3,0,0.4c0,0.2,0.1,0.7,0.1,1.3c0.1,0.7,0.2,1.5,0.2,2.4c0.1,0.9,0.2,1.9,0.3,2.9   c0.1,1,0.2,1.9,0.3,2.8c0.1,0.9,0.1,1.6,0.2,2.1c0,0.6,0,0.9,0,0.9c0,0-0.1,0.1-0.2,0.1c-4.4,0.5-8,2.4-10.9,5.8   c-0.1,0.1-0.1,0.2-0.2,0.2c-0.1,0.2-0.1,0.4,0,0.6c0.1,0.2,0.2,0.3,0.4,0.4l3.8,2.1c0.4,0.2,0.7,0.1,1.1-0.2   c0.2-0.2,0.4-0.4,0.6-0.6c0.2-0.2,0.4-0.4,0.6-0.6c1.1-1,2.3-1.8,3.7-2.4c1.3-0.5,2.8-0.8,4.3-0.7c0.1,0,0.1,0,0.2,0   c0.1,0,0.1,0.1,0.1,0.2c0,0.1,0,0.1-0.1,0.2c-0.4,0.8-0.9,1.6-1.3,2.3c-0.4,0.8-0.9,1.6-1.3,2.3c-0.2,0.4-0.4,0.7-0.6,1.1   c-0.2,0.4-0.4,0.7-0.6,1.1c-0.2,0.5-0.1,0.9,0.3,1.1l4,2.2c0.5,0.3,0.9,0.2,1.2-0.3c0.3-0.5,0.5-1,0.8-1.5c0.3-0.5,0.5-1,0.8-1.5   c0.6-1.1,1.1-2.1,1.7-3.2c0.6-1.1,1.2-2.1,1.7-3.2c0.6-1.1,1.2-2.1,1.8-3.2c0.6-1.1,1.2-2.1,1.8-3.2c0.3-0.5,0.6-1,0.9-1.5   c0.3-0.5,0.6-1,0.9-1.5C260.2,198,260.1,197.6,259.6,197.3z"></path>
	<path class="st0" d="M236.7,184.3c0.1,0,0.2-0.1,0.3-0.2c0.2-0.2,0.2-0.4,0.1-0.6c-0.1-0.2-0.2-0.4-0.3-0.5l-2.8-3.1   c-0.1-0.2-0.3-0.2-0.4-0.3c-0.1,0-0.3,0-0.5,0c-0.1,0-0.3,0.1-0.4,0.1c-0.1,0.1-0.3,0.1-0.4,0.2c-0.3,0.1-0.7,0.2-1,0.4   c-0.3,0.1-0.7,0.2-1,0.4c0,0,0,0-0.1,0c0,0,0,0,0,0c-0.1,0-0.2,0-0.2-0.1l-4.3-4.6c-0.1-0.1-0.1-0.2,0-0.3c0.2-0.4,0.4-0.9,0.7-1.3   c0.3-0.4,0.5-0.9,0.7-1.3c0.1-0.2,0.1-0.4,0.1-0.5c0-0.1-0.1-0.3-0.2-0.5l-3.6-3.8c-0.1-0.1-0.3-0.3-0.5-0.4   c-0.2-0.1-0.4-0.1-0.6,0.1c-0.1,0.1-0.2,0.2-0.2,0.3c-0.1,0.1-0.1,0.2-0.1,0.3c-0.8,2.1-1.7,4.2-2.6,6.3c-0.9,2.1-1.7,4.2-2.6,6.3   c-0.7,1.7-1.5,3.5-2.2,5.2c-0.8,1.7-1.5,3.5-2.2,5.2c0,0.1,0,0.2,0,0.3c0.1,0.1,0.2,0.1,0.3,0.1c1.8-0.5,3.6-1.1,5.4-1.7   c1.8-0.6,3.6-1.2,5.3-1.8c2.2-0.7,4.3-1.4,6.5-2.1c2.2-0.7,4.4-1.4,6.5-2.1C236.5,184.4,236.6,184.4,236.7,184.3z M223.2,183.6   c-0.7,0.3-1.5,0.6-2.2,0.9c0.4-0.7,0.7-1.4,1.1-2c0.4-0.7,0.7-1.4,1.1-2.1l2.2,2.4C224.6,183,223.9,183.3,223.2,183.6z"></path>
	<path class="st0" d="M215.6,161.3c0.5-0.2,1.1-0.5,1.6-0.7c0.5-0.2,0.7-0.6,0.4-1.1l-1.9-4.1c-0.2-0.5-0.6-0.6-1.1-0.4l-5,2.2   c-0.2,0.1-0.3,0-0.4-0.1l-1.4-3.1c-0.7-1.6-1.6-2.9-2.8-3.8c-1.1-1-2.5-1.6-3.9-1.8c-1.5-0.2-3,0.1-4.7,0.8   c-1.4,0.6-2.4,1.4-3.1,2.4c-0.7,1-1.2,2-1.3,3.2c-0.2,1.2-0.1,2.4,0.1,3.6c0.2,1.2,0.6,2.5,1.2,3.7l3.2,7.1   c0.2,0.5,0.6,0.6,1.1,0.4c0.5-0.2,1.1-0.5,1.6-0.8c0.5-0.3,1.1-0.5,1.6-0.8c1.1-0.5,2.1-1,3.2-1.5c1.1-0.5,2.2-1,3.2-1.5   c1.1-0.5,2.2-1,3.3-1.5c1.1-0.5,2.2-1,3.3-1.4C214.5,161.8,215,161.6,215.6,161.3z M201.9,160.8c-0.9,0.4-1.8,0.8-2.7,1.2l-1.4-3   c-0.3-0.7-0.4-1.4-0.3-2.1c0.1-0.7,0.4-1.3,1-1.8c0.1-0.1,0.2-0.2,0.3-0.3c0.1-0.1,0.3-0.2,0.3-0.2c0.5-0.2,1.1-0.3,1.6-0.2   c0.5,0.1,1,0.4,1.4,0.8c0.4,0.4,0.7,0.8,1,1.3l1.4,3C203.7,160,202.8,160.4,201.9,160.8z"></path>
	<path class="st0" d="M196.5,135.5c1.2-0.2,2.4-0.3,3.6-0.4c1.2-0.1,2.4-0.3,3.6-0.4c0.6-0.1,1.1-0.1,1.7-0.2   c0.6-0.1,1.1-0.1,1.7-0.2c0.6-0.1,0.8-0.4,0.7-0.9l-1.8-14c-0.1-0.6-0.4-0.8-1-0.7c-0.6,0.1-1.2,0.2-1.8,0.2   c-0.6,0.1-1.3,0.2-1.8,0.3c-0.5,0.1-0.8,0.4-0.7,0.9l1.1,8.4c0,0.2-0.1,0.3-0.2,0.3l-3.3,0.4c-0.2,0-0.3-0.1-0.3-0.2l-0.9-6.8   c-0.1-0.6-0.4-0.8-0.9-0.7l-3.1,0.4c-0.6,0.1-0.8,0.4-0.7,0.9l0.9,6.8c0,0.2-0.1,0.3-0.2,0.3l-3.2,0.4c-0.2,0-0.3-0.1-0.3-0.2l-1-8   c-0.1-0.5-0.4-0.8-0.9-0.7c-0.3,0-0.5,0-0.8,0.1c-0.3,0-0.5,0.1-0.8,0.1c-0.3,0-0.7,0.1-1,0.1c-0.3,0-0.7,0.1-1,0.1   c-0.6,0.1-0.8,0.4-0.7,0.9l1.7,13.7c0.1,0.5,0.4,0.8,0.9,0.7c0.6-0.1,1.1-0.2,1.7-0.2c0.6-0.1,1.1-0.2,1.7-0.3   c1.2-0.2,2.4-0.3,3.6-0.5C194.1,135.8,195.3,135.7,196.5,135.5z"></path>
	<path class="st0" d="M184.2,105.7c0.6,0.1,1.1,0.2,1.7,0.2c0.6,0.1,1.1,0.1,1.7,0.2c1.2,0.2,2.4,0.3,3.6,0.5   c1.2,0.2,2.4,0.4,3.6,0.5c1.2,0.2,2.4,0.4,3.6,0.6c1.2,0.2,2.4,0.4,3.6,0.6c0.6,0.1,1.1,0.2,1.7,0.3c0.6,0.1,1.1,0.2,1.7,0.3   c0.6,0.1,0.9-0.1,1-0.7l2.1-13.4c0.1-0.6-0.2-0.9-0.7-1c-0.4-0.1-0.7-0.1-1.1-0.2c-0.4,0-0.7-0.1-1.1-0.1c-0.2,0-0.5-0.1-0.7-0.1   c-0.2,0-0.5-0.1-0.7-0.1c-0.3,0-0.5,0-0.6,0.1c-0.1,0.1-0.3,0.3-0.3,0.6l-1.2,7.8c0,0.2-0.1,0.2-0.3,0.2l-4.8-0.7   c-1.9-0.3-3.9-0.6-5.8-0.9c-1.9-0.3-3.9-0.6-5.8-0.9c-0.5-0.1-0.9,0.1-0.9,0.7l-0.7,4.4C183.5,105.3,183.7,105.6,184.2,105.7z"></path>
	<path class="st0" d="M191.1,75.7c0.5,0.2,1,0.5,1.6,0.7c0.5,0.2,1.1,0.5,1.6,0.7c1.1,0.5,2.2,1,3.3,1.5c1.1,0.5,2.2,1,3.3,1.5   c1.1,0.5,2.2,1,3.3,1.5c1.1,0.5,2.2,1,3.3,1.6c0.5,0.2,1,0.5,1.6,0.8c0.5,0.3,1,0.5,1.6,0.7c0.5,0.2,0.9,0.1,1.1-0.4l5.6-12.3   c0.2-0.5,0.1-0.9-0.4-1.1c-0.3-0.2-0.7-0.3-1-0.5c-0.3-0.1-0.7-0.3-1-0.4c-0.2-0.1-0.4-0.2-0.7-0.3c-0.2-0.1-0.4-0.2-0.6-0.3   c-0.3-0.1-0.5-0.1-0.7-0.1c-0.2,0.1-0.3,0.2-0.4,0.5l-3.3,7.2c-0.1,0.2-0.2,0.2-0.3,0.1l-4.4-2c-1.8-0.8-3.6-1.6-5.4-2.4   c-1.8-0.8-3.6-1.6-5.4-2.4c-0.5-0.2-0.9-0.1-1.1,0.4l-1.9,4.1C190.4,75.1,190.6,75.5,191.1,75.7z"></path>
	<path class="st0" d="M207.1,49.7c0.5,0.4,0.9,0.7,1.3,1.1c0.9,0.8,1.8,1.5,2.6,2.3c0.9,0.8,1.7,1.5,2.6,2.3c0.4,0.3,0.8,0.7,1.2,1   c0.4,0.3,0.8,0.7,1.2,1c1.4,1.3,2.9,2.1,4.5,2.3c1.5,0.3,3,0.1,4.5-0.5s2.8-1.6,4.1-3c1.2-1.3,1.9-2.7,2.4-4.3   c0.4-1.6,0.4-3.1,0-4.7c-0.4-1.5-1.3-2.9-2.6-4.1c-0.3-0.3-0.7-0.6-1-0.9c-0.4-0.3-0.7-0.6-1-0.9c-0.9-0.8-1.8-1.6-2.7-2.5   c-0.9-0.8-1.8-1.7-2.7-2.5c-0.4-0.4-0.8-0.8-1.3-1.2c-0.4-0.4-0.8-0.8-1.3-1.2c-0.4-0.4-0.8-0.4-1.2,0l-2.9,3.3   c-0.2,0.2-0.3,0.4-0.3,0.6c0,0.2,0.1,0.4,0.3,0.6c0.1,0.1,0.3,0.3,0.4,0.4c0.2,0.1,0.3,0.3,0.4,0.4l1.7,1.5   c0.9,0.9,1.9,1.7,2.8,2.6c0.9,0.9,1.9,1.7,2.8,2.5l1.9,1.7c0.9,0.8,1.4,1.6,1.4,2.5c0,0.9-0.3,1.8-1.1,2.7   c-0.7,0.8-1.6,1.2-2.5,1.2c-0.9,0-1.7-0.4-2.5-1.1c-0.3-0.3-0.6-0.5-0.9-0.8c-0.3-0.3-0.6-0.6-0.9-0.8c-0.9-0.8-1.9-1.7-2.8-2.5   c-1-0.8-1.9-1.7-2.9-2.5l-1.7-1.5c-0.1-0.1-0.3-0.2-0.4-0.4c-0.1-0.1-0.3-0.3-0.4-0.4c-0.2-0.2-0.4-0.2-0.6-0.3   c-0.2,0-0.4,0.1-0.6,0.3l-3,3.4c-0.4,0.4-0.3,0.8,0.1,1.2C206.2,49,206.7,49.4,207.1,49.7z"></path>
	<path class="st0" d="M232.8,24.9c0.3,0.5,0.6,1,0.9,1.4c0.6,1.1,1.2,2.1,1.9,3.2c0.6,1.1,1.2,2.1,1.8,3.2c0.6,1.1,1.2,2.1,1.8,3.2   c0.6,1.1,1.2,2.1,1.8,3.2c0.3,0.5,0.5,1,0.8,1.5c0.3,0.5,0.5,1,0.8,1.5c0.3,0.5,0.7,0.6,1.1,0.3l6.9-3.9c1.9-1.1,3.5-2.5,4.6-4.1   c1.1-1.7,1.7-3.5,1.8-5.4c0.1-2-0.4-3.9-1.6-5.9c-1.3-2.3-2.9-4-4.7-5c-1.8-1-3.8-1.4-6-1.3c-2.1,0.2-4.3,0.9-6.5,2.2l-5.9,3.4   c-0.5,0.3-0.6,0.7-0.3,1.2C232.2,23.9,232.5,24.4,232.8,24.9z M242,22.8c1.2-0.7,2.2-0.9,3.2-0.8c1,0.1,1.8,0.5,2.6,1.2   c0.8,0.7,1.4,1.5,2,2.6c1,1.8,1.3,3.5,0.8,4.9c-0.5,1.4-1.7,2.6-3.4,3.6l-1.5,0.8c-2-3.6-4.1-7.3-6.1-10.9L242,22.8z"></path>
	<path class="st0" d="M266,9.3c0.1,0.5,0.2,1.1,0.3,1.6c0.2,1.2,0.5,2.4,0.7,3.6c0.2,1.2,0.5,2.4,0.7,3.6c0.2,1.2,0.4,2.4,0.6,3.6   c0.2,1.2,0.4,2.4,0.6,3.6c0.1,0.6,0.2,1.1,0.3,1.7c0.1,0.6,0.2,1.1,0.3,1.7c0.1,0.6,0.4,0.8,1,0.7l7.9-1.4c2.2-0.4,4.1-1.2,5.7-2.4   c1.6-1.2,2.8-2.7,3.5-4.5c0.7-1.8,0.9-3.9,0.5-6.1c-0.5-2.6-1.4-4.7-2.8-6.3c-1.4-1.6-3.1-2.6-5.2-3.1C277.8,5,275.5,5,273,5.5   l-6.7,1.2c-0.5,0.1-0.8,0.4-0.7,1C265.8,8.2,265.9,8.8,266,9.3z M275.4,10.4c1.3-0.2,2.4-0.1,3.3,0.3c0.9,0.4,1.5,1.1,2,2   c0.5,0.9,0.8,1.9,1.1,3.1c0.4,2.1,0.1,3.7-0.9,4.9c-1,1.2-2.4,1.9-4.4,2.3l-1.7,0.3c-0.7-4.1-1.5-8.2-2.2-12.3L275.4,10.4z"></path>
	<path class="st0" d="M300.1,26.3l14.1,1.7c0.6,0.1,0.9-0.2,0.9-0.8c0.1-0.6,0.1-1.2,0.2-1.8c0.1-0.6,0.1-1.3,0.2-1.8   c0-0.5-0.2-0.8-0.7-0.9l-8.4-1c-0.2,0-0.3-0.1-0.2-0.3l0.4-3.3c0-0.2,0.1-0.2,0.3-0.2l6.8,0.8c0.6,0.1,0.9-0.2,0.9-0.7l0.4-3.1   c0.1-0.6-0.2-0.9-0.7-0.9l-6.8-0.8c-0.2,0-0.2-0.1-0.2-0.3l0.4-3.2c0-0.2,0.1-0.2,0.3-0.2l8.1,1c0.5,0.1,0.8-0.2,0.9-0.7   c0.1-0.3,0.1-0.5,0.1-0.8c0-0.3,0.1-0.5,0.1-0.8c0.1-0.3,0.1-0.7,0.2-1c0.1-0.3,0.1-0.7,0.1-1c0.1-0.6-0.2-0.9-0.7-1l-13.7-1.7   c-0.5-0.1-0.9,0.2-0.9,0.7c-0.1,0.6-0.1,1.1-0.2,1.7c-0.1,0.6-0.1,1.2-0.2,1.7c-0.1,1.2-0.3,2.4-0.4,3.6c-0.1,1.2-0.3,2.4-0.4,3.6   c-0.1,1.2-0.3,2.4-0.5,3.6c-0.2,1.2-0.3,2.4-0.5,3.6c-0.1,0.6-0.2,1.1-0.2,1.7c-0.1,0.6-0.2,1.1-0.2,1.7   C299.3,26,299.6,26.3,300.1,26.3z"></path>
	<path class="st0" d="M324.8,30.8l4.2,2c0.5,0.2,0.9,0.1,1.1-0.4l1.2-2.5c0.5-1.1,1.1-2.3,1.6-3.4c0.5-1.1,1.1-2.3,1.6-3.4   c0,0,0.1-0.1,0.1-0.2c0.1-0.1,0.1-0.1,0.2-0.1c0,0,0.1,0.1,0.1,0.1c0,0.1,0,0.1,0.1,0.2c0.1,0.2,0.3,0.7,0.6,1.4   c0.3,0.7,0.7,1.6,1.2,2.6c0.5,1,0.9,2.1,1.5,3.3c0.5,1.2,1,2.3,1.6,3.4c0.5,1.1,1,2.1,1.4,3.1c0.4,0.9,0.8,1.7,1.1,2.2   c0.3,0.6,0.4,0.9,0.5,0.9c0,0,0.1,0,0.1,0c0.3-0.6,0.6-1.2,0.8-1.8c0.3-0.6,0.5-1.2,0.8-1.8c1.1-2.5,2.3-5,3.5-7.5   c0.5-1.1,1-2.2,1.6-3.3c0.5-1.1,1.1-2.2,1.6-3.2c0.3-0.5,0.5-1,0.8-1.5c0.3-0.5,0.5-1,0.8-1.5c0.2-0.5,0.1-0.9-0.4-1.1l-4.1-1.9   c-0.5-0.2-0.9-0.1-1.1,0.4c-0.8,1.6-1.5,3.2-2.3,4.8c-0.7,1.6-1.5,3.2-2.3,4.8c0,0-0.1,0.1-0.1,0.2c-0.1,0.1-0.1,0.1-0.2,0.1   c0,0-0.1-0.1-0.1-0.1c0-0.1-0.1-0.1-0.1-0.2c-1.2-2.8-2.5-5.7-3.7-8.6c-1.2-2.9-2.5-5.7-3.8-8.5c0-0.1-0.1-0.1-0.2-0.2   c-0.1,0-0.1,0-0.2,0c-0.3,0.6-0.5,1.2-0.8,1.8c-0.3,0.6-0.5,1.2-0.8,1.8c-1.1,2.5-2.3,5-3.4,7.5c-0.5,1.1-1,2.2-1.6,3.3   c-0.5,1.1-1.1,2.2-1.6,3.2c-0.3,0.5-0.5,1-0.8,1.5c-0.3,0.5-0.5,1-0.8,1.5C324.1,30.2,324.3,30.6,324.8,30.8z"></path>
	<path class="st0" d="M373.5,72.6c0.6,0.6,1.2,1.2,1.8,1.7c0.7,0.5,1.3,0.9,1.9,1.1c0.2,0.1,0.4,0.1,0.6,0c0.1,0,0.2-0.2,0.4-0.5   c0.2-0.3,0.4-0.7,0.7-1.1c0.3-0.4,0.5-0.8,0.7-1.1c0.2-0.3,0.4-0.6,0.4-0.7c0.1-0.1,0.2-0.3,0.2-0.5c0.1-0.2,0-0.3-0.1-0.5   c-0.1-0.1-0.2-0.2-0.3-0.3c-0.1-0.1-0.2-0.1-0.4-0.2c-0.6-0.3-1.1-0.6-1.5-1c-0.5-0.4-0.9-0.8-1.2-1.4c-0.7-1.1-0.9-2.1-0.8-3.1   c0.1-1,0.5-1.9,1.1-2.8c0.6-0.9,1.5-1.6,2.4-2.2c0.9-0.5,1.8-0.9,2.9-1.1c1-0.2,2-0.1,3,0.3c0.9,0.3,1.7,1,2.3,1.9   c0.3,0.5,0.5,1.1,0.5,1.6c0,0.6,0,1.1,0,1.5c0,0.5,0,0.8,0.1,0.9c0.1,0.2,0.2,0.2,0.4,0.3c0.1,0,0.3,0,0.5,0c0.1,0,0.4-0.1,0.9-0.1   c0.4-0.1,0.9-0.1,1.4-0.2c0.5-0.1,1-0.2,1.4-0.2c0.4-0.1,0.6-0.1,0.7-0.2c0.1-0.1,0.2-0.2,0.3-0.3c0-0.1,0.1-0.2,0.1-0.4   c0-1-0.2-2.2-0.6-3.4c-0.4-1.2-0.9-2.2-1.4-3.1c-1.2-2-2.7-3.4-4.4-4.2c-1.7-0.8-3.5-1.1-5.5-0.9c-1.9,0.2-3.8,0.9-5.7,2.1   c-2,1.2-3.5,2.7-4.6,4.4c-1.1,1.7-1.6,3.6-1.6,5.5c0,2,0.7,4,1.9,6C372.5,71.4,372.9,72,373.5,72.6z"></path>
	<path class="st0" d="M380.6,84c-0.1,0-0.2,0-0.3-0.1c-0.1,0-0.2,0-0.3,0c-0.2,0.1-0.4,0.2-0.4,0.4c0,0.2,0,0.4,0,0.6l1,4.1   c0,0.2,0.1,0.3,0.2,0.4c0.1,0.1,0.3,0.1,0.4,0.2c0.1,0,0.3,0.1,0.4,0.1c0.2,0,0.3,0,0.4,0.1c0.3,0.1,0.7,0.1,1,0.2   c0.3,0.1,0.7,0.1,1,0.2c0,0,0,0,0.1,0c0,0,0,0,0,0c0.1,0,0.2,0.1,0.2,0.2l1.5,6.1c0,0.1,0,0.2-0.1,0.3c-0.4,0.3-0.8,0.6-1.3,0.8   c-0.4,0.2-0.8,0.5-1.2,0.8c-0.2,0.1-0.3,0.3-0.3,0.4c-0.1,0.1-0.1,0.3,0,0.5l1.2,5.1c0,0.2,0.1,0.4,0.2,0.6   c0.1,0.2,0.3,0.3,0.5,0.2c0.1,0,0.2-0.1,0.3-0.1c0.1-0.1,0.2-0.1,0.3-0.2c1.8-1.4,3.6-2.9,5.3-4.3s3.6-2.8,5.4-4.3   c1.5-1.2,3-2.3,4.5-3.4c1.5-1.1,3-2.3,4.4-3.5c0.1-0.1,0.1-0.2,0.1-0.3c0-0.1-0.1-0.2-0.2-0.2c-1.8-0.4-3.7-0.8-5.5-1.1   c-1.9-0.3-3.7-0.7-5.5-1c-2.2-0.4-4.5-0.9-6.7-1.3C385,84.9,382.8,84.4,380.6,84z M391.7,91.2c0.8,0.1,1.6,0.2,2.3,0.3   c-0.6,0.4-1.3,0.8-2,1.2c-0.7,0.4-1.3,0.8-2,1.2l-0.8-3.1C390.1,91,390.9,91.1,391.7,91.2z"></path>
	<path class="st0" d="M407.1,116.5c-0.3-0.1-0.6-0.1-0.7-0.1l-0.3,0c-3.2-0.3-6.5-0.6-9.7-1c-1.2-0.1-2.3-0.3-3.5-0.4   c-1.2-0.1-2.3-0.3-3.5-0.5c-0.6-0.1-1.2-0.2-1.7-0.3c-0.6-0.1-1.2-0.2-1.7-0.2c-0.6-0.1-0.9,0.2-0.9,0.7l-0.5,4.3   c0,0.3,0,0.5,0.1,0.6c0.1,0.1,0.3,0.2,0.6,0.3c0.3,0.1,0.6,0.1,0.9,0.1c0.3,0,0.6,0,0.9,0.1c0.6,0.1,1.2,0.2,1.8,0.2   c0.6,0.1,1.2,0.2,1.8,0.2c0,0,0.1,0,0.3,0c0.1,0,0.2,0.1,0.2,0.2c0,0.1-0.1,0.1-0.2,0.2c-0.1,0.1-0.2,0.1-0.2,0.1   c-1.4,0.7-2.8,1.4-4.2,2.1c-1.4,0.7-2.8,1.4-4.3,2.1l0,0.1c1.3,1,2.7,2,4,3c1.4,1,2.7,2,4,3c0,0,0.1,0.1,0.2,0.2   c0.1,0.1,0.2,0.2,0.2,0.2c0,0.1-0.1,0.1-0.3,0.1c-0.2,0-0.3,0-0.3,0c-0.7-0.1-1.5-0.1-2.2-0.2c-0.7-0.1-1.5-0.2-2.2-0.2   c-0.3,0-0.6-0.1-0.9-0.1c-0.3-0.1-0.6-0.1-0.9-0.1c-0.3,0-0.5,0-0.6,0.1c-0.1,0.1-0.2,0.3-0.3,0.6l-0.5,4.5   c-0.1,0.5,0.2,0.9,0.8,0.9c0.6,0.1,1.2,0.1,1.8,0.2c0.6,0,1.2,0.1,1.8,0.1c1.2,0.1,2.4,0.2,3.5,0.4c1.2,0.1,2.3,0.2,3.5,0.4   c2.1,0.2,4.1,0.5,6.2,0.8c2,0.3,4.1,0.6,6.1,0.9l0-0.1c-1.6-1.5-3.3-3.1-4.9-4.6s-3.3-3-5-4.5c-0.8-0.7-1.6-1.4-2.4-2.1   c-0.8-0.7-1.6-1.4-2.4-2.2c-0.1-0.1-0.1-0.2-0.1-0.2c0-0.1,0.1-0.1,0.2-0.2c0.6-0.3,1.1-0.6,1.7-0.9c0.6-0.3,1.1-0.6,1.7-0.9   c1.3-0.7,2.6-1.4,3.9-2.1c1.3-0.7,2.6-1.4,3.9-2.1c0.6-0.3,1.3-0.7,1.9-1.1c0.6-0.3,1.3-0.7,1.9-1.1c0.1-0.1,0.3-0.2,0.6-0.4   c0.3-0.2,0.4-0.4,0.5-0.6C407.6,116.7,407.5,116.6,407.1,116.5z"></path>
	<path class="st0" d="M399.2,156.4c-0.5-0.3-1.1-0.5-1.6-0.8c-0.5-0.2-1.1-0.5-1.6-0.7c-1.1-0.5-2.2-1-3.2-1.5   c-1.1-0.5-2.1-1-3.2-1.6c-1.1-0.5-2.1-1.1-3.2-1.6c-1.1-0.5-2.1-1.1-3.2-1.6c-0.5-0.3-1.1-0.5-1.6-0.8c-0.5-0.3-1.1-0.6-1.6-0.8   c-0.5-0.3-0.9-0.1-1.1,0.4l-2,4c-0.2,0.5-0.1,0.9,0.4,1.1l4.9,2.5c0.2,0.1,0.2,0.2,0.1,0.4l-1.5,3.1c-0.8,1.6-1.2,3.1-1.2,4.6   c0,1.5,0.3,2.9,1.1,4.2c0.8,1.3,2,2.3,3.6,3.1c1.4,0.7,2.6,1,3.8,0.9c1.2-0.1,2.3-0.4,3.3-1c1-0.6,1.9-1.4,2.7-2.4   c0.8-1,1.5-2.1,2.1-3.2l3.4-7C399.8,157.1,399.7,156.7,399.2,156.4z M390.9,163c-0.3,0.7-0.8,1.2-1.4,1.6c-0.6,0.4-1.3,0.5-2,0.4   c-0.1,0-0.2,0-0.4-0.1c-0.2,0-0.3-0.1-0.4-0.1c-0.5-0.3-0.9-0.6-1.1-1.1c-0.2-0.5-0.3-1-0.3-1.6c0-0.6,0.2-1.1,0.4-1.6l1.5-3   c0.9,0.4,1.7,0.9,2.6,1.3c0.9,0.4,1.7,0.9,2.6,1.3L390.9,163z"></path>
	<path class="st0" d="M381.9,185.4c-1.4-1.2-2.7-2.3-4.1-3.5c-1.4-1.2-2.7-2.3-4.1-3.5c-1.4-1.2-2.7-2.3-4.1-3.5   c-1.3-1.2-2.7-2.3-4.1-3.5c-0.4-0.4-0.8-0.3-1.2,0.1l-2.9,3.4c-0.4,0.4-0.3,0.8,0.1,1.2c1.4,1.2,2.7,2.3,4.1,3.5s2.7,2.3,4.1,3.5   c1.4,1.2,2.7,2.3,4.1,3.5s2.7,2.3,4.1,3.5c0.4,0.4,0.8,0.3,1.2-0.1l2.9-3.4C382.3,186.2,382.3,185.8,381.9,185.4z"></path>
	<path class="st0" d="M366.2,201.2c-0.4-0.5-0.8-1.1-1.2-1.6c-1.6-2.2-3.2-4.5-4.7-6.8c-0.7-1-1.3-2-2-3c-0.7-1-1.3-2-2-3   c-0.3-0.5-0.6-1-0.9-1.4c-0.3-0.5-0.6-1-0.9-1.4c-0.3-0.5-0.7-0.6-1.2-0.2l-3.8,2.6c-0.5,0.3-0.5,0.7-0.2,1.1l1.5,2.3   c0.7,1,1.4,2.1,2.1,3.1c0.7,1,1.4,2.1,2.1,3.1c0,0,0.1,0.1,0.1,0.2c0,0.1,0,0.1,0,0.2c0,0-0.1,0-0.2,0c-0.1,0-0.1,0-0.2,0   c-0.3,0-0.8-0.1-1.6-0.2c-0.8-0.1-1.7-0.2-2.9-0.3c-1.1-0.1-2.3-0.3-3.6-0.4c-1.3-0.1-2.5-0.3-3.7-0.4c-1.2-0.1-2.4-0.2-3.4-0.3   c-1-0.1-1.8-0.2-2.5-0.2c-0.6-0.1-1-0.1-1,0c0,0-0.1,0.1,0,0.1c0.4,0.5,0.7,1.1,1.1,1.6c0.4,0.5,0.8,1.1,1.2,1.6   c1.6,2.2,3.2,4.5,4.7,6.8c0.7,1,1.3,2,2,3c0.7,1,1.3,2,2,3c0.3,0.5,0.6,1,0.9,1.5c0.3,0.5,0.6,1,0.9,1.4c0.3,0.5,0.7,0.6,1.2,0.2   l3.8-2.5c0.5-0.3,0.5-0.7,0.2-1.2c-1-1.5-2-2.9-3-4.4c-1-1.4-2-2.9-3-4.4c0,0-0.1-0.1-0.1-0.2c0-0.1,0-0.2,0-0.2c0,0,0.1,0,0.1,0   c0.1,0,0.1,0,0.2,0c3.1,0.4,6.2,0.8,9.2,1.2c3.1,0.4,6.2,0.7,9.2,1c0.1,0,0.2,0,0.2-0.1c0.1,0,0.1-0.1,0-0.2   C366.9,202.2,366.6,201.7,366.2,201.2z"></path>
	<path class="st0" d="M328.7,204.8c-1-1.2-2.1-2-3.5-2.7c-1.3-0.6-2.8-0.9-4.4-1c-1.6-0.1-3.2,0.1-4.8,0.5c-0.5,0.1-1.2,0.4-1.9,0.7   c-0.7,0.3-1.5,0.7-2.2,1.1c-0.7,0.4-1.4,0.9-2,1.3c-0.6,0.5-1.1,1-1.4,1.4c-0.1,0.2-0.2,0.4-0.1,0.7c0.1,0.5,0.3,1,0.4,1.4   c0.1,0.5,0.3,0.9,0.4,1.4c0.5,1.9,1.1,3.8,1.6,5.7c0.1,0.5,0.5,0.7,1,0.6l7.7-2c0.5-0.1,0.7-0.5,0.6-1l-0.6-2.2   c-0.1-0.5-0.5-0.7-1-0.6l-3.2,0.9c-0.2,0-0.3,0-0.3-0.2l-0.6-2.1c0-0.2,0.1-0.3,0.4-0.5c0.3-0.2,0.6-0.4,1.1-0.6   c0.4-0.2,0.8-0.3,1.2-0.5c0.4-0.1,0.6-0.2,0.8-0.3c1.8-0.5,3.3-0.3,4.5,0.5c1.2,0.8,2.1,2.1,2.5,3.8c1.1,4.2-0.5,6.8-4.7,7.9   c-1.6,0.4-3.1,0.5-4.7,0.4c-0.2,0-0.4,0-0.5,0c-0.2,0.1-0.3,0.2-0.4,0.3c-0.1,0.1-0.1,0.3-0.1,0.5c0,0.1,0,0.4,0,0.8   c0,0.4,0,0.9-0.1,1.4c0,0.5,0,0.9,0,1.3c0,0.4,0,0.6,0,0.7c0,0.2,0.1,0.3,0.2,0.4c0.1,0.1,0.3,0.1,0.4,0.2c0.6,0.1,1.4,0.2,2.2,0.1   c0.8,0,1.7-0.1,2.5-0.2c0.8-0.1,1.6-0.3,2.2-0.4c3.9-1,6.6-2.9,8.1-5.6c1.5-2.7,1.8-6,0.8-9.8C330.4,207.5,329.7,206,328.7,204.8z"></path>
	
		<ellipse transform="matrix(0.9951 -9.853773e-02 9.853773e-02 0.9951 -2.4632 35.7331)" class="st0" cx="360.5" cy="42.8" rx="3.3" ry="3.3"></ellipse>
	<path class="st0" d="M279.5,212.6c-1.8,0-3.3,1.5-3.3,3.3c0,1.8,1.5,3.3,3.3,3.3c1.8,0,3.3-1.5,3.3-3.3   C282.9,214.1,281.4,212.6,279.5,212.6z"></path>
	<g>
		<path class="st0" d="M246.7,98.9c0,5.7,4.7,10.4,10.4,10.4c5.7,0,10.4-4.7,10.4-10.4c0-5.7-4.7-10.4-10.4-10.4    C251.4,88.5,246.7,93.2,246.7,98.9z M265.9,98.9c0,4.9-4,8.8-8.8,8.8c-4.9,0-8.8-4-8.8-8.8c0-4.9,4-8.8,8.8-8.8    C262,90.1,265.9,94,265.9,98.9z"></path>
		<path class="st0" d="M315.2,80.5c-0.1,0.4,0.2,0.8,0.6,0.9c1.4,0.3,4.9,1.4,6.5,4.5c0.3,0.6,0.5,1.2,0.6,1.9c0,0,0,0.1,0,0.1    c0,0,0,0.1,0,0.1c0,0.1,0.1,0.1,0.1,0.2c0,0,0,0,0,0.1c0,0,0,0,0,0c0.1,0,0.1,0.1,0.2,0.1c0,0,0,0,0.1,0c0.1,0,0.2,0.1,0.3,0.1    c0,0,0,0,0,0l0,0c0,0,0,0,0,0c0,0,0.1,0,0.1,0c0,0,0,0,0.1,0c0.1,0,0.1,0,0.1-0.1c0,0,0.1-0.1,0.1-0.1c0,0,0,0,0.1,0    c0.5-0.5,1-0.9,1.6-1.2c3-1.8,6.5-0.7,7.9-0.2c0.4,0.2,0.9,0,1-0.5c0.2-0.4,0-0.9-0.5-1c-1.6-0.6-5.6-1.8-9.2,0.3    c-0.3,0.2-0.6,0.4-0.9,0.6c-0.1-0.3-0.3-0.7-0.4-1c-1.8-3.7-5.9-5-7.5-5.4C315.7,79.8,315.3,80.1,315.2,80.5z"></path>
		<path class="st0" d="M281.8,112v5.1l-11.2,4.5c-0.2,0.1-0.4,0.3-0.4,0.5v0l-0.1,4.2c-0.3,0.2-0.8,0.3-1,0.3c-0.8,0-1.7,0.4-2,0.8    c0,0-0.1,0.1-0.1,0.2c-0.1,0.1-0.3,0.5-0.5,0.6c-0.1,0-0.1,0-0.2,0c0,0,0,0,0,0c0-0.7,0-2.4,0-4l0-0.9l-1.3,0.5    c-0.5-0.2-1.6-0.5-4-0.5c-4.5,0-4.5,0.7-4.5,1.1v8.6v0.8v2.9l-6.9-0.6l-0.1,1.2l9.6,0.9l4.6,0.6l0.2,0l0.2-0.1l25.7-18l32.1,12.5    l6.8,2.8l1,0.4l0.1,0l4.6,1.9l0,0l1.5,0.6v-1.5h0v-13h0v-0.8c0-0.4,0-1.1-5.1-1.1c-2.7,0-4,0.2-4.6,0.5l-21.9-7.9V111h0    c0-0.1,0-0.2-0.1-0.3c-1.3-2.1-5.8-3.4-11-3.4C286.7,107.2,281.8,109.2,281.8,112z M281.8,125l-10.1,7l0.1,0l-8.2,5.8l-4.3-0.5    l-1.6-0.1v-3.9h0v-8.3c0.4-0.1,1.5-0.3,3.3-0.3c2.2,0,3.3,0.2,3.5,0.3c0,0,0,0,0,0v6.7c0.3-0.1,0.5-0.1,0.7-0.2v-2.4    c0.2,0.4,0.7,0.4,0.9,0.4c0.1,0,0.1,0,0.2,0c0.1,0,0.1,0,0.2,0c0.6,0,1.1-0.6,1.4-1.1c0-0.1,0.1-0.1,0.1-0.1    c0.1-0.1,0.6-0.3,1.1-0.4c0.7,0,1.7-0.5,1.9-0.6l0.3-0.2l0.1-4.6l10.3-4.2V125z M326.9,124.2c0.5-0.1,1.9-0.3,3.9-0.3    c2,0,3.4,0.1,3.9,0.3v12.4l0,0v0.6l-5.5-2.3l-2.3-1V124.2z M304.3,116.6l21.4,7.7v9.2l-3.2-1.3l-9.7-4l-8.5-3.3V116.6z M283,112    c0-1.7,4.2-3.6,10.2-3.6c5.1,0,8.8,1.4,9.9,2.8v13.3l-13.2-5.1l-0.2,0.1l0,0l-6.6,4.6V112z"></path>
		<polygon class="st0" points="305.4,121.7 306.9,122.2 307.1,118.9 305.6,118.4   "></polygon>
		<polygon class="st0" points="308.4,122.6 309.8,123.1 310,120 308.6,119.4   "></polygon>
		<polygon class="st0" points="311.4,120.4 311.2,123.5 312.7,124 312.8,121   "></polygon>
		<polygon class="st0" points="315.9,122 314.5,121.6 314.3,124.5 315.7,124.9   "></polygon>
		<polygon class="st0" points="317.6,122.7 316.3,122.2 316.1,125 317.5,125.5   "></polygon>
		<polygon class="st0" points="319.4,123.3 318,122.8 317.9,125.6 319.2,126   "></polygon>
		<polygon class="st0" points="321.8,124.2 320.6,123.8 320.5,126.4 321.7,126.7   "></polygon>
		<polygon class="st0" points="323.3,124.7 322.1,124.3 322,126.9 323.1,127.2   "></polygon>
		<polygon class="st0" points="324.7,125.2 323.6,124.8 323.4,127.3 324.6,127.7   "></polygon>
		<path class="st0" d="M294.6,111.5c0-0.9-0.8-1.7-1.7-1.7c-0.9,0-1.7,0.8-1.7,1.7v3.8h3.4V111.5z M294.1,114.8h-2.4v-2.6    c0-0.7,0.5-1.2,1.2-1.2h0c0.7,0,1.2,0.5,1.2,1.2V114.8z"></path>
		<rect x="329.8" y="125.2" class="st0" width="2" height="3.2"></rect>
		<path class="st0" d="M301.2,112.1c0-0.5-0.3-0.9-0.7-1.1c-0.4-0.1-0.8-0.1-1.1,0.1c-0.3,0.2-0.5,0.6-0.5,1v3.9l2.3,0.9V112.1z     M300.7,116.1l-1.4-0.5v-3.5c0-0.2,0.1-0.4,0.3-0.6c0.2-0.1,0.4-0.1,0.6-0.1c0.3,0.1,0.4,0.4,0.4,0.6V116.1z"></path>
		<path class="st0" d="M286.1,111.1c-0.3-0.2-0.7-0.3-1.1-0.1c-0.5,0.2-0.7,0.6-0.7,1.1v4.7l2.3-0.9v-3.9    C286.6,111.7,286.4,111.3,286.1,111.1z M286.1,115.6l-1.4,0.5v-4c0-0.3,0.2-0.5,0.4-0.6c0.1,0,0.2,0,0.2,0c0.1,0,0.3,0,0.4,0.1    c0.2,0.1,0.3,0.3,0.3,0.6V115.6z"></path>
		<rect x="260" y="125.6" class="st0" width="2" height="3.2"></rect>
		<polygon class="st0" points="280.6,122.3 280.6,119.6 279.1,120.2 279.2,122.9   "></polygon>
		<polygon class="st0" points="278.7,123.1 278.7,120.4 277.2,121 277.3,123.7   "></polygon>
		<polygon class="st0" points="276.8,123.9 276.7,121.1 275.5,121.7 275.5,124.4   "></polygon>
		<polygon class="st0" points="274.8,124.7 274.7,122 273.7,122.4 273.8,125.1   "></polygon>
		<polygon class="st0" points="272.6,125.6 273.3,125.3 273.2,123 273.2,122.6 272.2,123 272.2,125.8   "></polygon>
	</g>
	<path class="st0" d="M291.5,142C291.5,142,291.5,142,291.5,142C291.5,142,291.4,142,291.5,142C291.5,142,291.5,142,291.5,142z"></path>
	<g>
		<path class="st0" d="M262.5,142.1c3.3-1.5,4.4-0.4,7.2,1.2c0.5,0.3,1,0.4,1.5,0.5c1.7,0.2,3.3-0.4,5-1.1c2.2-1,4.9-2.2,7.5-1.8    c3.9,0.8,7.5,3.8,11.6,2.5c1.5-0.4,3-1.3,4.4-2c0,0,0.3,0.4,0.3,0.4c-5.5,4.3-8.1,3.7-14.3,1.3c-0.6-0.2-1.1-0.4-1.7-0.5    c-2.5-0.6-4.8,0.6-7.2,1.5c-1.6,0.6-3.3,1.2-5.1,1.1c-0.4,0-0.9-0.1-1.4-0.2c-1.2-0.4-2.3-1.3-3.3-2c-1.3-1-2.9-0.8-4.4-0.4    C262.6,142.6,262.5,142.1,262.5,142.1L262.5,142.1z"></path>
		<path class="st0" d="M243.5,147.1c2.8-0.9,6.1,0.7,8.7,1.5c1.5,0.5,3.1,1,4.8,0.8c1.6-0.2,3-1.4,4.6-2.1c1.7-0.8,3.8-0.7,5.7-0.3    c1.2,0.2,2.3,0.9,3.4,1.3c2.1,0.8,4.2,0.5,6.4,0c4.8-1.2,9.1-2.5,14-0.4c2.1,0.8,4.3,1.7,6.6,1.3c0,0,0.1,0.4,0.1,0.4    c-0.6,0.2-1.2,0.3-1.8,0.3c-1.8,0-3.6-0.6-5.2-1.1c-4.8-1.7-8.6-0.3-13.3,1c-1.7,0.4-3.7,0.9-5.5,0.6c-1.2-0.2-2.4-0.7-3.5-1.2    c-1.5-0.7-3.1-0.8-4.7-0.7c-1,0.1-1.9,0.6-2.9,1.2c-1,0.6-2.2,1.1-3.5,1.3c-0.6,0.1-1.3,0.1-1.9,0c-3-0.5-5.5-2.2-8.3-3    c-1.1-0.3-2.2-0.6-3.3-0.4C243.6,147.5,243.5,147.1,243.5,147.1L243.5,147.1z"></path>
		<path class="st0" d="M300.5,148.6c7.4-4.3,10.6,1.5,17.4,0.5c0,0,0.1,0.4,0.1,0.4c-0.7,0.4-1.4,0.7-2.2,0.8    c-2.3,0.5-4.7-0.3-6.8-1c-1.4-0.4-2.7-0.8-4.1-0.8c-1.4,0-2.8,0.2-4.3,0.5L300.5,148.6L300.5,148.6z"></path>
		<path class="st0" d="M265.1,153.4c2-0.4,4.1-0.4,6,0.2c0,0,1.1,0.4,1.1,0.4c2.4,0.9,4.2,0.9,6.6,0c3-1,6.1-2.8,9.5-2.4    c2.6,0.3,4.5,1.6,6.9,2.2c3.9,0.9,7.5-1.3,11.4-1.7c3.5-0.4,6.7,1.9,10,1.9c2.1,0,4-1.2,5.9-2c3.5-1.6,6.2,0.7,9.5,1.6    c2.3,0.6,4.6,1,6.9,0.6c0,0,0.1,0.3,0.1,0.3c-2.4,0.6-4.9,0.5-7.2-0.1c-2.3-0.4-4.4-1.8-6.7-1.8c-1.5,0.1-2.8,1-4.2,1.6    c-2.5,1.3-4.7,1.6-7.4,0.9c-2.2-0.6-4.5-1.5-6.7-1.3c-3.9,0.5-7.8,2.8-12,1.7c-2.3-0.5-4.5-1.9-6.7-2.2c-3-0.4-5.9,1.2-8.9,2.1    c-3.5,1-5.2,0.6-8.4-0.8c-1.8-0.7-3.8-0.8-5.7-0.7C265.1,153.7,265.1,153.4,265.1,153.4L265.1,153.4z"></path>
	</g>
	<g>
		<polygon class="st0" points="335.9,145.4 335.9,146.9 289.7,129.1 290.2,127.7   "></polygon>
	</g>
	<g>
		<polygon class="st0" points="291.1,128.9 281.2,136.1 281.2,134.3 290.2,127.7   "></polygon>
	</g>
</g>
</svg>
