<?xml version="1.0" encoding="UTF-8"?>
<!-- Generator: Adobe Illustrator 28.0.0, SVG Export Plug-In . SVG Version: 6.00 Build 0)  -->
<svg xmlns="http://www.w3.org/2000/svg" xmlns:xlink="http://www.w3.org/1999/xlink" version="1.1" id="Lager_1" x="0px" y="0px" viewBox="0 0 183.4 208.3" style="enable-background:new 0 0 183.4 208.3;" xml:space="preserve">
<style type="text/css">
	.st0{fill:#4B7DBF;}
</style>
<g>
	<path class="st0" d="M92.1,39.8c-30.3,0-55,24.7-55,55v71h109.9v-71C147.1,64.5,122.4,39.8,92.1,39.8z M142.6,161.3h-101v-20   c24.6,0.2,36.9,3.7,49.9,7.4c12.7,3.6,25.9,7.3,51.1,7.5V161.3z M142.6,151.7c-6.7-0.1-12.5-0.4-17.6-0.8c-0.6-1.6-1.3-3.2-2-4.8   c-3.1-7.4-6.7-14.7-10.8-21.6c-2.8-4.7-5.7-9.5-9.3-13.7c-4.1-4.9-8.4-9.7-12.7-14.5c-0.7-0.8-1.5-1.7-2.3-2.5   c3.8,1.7,6.2,4.9,8.3,8.4c0,0,0.1-0.1,0.1-0.1c-0.4-1.3-0.8-2.6-1.3-4c0,0,0.1,0,0.1,0c1.2,1.9,2.5,3.8,3.7,5.7   c0.1,0,0.1,0,0.2-0.1c-0.4-1.5-0.7-3.1-1-4.6c0,0,0.1,0,0.1,0c1.2,2,2.5,4,3.7,6c0.1,0,0.1,0,0.2-0.1c-0.2-1.3-0.5-2.7-0.7-4.1   c0,0,0.1,0,0.1,0c1.1,1.9,2.3,3.9,3.5,5.8c0.1,0,0.1,0,0.2-0.1c-0.3-1.6-0.5-3.3-0.8-4.9l0.1,0c1.2,2.3,2.3,4.5,3.5,6.8   c0.1,0,0.1,0,0.2-0.1c-0.1-1.3-0.3-2.6-0.4-3.9c0,0,0.1,0,0.1,0c1.1,2.1,2.2,4.1,3.3,6.2c0.1,0,0.1,0,0.2,0v-2.8c0,0,0.1,0,0.1,0   c0.9,2,1.9,3.9,2.8,5.9c0.1,0,0.2-0.1,0.2-0.1c-0.7-5.5-2.5-10.6-6.3-14.7c-5.1-5.5-11.6-7.8-18.5-8c3.9-0.7,7.9,0.4,12,1.5   c-1.3-0.9-2.6-1.8-3.9-2.6c0,0,0-0.1,0.1-0.1c2.4,0.8,4.9,1.5,7.3,2.3c0,0,0-0.1,0.1-0.1c-1.4-1.2-2.8-2.3-4.2-3.5   c0,0,0-0.1,0.1-0.1c2.5,0.9,5.1,1.7,7.6,2.6c0-0.1,0.1-0.1,0.1-0.2c-1.2-1.1-2.4-2.2-3.6-3.3c0,0,0-0.1,0.1-0.1   c2.4,0.9,4.9,1.8,7.3,2.8c0-0.1,0.1-0.1,0.1-0.2c-1.4-1.3-2.8-2.7-4.2-4c0,0,0.1-0.1,0.1-0.1c2.7,1.2,5.3,2.4,8,3.6   c0-0.1,0.1-0.1,0.1-0.2c-1.1-1.2-2.1-2.3-3.2-3.5c2.5,0.9,4.9,2.1,7.4,3.1c0-0.1,0.1-0.1,0.1-0.2c-0.7-0.8-1.3-1.7-2-2.5   c0,0,0.1-0.1,0.1-0.1c2.2,1,4.4,2.1,6.6,3.1c0-0.1,0.1-0.1,0.1-0.1c-0.1-0.2-0.3-0.4-0.4-0.5c-1.7-1.8-3.7-3.3-5.8-4.6   c-4-2.5-8.3-3.9-13-3.8C100.9,80,95.7,82,90.9,85c-0.9,0.6-1.8,1.4-2.8,2.1c2-2.4,4.7-3.7,7.3-5.2c-1.2,0.2-2.4,0.5-3.6,0.7   c0,0,0-0.1,0-0.1c1.9-1,3.8-2,5.7-3c0-0.1,0-0.1-0.1-0.1c-1.5,0.1-3,0.3-4.5,0.4c0,0,0-0.1,0-0.1c2.1-1,4.1-2,6.2-3.1   c0-0.1,0-0.1-0.1-0.2c-1.3,0.1-2.7,0.1-4,0.2c0,0,0-0.1,0-0.1c2-0.9,4.1-1.9,6.1-2.8c0,0,0-0.1-0.1-0.1H96c2.5-1,4.8-1.9,7.2-2.8   c0-0.1,0-0.1,0-0.2c-1.3-0.1-2.5-0.1-3.8-0.2c0,0,0-0.1,0-0.1c2.1-0.9,4.2-1.7,6.4-2.6c0-0.1,0-0.1-0.1-0.2   c-0.9-0.1-1.7-0.2-2.6-0.4c0,0,0-0.1,0-0.1c2-0.7,3.9-1.4,5.9-2.1c0-0.1,0-0.1-0.1-0.2c-0.2,0-0.4-0.1-0.6,0   c-1.3,0.1-2.5,0.1-3.8,0.3c-3.7,0.6-7.1,1.8-10.2,4c-5.3,3.9-8.2,9.3-9.8,15.5c-0.4,1.5-0.4,3.2-0.5,4.4c-0.5-2.5,0.4-5.3,1.1-8.1   c-0.5,0.8-1.1,1.7-1.6,2.5c0,0-0.1,0-0.1-0.1c0.5-1.6,1-3.3,1.5-4.9c-0.1,0-0.1,0-0.1-0.1c-0.7,0.9-1.4,1.9-2.2,2.8   c0,0-0.1,0-0.1-0.1c0.6-1.7,1.1-3.5,1.7-5.2c-0.1,0-0.1,0-0.1-0.1c-0.7,0.8-1.3,1.6-2,2.3c0,0-0.1,0-0.1-0.1   c0.6-1.6,1.2-3.3,1.7-4.9c-0.1,0-0.1,0-0.1-0.1c-0.8,0.9-1.7,1.9-2.5,2.8c0,0-0.1,0-0.1,0c0.8-1.9,1.6-3.7,2.4-5.6   c0,0-0.1-0.1-0.1-0.1c-0.7,0.7-1.4,1.4-2.1,2.1c0,0-0.1,0-0.1-0.1c0.7-1.7,1.4-3.4,2.1-5.1c-0.1,0-0.1-0.1-0.2-0.1   c-0.5,0.4-1,0.8-1.5,1.3c0,0-0.1-0.1-0.1-0.1c0.7-1.5,1.4-3,2.1-4.6c-0.1,0-0.1-0.1-0.2-0.1c-2.9,3.1-4.9,6.6-5.7,10.9   c-0.8,4.3,0.2,8.3,1.9,12.4c-3.8-2-7.7-3-11.8-2.4c-3.6,0.5-9.7,3.8-10.5,5.7c1.6-0.7,3-1.3,4.5-2c0,0,0,0.1,0.1,0.1   c-0.4,0.5-0.9,1.1-1.3,1.6c0,0,0.1,0.1,0.1,0.1c1.6-0.6,3.3-1.3,4.9-1.9c0.1,0.1,0.1,0.2,0.2,0.3c-0.7,0.7-1.5,1.3-2.2,2   c0,0.1,0.1,0.1,0.1,0.1c1.8-0.8,3.6-1.5,5.4-2.3c0,0,0,0.1,0.1,0.1c-0.9,0.8-1.9,1.7-2.8,2.5c0,0,0.1,0.1,0.1,0.1   c1.6-0.5,3.2-1.1,4.7-1.6c0,0,0,0.1,0.1,0.1c-0.8,0.7-1.5,1.3-2.3,2c0,0,0.1,0.1,0.1,0.1c1.7-0.5,3.3-1,5-1.6c0,0,0,0.1,0,0.1   c-0.9,0.7-1.8,1.4-2.8,2.1c0,0,0,0.1,0.1,0.1c1.6-0.5,3.2-0.9,4.8-1.4c0,0,0,0.1,0,0.1c-0.8,0.5-1.7,1.1-2.5,1.6   c0.6-0.1,1.2-0.2,1.8-0.4c0.6-0.2,1.2-0.3,1.9-0.4c0.6-0.1,1.2-0.2,1.8-0.2c0.6,0,1.2,0.1,1.8,0.1c-4.5-0.2-8.3,1.6-12,3.7   c-3.8,2.2-6.7,5.2-8.6,9.1c-1.9,3.8-2.9,7.9-3,12.2c0.1,0,0.2,0,0.2,0.1c0.8-2,1.5-4.1,2.3-6.1c0.1,0,0.1,0,0.1,0   c0.1,0.9,0.2,1.8,0.2,2.8c0.1,0,0.1,0,0.2,0c0.9-2.2,1.8-4.3,2.7-6.5c0.1,0,0.1,0,0.2,0.1v3.9c0.1,0,0.1,0,0.1,0   c0.9-2.4,1.9-4.7,2.8-7.1c0,0,0.1,0,0.1,0c-0.1,1.6-0.2,3.2-0.3,4.8c0.1,0,0.1,0,0.2,0c0.9-2,1.9-4,2.8-6c0,0,0.1,0,0.1,0   c-0.1,1.4-0.2,2.7-0.3,4.1c0.1,0,0.1,0,0.2,0c1.1-2.2,2.1-4.3,3.2-6.5c0.1,0,0.1,0,0.1,0c-0.2,1.6-0.5,3.2-0.7,4.8   c0.1,0,0.1,0,0.2,0.1c1.1-2.1,2.2-4.1,3.2-6.2c0.1,0,0.1,0,0.1,0.1c-0.3,1.4-0.6,2.7-1,4.1c0.6-0.8,1-1.6,1.5-2.4   c0.5-0.8,0.9-1.6,1.5-2.4c0.5-0.7,1-1.6,1.8-2c-0.9,1.3-1.8,2.5-2.6,3.9c-0.8,1.5-1.5,3-2.2,4.6c-2.9,7-3.2,14-0.3,21.1   c1.1,2.8,2.6,5.3,4.4,7.7c0.4,0.6,0.9,1.1,1.4,1.6c0.1,0,0.1-0.1,0.2-0.1c-0.9-2.4-1.9-4.7-2.8-7.1c0,0,0.1-0.1,0.1-0.1   c0.8,0.7,1.6,1.4,2.4,2.2c0.1,0,0.1-0.1,0.2-0.1c-0.9-2.6-1.8-5.2-2.8-7.8c0,0,0.1,0,0.1-0.1c1.1,1.2,2.1,2.3,3.2,3.5   c0.1,0,0.1-0.1,0.2-0.1c-1.1-2.9-2.1-5.7-3.2-8.6c0,0,0.1,0,0.1-0.1c1.2,1.5,2.5,3.1,3.7,4.6c0.1,0,0.1-0.1,0.1-0.1   c-0.8-2.6-1.5-5.1-2.3-7.7c0,0,0.1,0,0.1-0.1c1,1.3,2,2.5,3,3.8c0,0,0.1-0.1,0.1-0.1c-0.7-2.7-1.4-5.3-2.2-8c0,0,0.1,0,0.1,0   c1.1,1.5,2.1,3,3.2,4.5c0.1,0,0.1,0,0.1-0.1c-0.6-2.6-1.3-5.1-1.9-7.7c0,0,0.1,0,0.1,0c0.8,1.4,1.6,2.7,2.3,4.1   c-0.8-4-1.6-8-1-12.1c-0.1,2.4,0.2,4.8,0.8,7.2c0.9,3.7,2.2,7.2,4.6,10.3c3.8,4.8,8.8,7.6,14.8,8.8c0.2,0,0.4,0,0.6,0   c0-0.1,0-0.1,0-0.2c-1.8-1.1-3.6-2.1-5.5-3.2c0-0.1,0-0.1,0-0.1c0.9,0,1.8,0.1,2.6,0.1c0-0.1,0-0.1,0.1-0.2c-2-1.3-3.9-2.5-5.9-3.8   c0,0,0-0.1,0.1-0.1c1.3,0.2,2.6,0.4,3.9,0.5c0-0.1,0-0.1,0-0.2c-2.2-1.3-4.4-2.7-6.5-4c0,0,0-0.1,0.1-0.1c1.6,0.3,3.2,0.7,4.8,1   c0-0.1,0-0.1,0.1-0.2c-1.8-1.3-3.7-2.6-5.5-3.9c0,0,0-0.1,0-0.1c1.3,0.3,2.7,0.6,4,0.9c0-0.1,0.1-0.1,0.1-0.2   c-1.9-1.4-3.7-2.8-5.6-4.2c0,0,0-0.1,0.1-0.1c1.5,0.4,3,0.9,4.4,1.3c0,0,0-0.1,0.1-0.1c-1.8-1.4-3.5-2.8-5.3-4.2c0,0,0-0.1,0.1-0.1   c1.2,0.5,2.5,1,3.7,1.5c0,0,0.1-0.1,0.1-0.1c-3.5-2.5-6.5-5.3-7.9-9.4c1,1,1.9,2,2.8,3c4.4,4.8,8.8,9.6,12.6,14.9   c5.3,7.2,10.2,14.7,13.9,22.9c0.9,2,1.7,4,2.6,6c1.2,2.8,2.3,5.6,3.4,8.4c-11.6-1.4-19.8-3.7-28.3-6.1c-12.7-3.6-25.9-7.3-51.1-7.5   v-42c0-27.8,22.7-50.5,50.5-50.5s50.5,22.7,50.5,50.5V151.7z"></path>
	<path class="st0" d="M33.9,199.5c-0.8,0.6-1.7,0.9-2.9,0.9c-1.1,0-2-0.3-2.8-0.8c-0.8-0.5-1.4-1.2-1.9-2.1   c-0.5-0.9-0.9-1.8-1.1-2.9s-0.4-2.1-0.4-3.2c0-1,0.1-2,0.3-3.1c0.2-1,0.6-2,1-2.9s1.1-1.6,1.9-2.1c0.8-0.5,1.8-0.8,2.9-0.8   c0.8,0,1.5,0.1,2,0.4c0.6,0.2,1.1,0.6,1.5,1c0.4,0.4,0.9,1,1.3,1.6l3.6-1.7c-0.4-0.9-0.9-1.7-1.7-2.5c-0.7-0.8-1.7-1.4-2.8-1.9   c-1.1-0.5-2.5-0.7-4-0.7c-1.9,0-3.5,0.4-4.8,1.1c-1.3,0.8-2.4,1.8-3.2,3c-0.8,1.3-1.4,2.6-1.8,4.1c-0.4,1.5-0.6,3-0.6,4.5   c0,1.6,0.2,3.1,0.5,4.6c0.4,1.5,1,2.9,1.8,4.1c0.8,1.2,1.9,2.2,3.2,2.9c1.3,0.7,2.9,1.1,4.8,1.1c1.5,0,2.8-0.2,3.9-0.7   c1.1-0.5,2-1.2,2.8-2c0.8-0.8,1.4-1.8,1.9-2.9l-3.7-1.4C35.3,198.1,34.6,198.9,33.9,199.5z"></path>
	<path class="st0" d="M49.4,179.1l-9.2,24.8h4.4l2-5.5h9.6l2,5.5h4.3l-9.2-24.8H49.4z M47.8,194.7l2.7-7.5c0.1-0.2,0.2-0.4,0.2-0.7   c0.1-0.3,0.2-0.5,0.3-0.8c0.1-0.3,0.2-0.5,0.2-0.7c0,0.2,0.1,0.5,0.2,0.7c0.1,0.3,0.2,0.5,0.3,0.8c0.1,0.3,0.2,0.5,0.2,0.7l2.7,7.5   H47.8z"></path>
	<path class="st0" d="M76.5,194c-0.1,0.3-0.2,0.5-0.3,0.8c-0.1,0.3-0.2,0.5-0.3,0.8c-0.1-0.3-0.2-0.6-0.3-0.8   c-0.1-0.3-0.2-0.5-0.3-0.8l-6.6-14.9h-4v24.8h4.1v-14c0-0.3,0-0.6,0-0.9c0-0.3,0-0.6-0.1-0.9c0.1,0.3,0.2,0.6,0.3,0.9   c0.1,0.3,0.2,0.6,0.3,0.9l6.5,14.4l6.4-14.4c0.1-0.3,0.2-0.6,0.4-0.9s0.3-0.6,0.4-0.9c0,0.2,0,0.5,0,0.8c0,0.4,0,0.7,0,1v14H87   v-24.8h-3.8L76.5,194z"></path>
	<path class="st0" d="M106.4,180.2c-1.2-0.7-2.8-1.1-4.9-1.1H91.3v24.8h4.1v-9.5h6c1.5,0,2.8-0.2,3.8-0.7c1-0.5,1.9-1.1,2.6-1.8   c0.7-0.8,1.1-1.6,1.4-2.5c0.3-0.9,0.5-1.8,0.5-2.7c0-1.3-0.3-2.5-0.8-3.7C108.4,181.9,107.6,181,106.4,180.2z M105.2,188.5   c-0.2,0.6-0.7,1.1-1.2,1.4c-0.6,0.4-1.3,0.6-2.3,0.6h-6.3v-7.6h6.3c1,0,1.8,0.2,2.4,0.6c0.6,0.4,1,0.9,1.2,1.5   c0.2,0.6,0.3,1.2,0.3,1.7C105.5,187.4,105.4,188,105.2,188.5z"></path>
	<rect x="112.1" y="179.1" class="st0" width="4.1" height="24.8"></rect>
	<path class="st0" d="M135.5,194.7c0,0.2,0,0.5,0,0.9c0,0.4,0,0.7,0,1c-0.1-0.3-0.3-0.6-0.5-1c-0.2-0.3-0.4-0.6-0.5-0.9l-10.2-15.6   h-3.9v24.8h4v-15.7c0-0.3,0-0.6,0-0.9c0-0.3,0-0.6-0.1-0.9c0.2,0.3,0.3,0.6,0.5,0.9c0.2,0.3,0.4,0.6,0.5,0.9l10.3,15.7h3.7v-24.8   h-4.1V194.7z"></path>
	<path class="st0" d="M154.2,195.1h4.3v0.6c0,0.9-0.2,1.7-0.6,2.4c-0.4,0.7-1,1.3-1.7,1.7c-0.7,0.4-1.5,0.6-2.5,0.6   c-1.1,0-2.1-0.2-2.9-0.7c-0.8-0.5-1.5-1.2-2-2c-0.5-0.8-0.9-1.8-1.1-2.9c-0.2-1.1-0.4-2.2-0.4-3.3c0-1,0.1-2,0.3-3.1   c0.2-1,0.6-2,1.1-2.9c0.5-0.9,1.2-1.6,2-2.1c0.8-0.5,1.9-0.8,3.1-0.8c1.2,0,2.2,0.3,2.9,0.9c0.8,0.6,1.4,1.3,2,2.2l3.6-2.1   c-0.5-0.8-1.1-1.6-1.9-2.4c-0.7-0.7-1.6-1.4-2.7-1.8c-1.1-0.5-2.4-0.7-4-0.7c-1.8,0-3.4,0.4-4.8,1.1c-1.3,0.7-2.5,1.7-3.3,3   c-0.9,1.2-1.5,2.6-1.9,4.1c-0.4,1.5-0.6,3.1-0.6,4.6c0,1.6,0.2,3.2,0.6,4.7c0.4,1.5,1,2.9,1.9,4.1c0.9,1.2,2,2.2,3.3,2.9   c1.3,0.7,3,1.1,4.9,1.1c1.7,0,3.2-0.4,4.6-1.1c1.4-0.7,2.4-1.8,3.2-3.3c0.8-1.4,1.2-3.2,1.2-5.3v-3.4h-8.5V195.1z"></path>
	<polygon class="st0" points="27.8,92.5 20.7,91.9 15.6,87 28.7,81.3 29.1,76.6 12.4,83.9 4.3,76.1 3.9,80.9 15,91.4 3.1,90.3    2.7,94.4 27.4,96.5  "></polygon>
	<path class="st0" d="M5,61.9c0.6-0.2,1-0.7,1.2-1.3c0.3-0.6,0.3-1.2,0-1.8c-0.2-0.6-0.6-1-1.3-1.3c-0.6-0.3-1.2-0.3-1.8,0   s-1,0.7-1.2,1.3c-0.3,0.6-0.3,1.2,0,1.8c0.2,0.6,0.6,1,1.3,1.3C3.9,62.1,4.5,62.1,5,61.9z"></path>
	<path class="st0" d="M6,55.5c0.6,0.3,1.2,0.3,1.8,0s1-0.7,1.2-1.3c0.3-0.6,0.3-1.2,0-1.8c-0.2-0.6-0.7-1-1.3-1.2   c-0.6-0.3-1.2-0.3-1.8,0c-0.6,0.2-1,0.7-1.2,1.3c-0.3,0.6-0.3,1.2,0,1.8C4.9,54.8,5.4,55.2,6,55.5z"></path>
	<path class="st0" d="M8.9,63.4c0.2,1.6,0.6,3,1.5,4.2c0.8,1.3,1.9,2.4,3.1,3.3c1.2,0.9,2.6,1.7,4,2.3c1.4,0.6,2.9,1,4.4,1.2   c1.5,0.2,3,0.2,4.5-0.1c1.5-0.3,2.8-0.9,4-1.9c1.2-1,2.2-2.4,3-4.2c0.8-1.8,1.1-3.5,0.9-5.1c-0.2-1.5-0.6-2.9-1.5-4.2   s-1.9-2.4-3.1-3.3c-1.2-0.9-2.6-1.7-4-2.3c-1.4-0.6-2.9-1-4.4-1.3c-1.5-0.2-3-0.2-4.5,0.1c-1.5,0.3-2.8,0.9-4,1.9   c-1.2,1-2.2,2.4-3,4.2C9,60.1,8.7,61.8,8.9,63.4z M13.4,59.8c0.5-1.1,1.1-2,1.9-2.5c0.8-0.6,1.7-0.9,2.7-1c1-0.1,2-0.1,3.1,0.1   c1.1,0.2,2.1,0.5,3.1,0.9c0.9,0.4,1.8,0.9,2.7,1.5c0.9,0.6,1.6,1.3,2.2,2.1c0.6,0.8,1,1.7,1.2,2.7c0.2,1,0,2-0.4,3.1   c-0.5,1.1-1.1,1.9-1.9,2.5c-0.8,0.6-1.7,0.9-2.7,1c-1,0.1-2,0.1-3.1-0.1s-2.1-0.5-3.1-0.9c-0.9-0.4-1.8-0.9-2.7-1.5   c-0.9-0.6-1.6-1.3-2.2-2.1c-0.6-0.8-1-1.7-1.2-2.7C12.7,62,12.9,60.9,13.4,59.8z"></path>
	<path class="st0" d="M41,54.1l-7.2-6.2l4-4.6c1-1.1,1.6-2.2,2-3.3c0.3-1.1,0.5-2.1,0.3-3.1c-0.1-1-0.4-1.9-0.9-2.7   c-0.5-0.8-1-1.5-1.7-2.1c-1-0.8-2-1.4-3.3-1.8c-1.2-0.4-2.5-0.4-3.9,0.1c-1.4,0.4-2.7,1.4-4.1,3l-6.6,7.6l18.7,16.2L41,54.1z    M25.2,40.3l4.1-4.7c0.7-0.8,1.3-1.2,2-1.4c0.7-0.2,1.3-0.1,1.9,0.1c0.6,0.2,1.1,0.5,1.5,0.9c0.5,0.4,0.8,0.9,1.1,1.4   c0.3,0.6,0.4,1.2,0.3,1.9c-0.1,0.7-0.4,1.4-1.1,2.1L31,45.3L25.2,40.3z"></path>
	<rect x="44" y="19.6" transform="matrix(0.7979 -0.6028 0.6028 0.7979 -9.9772 34.1973)" class="st0" width="4.1" height="24.8"></rect>
	<path class="st0" d="M61,36.7l-6.4-14.3c-0.1-0.2-0.2-0.5-0.4-0.8c-0.1-0.3-0.3-0.6-0.4-0.8c0.3,0.2,0.5,0.4,0.9,0.6   c0.3,0.2,0.6,0.4,0.8,0.6l15.8,10.1l3.4-1.5L64.6,8l-3.7,1.7l6.4,14.2c0.1,0.2,0.2,0.5,0.4,0.8c0.2,0.3,0.3,0.6,0.4,0.9   c-0.3-0.2-0.5-0.5-0.9-0.7c-0.3-0.2-0.6-0.4-0.8-0.6L50.8,14.1l-3.6,1.6l10.1,22.6L61,36.7z"></path>
	<path class="st0" d="M76.2,22.4c0.5,1.5,1.3,2.8,2.3,3.9c1,1.1,2.2,2,3.6,2.6c1.4,0.6,3.1,0.8,4.9,0.6c1.7-0.2,3.2-0.7,4.5-1.5   c1.3-0.9,2.3-2,2.9-3.5c0.7-1.5,0.9-3.3,0.7-5.4l-0.3-3.3l-8.5,0.8l0.3,3.8l4.3-0.4l0.1,0.6c0.1,0.9-0.1,1.7-0.4,2.4   c-0.3,0.7-0.9,1.3-1.5,1.8c-0.7,0.5-1.5,0.7-2.4,0.8c-1.1,0.1-2.1-0.1-3-0.5c-0.9-0.4-1.6-1-2.2-1.8c-0.6-0.8-1.1-1.7-1.4-2.8   c-0.3-1-0.6-2.1-0.7-3.3c-0.1-1-0.1-2,0-3.1c0.1-1.1,0.4-2.1,0.8-3c0.4-0.9,1-1.7,1.8-2.3c0.8-0.6,1.8-1,3-1.1   c1.2-0.1,2.2,0.1,3,0.7c0.8,0.5,1.5,1.2,2.2,2l3.4-2.4C93,7.4,92.3,6.6,91.5,6c-0.8-0.7-1.7-1.2-2.8-1.6c-1.1-0.4-2.4-0.5-4-0.3   c-1.8,0.2-3.4,0.7-4.7,1.5c-1.3,0.9-2.3,1.9-3,3.3c-0.8,1.3-1.3,2.7-1.6,4.3c-0.3,1.5-0.4,3.1-0.2,4.6   C75.3,19.4,75.7,20.9,76.2,22.4z"></path>
	<path class="st0" d="M112.1,31.2c1.1-0.2,2.1-0.5,2.9-1.1s1.4-1.2,1.9-2s0.8-1.6,1-2.4c0.2-0.8,0.2-1.6,0.1-2.4   c-0.1-0.8-0.4-1.6-0.9-2.3c-0.5-0.7-1.1-1.3-1.9-1.8c1.2-0.2,2.1-0.7,2.9-1.5c0.7-0.8,1.2-1.7,1.5-2.8c0.2-1.1,0.2-2.2,0-3.3   c-0.3-1.1-0.9-2.1-1.8-3c-1-0.9-2.4-1.5-4.4-2l-9.8-2.2l-5.5,24.1l10.3,2.4C109.7,31.3,111,31.4,112.1,31.2z M106.5,9l5.9,1.4   c1,0.2,1.7,0.6,2.2,1c0.4,0.4,0.7,0.9,0.8,1.4c0.1,0.5,0,1-0.1,1.5c-0.2,1-0.7,1.6-1.6,2.1c-0.8,0.4-2,0.5-3.4,0.1l-5.3-1.2   L106.5,9z M104.3,18.8l5.6,1.3c1.3,0.3,2.3,0.7,2.9,1.2c0.6,0.5,1,1.1,1.1,1.7c0.1,0.6,0.1,1.2,0,1.9c-0.1,0.5-0.3,1-0.7,1.5   c-0.3,0.5-0.8,0.8-1.4,1c-0.6,0.2-1.4,0.2-2.4,0l-6.6-1.5L104.3,18.8z"></path>
	<path class="st0" d="M119.1,34.5l4.5-3.7l8.2,4.9l-1.1,5.8l3.7,2.2l4.8-26l-3.3-2l-20.6,16.5L119.1,34.5z M132.8,23.2   c0.2-0.1,0.4-0.3,0.6-0.5c0.2-0.2,0.4-0.4,0.6-0.6c0.2-0.2,0.4-0.3,0.6-0.5c-0.1,0.2-0.1,0.4-0.2,0.7c-0.1,0.3-0.1,0.6-0.2,0.8   c-0.1,0.3-0.1,0.5-0.1,0.7l-1.5,7.8l-6-3.6L132.8,23.2z"></path>
	<path class="st0" d="M139.6,50c1.5,1.7,3,2.9,4.6,3.6c1.6,0.7,3.1,0.9,4.6,0.8c1.5-0.1,3-0.5,4.3-1.1c1.4-0.6,2.6-1.4,3.6-2.4   c1.2-1,2.2-2.1,3-3.4c0.8-1.3,1.4-2.7,1.7-4.1c0.3-1.5,0.2-3-0.2-4.6c-0.4-1.6-1.4-3.2-2.8-4.8l-5.1-5.9l-18.7,16.2L139.6,50z    M153.1,33.6l2.9,3.3c0.8,0.9,1.3,1.9,1.5,2.8c0.2,1,0.2,1.9-0.1,2.9c-0.3,0.9-0.7,1.9-1.3,2.7c-0.6,0.9-1.3,1.6-2.1,2.3   c-0.8,0.7-1.6,1.2-2.5,1.7c-0.9,0.5-1.9,0.8-2.9,0.9c-1,0.1-2,0-3-0.4c-1-0.4-1.9-1.1-2.8-2.1l-2.6-3.1L153.1,33.6z"></path>
	<polygon class="st0" points="154.6,76 158.2,74.4 153.1,62.8 159.5,60 162.4,66.7 166,65.2 163.1,58.5 168.8,56 173.5,67 177,65.5    170.7,50.7 148,60.6  "></polygon>
	<path class="st0" d="M155.4,81.3l15.6-1.5c0.3,0,0.6-0.1,0.9-0.1c0.3,0,0.6-0.1,0.9-0.2c-0.3,0.2-0.6,0.4-0.9,0.6   c-0.3,0.2-0.6,0.4-0.8,0.6l-14.6,11.8l0.4,3.7l24.6-2.4l-0.4-4l-15.5,1.5c-0.2,0-0.5,0.1-0.9,0.1c-0.4,0.1-0.7,0.1-0.9,0.1   c0.3-0.2,0.6-0.4,0.9-0.6c0.3-0.2,0.6-0.4,0.8-0.6L180,78.7l-0.4-3.9L155,77.3L155.4,81.3z"></path>
</g>
</svg>
