<?xml version="1.0" encoding="UTF-8"?>
<!-- Generator: Adobe Illustrator 28.0.0, SVG Export Plug-In . SVG Version: 6.00 Build 0)  -->
<svg xmlns="http://www.w3.org/2000/svg" xmlns:xlink="http://www.w3.org/1999/xlink" version="1.1" id="Lager_1" x="0px" y="0px" viewBox="0 0 109.5 83.1" style="enable-background:new 0 0 109.5 83.1;" xml:space="preserve">
<style type="text/css">
	.st0{fill:none;stroke:#FFFFFF;stroke-width:2;stroke-linecap:round;stroke-linejoin:round;stroke-miterlimit:10;}
</style>
<rect x="12.8" y="36.4" class="st0" width="83.2" height="36.8"></rect>
<polygon class="st0" points="101.6,36.4 7.3,36.4 17,9.2 91.8,9.2 "></polygon>
<rect x="34.4" y="50.4" class="st0" width="12.3" height="22.8"></rect>
<line class="st0" x1="15" y1="16.3" x2="93.8" y2="16.3"></line>
<line class="st0" x1="12.8" y1="22.8" x2="96" y2="22.8"></line>
<line class="st0" x1="10.6" y1="29.6" x2="98.2" y2="29.6"></line>
<line class="st0" x1="6" y1="73.2" x2="102.8" y2="73.2"></line>
<polygon class="st0" points="24.9,73.2 34.4,73.2 34.4,50.4 24.9,47.4 "></polygon>
<line class="st0" x1="29.7" y1="48.9" x2="29.7" y2="73.2"></line>
<line class="st0" x1="96" y1="43.4" x2="73.6" y2="43.4"></line>
<line class="st0" x1="96" y1="58.3" x2="73.6" y2="58.3"></line>
<line class="st0" x1="96" y1="50.8" x2="68.6" y2="50.8"></line>
<line class="st0" x1="96" y1="65.8" x2="68.6" y2="65.8"></line>
</svg>
