<?xml version="1.0" encoding="UTF-8"?>
<!-- Generator: Adobe Illustrator 28.0.0, SVG Export Plug-In . SVG Version: 6.00 Build 0)  -->
<svg xmlns="http://www.w3.org/2000/svg" xmlns:xlink="http://www.w3.org/1999/xlink" version="1.1" id="Lager_1" x="0px" y="0px" viewBox="0 0 135.1 83.1" style="enable-background:new 0 0 135.1 83.1;" xml:space="preserve">
<style type="text/css">
	.st0{fill:none;stroke:#FFFFFF;stroke-width:2;stroke-miterlimit:10;}
</style>
<g>
	<g>
		<path class="st0" d="M20,28.2c0-5.6,11.8-10.4,26.3-10.2c12.4,0.2,26,8,25.5,7.7"></path>
		<polyline class="st0" points="71.7,25.7 71.7,30.7 71.7,37.4 71.7,61.2 71.7,61.4   "></polyline>
		<polyline class="st0" points="20,28.2 20,41.6 20,60.5   "></polyline>
		<polyline class="st0" points="7.7,46.6 20,41.6 20,60.5   "></polyline>
		<polyline class="st0" points="82,65.2 81.9,65.2 71.7,61.4 71.7,61.2 71.7,37.4 126.6,57.1   "></polyline>
		<path class="st0" d="M127.4,56.6c-0.5,0.2-0.8,0.3-0.8,0.5"></path>
		<path class="st0" d="M126.6,57.1"></path>
		<path class="st0" d="M82.5,56.7L77.9,55V48c0-1.6,1.6-2.7,3.1-2.2l0,0c0.9,0.3,1.6,1.2,1.6,2.2L82.5,56.7z"></path>
		<path class="st0" d="M93.8,60.5l-4.6-1.7V52c0-1.6,1.6-2.7,3.1-2.2h0c0.9,0.3,1.6,1.2,1.6,2.2L93.8,60.5z"></path>
		<path class="st0" d="M104.6,64.9l-4.6-1.7V56c0-1.6,1.6-2.7,3.1-2.2h0c0.9,0.3,1.6,1.2,1.6,2.2L104.6,64.9z"></path>
		<path class="st0" d="M115.1,69l-4.6-1.7v-7.5c0-1.6,1.6-2.7,3.1-2.2l0,0c0.9,0.3,1.6,1.2,1.6,2.2L115.1,69z"></path>
		<polyline class="st0" points="7.7,69.1 20,60.5 37.8,48 71.7,61.2 81.9,65.2 82,65.2 99,71.8   "></polyline>
		<path class="st0" d="M49,35.5h-7.1v-9.2c0-1.7,1.3-3,3-3H46c1.7,0,3,1.3,3,3V35.5z"></path>
		<path class="st0" d="M49,35.5v-6.9c0-1.9-1.6-3.5-3.5-3.5h-0.1c-1.9,0-3.5,1.6-3.5,3.5v6.9"></path>
		<path class="st0" d="M66.6,40.6l-4.5-1.8v-9c0-1.6,1.6-2.6,3-2.1l0,0c0.9,0.3,1.4,1.2,1.4,2.1V40.6z"></path>
		<path class="st0" d="M25,39.1l4.5-1.8l0-9c0-1.6-1.6-2.6-3-2.1l0,0c-0.9,0.3-1.4,1.2-1.4,2.1V39.1z"></path>
	</g>
	<path class="st0" d="M127.4,16.8v49.4c0,3.1-2.5,5.6-5.6,5.6H13.2c-3.1,0-5.6-2.5-5.6-5.6V16.8c0-3.1,2.5-5.6,5.6-5.6h108.6   C124.9,11.3,127.4,13.8,127.4,16.8z"></path>
</g>
</svg>
