<?xml version="1.0" encoding="UTF-8"?>
<!-- Generator: Adobe Illustrator 28.0.0, SVG Export Plug-In . SVG Version: 6.00 Build 0)  -->
<svg xmlns="http://www.w3.org/2000/svg" xmlns:xlink="http://www.w3.org/1999/xlink" version="1.1" id="Lager_1" x="0px" y="0px" viewBox="0 0 132.6 83.1" style="enable-background:new 0 0 132.6 83.1;" xml:space="preserve">
<style type="text/css">
	.st0{fill:none;stroke:#FFFFFF;stroke-width:2;stroke-linecap:round;stroke-linejoin:round;stroke-miterlimit:10;}
</style>
<line class="st0" x1="17.6" y1="73.2" x2="114.4" y2="73.2"></line>
<line class="st0" x1="107.6" y1="65.8" x2="80.1" y2="65.8"></line>
<g>
	<polyline class="st0" points="112.5,24.9 112.5,24.9 124.3,65.4 106.4,65.4  "></polyline>
	<polyline class="st0" points="8.4,24.9 8.4,65.4 20.4,65.4  "></polyline>
	<polyline class="st0" points="114.7,12.1 114.7,12.1 114.4,12.1  "></polyline>
	<polyline class="st0" points="44.6,65.4 59.1,65.4 73.5,65.4 83.2,65.4  "></polyline>
	<rect x="54.8" y="24.8" class="st0" width="20.5" height="40.5"></rect>
	<polyline class="st0" points="117,24.9 93.1,24.9 93.1,45 117.6,45  "></polyline>
	<rect x="17.1" y="24.9" class="st0" width="27.6" height="13.8"></rect>
	<path class="st0" d="M8.4,24.9v-5c0-4.3,3.9-7.7,8.7-7.7h97.4c5.5,0,9.9,3.9,9.9,8.8v4H83.1"></path>
	<circle class="st0" cx="94.5" cy="65.4" r="5.7"></circle>
	<circle class="st0" cx="32.9" cy="65.4" r="5.7"></circle>
	<line class="st0" x1="8.4" y1="49.7" x2="44.6" y2="49.7"></line>
</g>
</svg>
