<?xml version="1.0" encoding="UTF-8"?>
<!-- Generator: Adobe Illustrator 28.0.0, SVG Export Plug-In . SVG Version: 6.00 Build 0)  -->
<svg xmlns="http://www.w3.org/2000/svg" xmlns:xlink="http://www.w3.org/1999/xlink" version="1.1" id="Lager_1" x="0px" y="0px" viewBox="0 0 109.5 83.1" style="enable-background:new 0 0 109.5 83.1;" xml:space="preserve">
<style type="text/css">
	.st0{fill:none;stroke:#FFFFFF;stroke-width:2;stroke-linecap:round;stroke-linejoin:round;stroke-miterlimit:10;}
</style>
<path class="st0" d="M102.8,73.2"></path>
<g>
	<line class="st0" x1="98.3" y1="73.6" x2="11.1" y2="73.6"></line>
	<g>
		<rect x="35.3" y="40.5" class="st0" width="56.7" height="33.1"></rect>
		<polyline class="st0" points="63.7,16 26.6,16 35.3,40.5 35.3,40.5 92,40.5 92,40.5 81.1,16 81.1,16   "></polyline>
		<rect x="48.3" y="54" class="st0" width="8.9" height="19.6"></rect>
		<line class="st0" x1="41.7" y1="48.1" x2="92" y2="48.1"></line>
		<line class="st0" x1="92" y1="57.1" x2="62.5" y2="57.1"></line>
		<line class="st0" x1="43.8" y1="57.1" x2="35.3" y2="57.1"></line>
		<line class="st0" x1="43.8" y1="57.1" x2="35.3" y2="57.1"></line>
		<line class="st0" x1="34.9" y1="57.1" x2="17.9" y2="57"></line>
		<line class="st0" x1="34.9" y1="48.1" x2="17.4" y2="48.1"></line>
		<line class="st0" x1="34.9" y1="66.2" x2="17.4" y2="66.2"></line>
		<line class="st0" x1="92" y1="66.2" x2="62.5" y2="66.2"></line>
		<line class="st0" x1="43.8" y1="66.2" x2="35.3" y2="66.2"></line>
		<rect x="68.3" y="9.5" class="st0" width="8" height="19.5"></rect>
		<line class="st0" x1="35.3" y1="40.5" x2="17.4" y2="40.5"></line>
		<line class="st0" x1="17.4" y1="40.5" x2="17.4" y2="73.6"></line>
		<line class="st0" x1="17.4" y1="40.5" x2="26.6" y2="16"></line>
	</g>
</g>
</svg>
