<?xml version="1.0" encoding="UTF-8"?>
<!-- Generator: Adobe Illustrator 28.0.0, SVG Export Plug-In . SVG Version: 6.00 Build 0)  -->
<svg xmlns="http://www.w3.org/2000/svg" xmlns:xlink="http://www.w3.org/1999/xlink" version="1.1" id="Lager_1" x="0px" y="0px" viewBox="0 0 109.5 83.1" style="enable-background:new 0 0 109.5 83.1;" xml:space="preserve">
<style type="text/css">
	.st0{fill:none;stroke:#FFFFFF;stroke-width:2;stroke-linecap:round;stroke-linejoin:round;stroke-miterlimit:10;}
	.st1{fill:#FFFFFF;}
</style>
<path class="st0" d="M102.8,73.2"></path>
<g>
	<g>
		<path class="st1" d="M54.6,73.4c2.8,0,5-2.2,5-5c0-2.8-2.2-5-5-5c-2.8,0-5,2.2-5,5C49.6,71.2,51.8,73.4,54.6,73.4z"></path>
		<path class="st1" d="M92.6,26.3C82.7,15.6,69.2,9.7,54.7,9.7c-14.5,0-28,5.9-37.9,16.5c-1.1,1.2-1.1,3.1,0.2,4.3    c1.2,1.1,3.1,1.1,4.3-0.2C30,21,41.9,15.8,54.7,15.8c12.8,0,24.7,5.2,33.5,14.6c0.6,0.6,1.4,1,2.2,1c0.7,0,1.5-0.3,2.1-0.8    C93.7,29.4,93.8,27.5,92.6,26.3z"></path>
		<path class="st1" d="M81.5,38.8c-7.3-7.4-16.9-11.5-26.8-11.5c-9.9,0-19.5,4.1-26.8,11.5c-1.2,1.2-1.2,3.1,0,4.3    c1.2,1.2,3.1,1.2,4.3,0c6.2-6.3,14.2-9.7,22.5-9.7c8.3,0,16.3,3.4,22.5,9.7c0.6,0.6,1.4,0.9,2.1,0.9c0.8,0,1.5-0.3,2.1-0.9    C82.7,41.9,82.7,39.9,81.5,38.8z"></path>
		<path class="st1" d="M69.4,51.3c-3.9-3.9-9.6-6.3-14.7-6.3c0,0,0,0,0,0h-0.2c0,0,0,0,0,0c-5.1,0-10.8,2.4-14.7,6.3    c-1.2,1.2-1.2,3.1,0,4.3c0.6,0.6,1.4,0.9,2.1,0.9c0.8,0,1.5-0.3,2.1-0.9c2.8-2.8,6.9-4.6,10.5-4.6c0,0,0,0,0,0h0.2c0,0,0,0,0,0    c3.6,0,7.7,1.8,10.5,4.6c1.2,1.2,3.1,1.2,4.3,0C70.6,54.4,70.6,52.5,69.4,51.3z"></path>
	</g>
</g>
<g>
	<line class="st0" x1="98.3" y1="73.6" x2="11.1" y2="73.6"></line>
	<g>
		<rect x="35.3" y="40.5" class="st0" width="56.7" height="33.1"></rect>
		<polyline class="st0" points="63.7,16 26.6,16 35.3,40.5 35.3,40.5 92,40.5 92,40.5 81.1,16 81.1,16   "></polyline>
		<rect x="48.3" y="54" class="st0" width="8.9" height="19.6"></rect>
		<line class="st0" x1="41.7" y1="48.1" x2="92" y2="48.1"></line>
		<line class="st0" x1="92" y1="57.1" x2="62.5" y2="57.1"></line>
		<line class="st0" x1="43.8" y1="57.1" x2="35.3" y2="57.1"></line>
		<line class="st0" x1="43.8" y1="57.1" x2="35.3" y2="57.1"></line>
		<line class="st0" x1="34.9" y1="57.1" x2="17.9" y2="57"></line>
		<line class="st0" x1="34.9" y1="48.1" x2="17.4" y2="48.1"></line>
		<line class="st0" x1="34.9" y1="66.2" x2="17.4" y2="66.2"></line>
		<line class="st0" x1="92" y1="66.2" x2="62.5" y2="66.2"></line>
		<line class="st0" x1="43.8" y1="66.2" x2="35.3" y2="66.2"></line>
		<rect x="68.3" y="9.5" class="st0" width="8" height="19.5"></rect>
		<line class="st0" x1="35.3" y1="40.5" x2="17.4" y2="40.5"></line>
		<line class="st0" x1="17.4" y1="40.5" x2="17.4" y2="73.6"></line>
		<line class="st0" x1="17.4" y1="40.5" x2="26.6" y2="16"></line>
	</g>
</g>
</svg>
